<svg width="500" height="384" viewBox="0 0 500 384" fill="none" xmlns="http://www.w3.org/2000/svg">
<path d="M500 338.762H0V339.012H500V338.762Z" fill="#EBEBEB"/>
<path d="M449.9 348.282H359V348.532H449.9V348.282Z" fill="#EBEBEB"/>
<path d="M331.22 345.572H306.33V345.822H331.22V345.572Z" fill="#EBEBEB"/>
<path d="M388.11 357.572H349.52V357.822H388.11V357.572Z" fill="#EBEBEB"/>
<path d="M75.1 355.892H52.46V356.142H75.1V355.892Z" fill="#EBEBEB"/>
<path d="M110.89 355.892H84V356.142H110.89V355.892Z" fill="#EBEBEB"/>
<path d="M225.15 351.672H178.31V351.922H225.15V351.672Z" fill="#EBEBEB"/>
<path d="M237 294.162H43.91C42.3973 294.159 40.9475 293.556 39.8788 292.486C38.8102 291.415 38.21 289.964 38.21 288.452V17.0218C38.2231 15.5178 38.8292 14.0798 39.8964 13.02C40.9637 11.9603 42.4059 11.3644 43.91 11.3618H237C238.514 11.3618 239.967 11.9634 241.038 13.0342C242.108 14.1051 242.71 15.5574 242.71 17.0718V288.452C242.71 289.966 242.108 291.419 241.038 292.489C239.967 293.56 238.514 294.162 237 294.162ZM43.91 11.5618C42.4636 11.5645 41.0774 12.1409 40.0556 13.1645C39.0338 14.1882 38.46 15.5755 38.46 17.0218V288.452C38.46 289.898 39.0338 291.285 40.0556 292.309C41.0774 293.333 42.4636 293.909 43.91 293.912H237C238.447 293.909 239.834 293.333 240.858 292.31C241.881 291.286 242.457 289.899 242.46 288.452V17.0218C242.457 15.5745 241.881 14.1873 240.858 13.1639C239.834 12.1406 238.447 11.5645 237 11.5618H43.91Z" fill="#EBEBEB"/>
<path d="M453.31 294.162H260.21C258.696 294.159 257.246 293.557 256.175 292.486C255.105 291.416 254.503 289.965 254.5 288.452V17.0218C254.516 15.5169 255.124 14.0789 256.193 13.0194C257.262 11.9599 258.705 11.3644 260.21 11.3618H453.31C454.812 11.367 456.252 11.9641 457.317 13.0235C458.382 14.083 458.987 15.5196 459 17.0218V288.452C459 289.963 458.401 291.412 457.335 292.482C456.268 293.553 454.821 294.157 453.31 294.162ZM260.21 11.5618C258.763 11.5645 257.375 12.1406 256.352 13.1639C255.329 14.1873 254.753 15.5745 254.75 17.0218V288.452C254.753 289.899 255.329 291.286 256.352 292.31C257.375 293.333 258.763 293.909 260.21 293.912H453.31C454.757 293.909 456.145 293.333 457.168 292.31C458.191 291.286 458.767 289.899 458.77 288.452V17.0218C458.767 15.5745 458.191 14.1873 457.168 13.1639C456.145 12.1406 454.757 11.5645 453.31 11.5618H260.21Z" fill="#EBEBEB"/>
<path d="M429.17 218.472C427.688 218.477 426.213 218.668 424.78 219.042C423.362 217.112 421.565 215.492 419.499 214.28C417.433 213.069 415.142 212.291 412.765 211.996C410.389 211.7 407.977 211.892 405.677 212.56C403.377 213.228 401.238 214.358 399.39 215.882C396.357 210.758 391.779 206.726 386.313 204.365C380.846 202.004 374.773 201.435 368.963 202.74C363.154 204.045 357.907 207.157 353.975 211.629C350.044 216.101 347.63 221.703 347.08 227.632C343.931 226.932 340.659 227.004 337.544 227.842C334.429 228.68 331.562 230.259 329.19 232.445C326.817 234.63 325.008 237.358 323.917 240.394C322.827 243.43 322.487 246.685 322.926 249.88C323.366 253.076 324.572 256.118 326.442 258.747C328.312 261.376 330.79 263.514 333.664 264.977C336.539 266.441 339.725 267.188 342.951 267.154C346.177 267.12 349.347 266.306 352.19 264.782C353.462 269.378 356.085 273.486 359.719 276.574C363.353 279.662 367.83 281.587 372.571 282.101C377.312 282.615 382.098 281.694 386.309 279.456C390.52 277.219 393.962 273.768 396.19 269.552C400.006 272.809 404.666 274.919 409.632 275.638C414.597 276.357 419.665 275.655 424.248 273.614C428.831 271.573 432.743 268.276 435.531 264.104C438.318 259.933 439.868 255.057 440 250.042C442.913 247.794 445.05 244.69 446.109 241.166C447.169 237.642 447.099 233.875 445.909 230.393C444.719 226.911 442.469 223.889 439.474 221.751C436.479 219.613 432.89 218.466 429.21 218.472H429.17Z" fill="#F5F5F5"/>
<path d="M72.67 112.682C70.4248 111.703 67.8828 111.655 65.6027 112.55C63.3225 113.444 61.4908 115.207 60.51 117.452C59.3886 116.889 58.1645 116.561 56.9122 116.488C55.6599 116.414 54.4057 116.596 53.2261 117.022C52.0464 117.449 50.9659 118.111 50.0505 118.969C49.1351 119.827 48.404 120.862 47.9016 122.011C47.3993 123.161 47.1363 124.401 47.1286 125.655C47.1209 126.91 47.3688 128.152 47.857 129.308C48.3453 130.463 49.0637 131.507 49.9685 132.376C50.8734 133.245 51.9456 133.921 53.12 134.362L70.05 141.752L77.44 124.822C78.4155 122.579 78.461 120.041 77.5667 117.765C76.6723 115.489 74.9112 113.661 72.67 112.682Z" fill="#F5F5F5"/>
<path d="M151.61 32.0216C151.233 31.3035 150.718 30.6667 150.095 30.1478C149.471 29.6288 148.752 29.2379 147.977 28.9973C147.202 28.7568 146.388 28.6713 145.58 28.7458C144.773 28.8203 143.987 29.0534 143.27 29.4316C142.479 28.0311 141.174 26.9939 139.631 26.5403C138.088 26.0866 136.43 26.2523 135.007 27.002C133.584 27.7518 132.51 29.0266 132.012 30.5557C131.514 32.0849 131.632 33.7479 132.34 35.1916L138.1 46.1216L149 40.3616C149.72 39.9863 150.358 39.4726 150.879 38.85C151.4 38.2274 151.793 37.5081 152.036 36.7333C152.278 35.9586 152.366 35.1435 152.292 34.335C152.219 33.5265 151.987 32.7403 151.61 32.0216Z" fill="#E6E6E6"/>
<path d="M403 7.20172C402.622 6.48442 402.107 5.84864 401.483 5.33071C400.859 4.81278 400.139 4.42287 399.365 4.18326C398.59 3.94366 397.776 3.85905 396.969 3.93428C396.162 4.00952 395.377 4.24311 394.66 4.62172C394.283 3.90208 393.768 3.26371 393.145 2.74308C392.521 2.22245 391.801 1.82974 391.026 1.58738C390.25 1.34502 389.435 1.25775 388.626 1.33056C387.817 1.40337 387.03 1.63483 386.31 2.01172C385.591 2.38862 384.952 2.90357 384.432 3.52717C383.911 4.15077 383.518 4.8708 383.276 5.64617C383.034 6.42154 382.946 7.23706 383.019 8.04615C383.092 8.85525 383.323 9.64208 383.7 10.3617L389.46 21.2817L400.38 15.5317C401.829 14.7715 402.918 13.4684 403.409 11.9074C403.9 10.3464 403.753 8.65455 403 7.20172Z" fill="#F5F5F5"/>
<path d="M443 187.932C442.81 186.736 442.155 185.663 441.177 184.949C440.198 184.235 438.977 183.938 437.78 184.122C437.544 182.974 436.875 181.961 435.912 181.293C434.949 180.625 433.766 180.354 432.608 180.535C431.45 180.716 430.406 181.337 429.693 182.267C428.981 183.197 428.654 184.367 428.78 185.532L430.19 194.532L439.19 193.122C440.381 192.934 441.45 192.284 442.164 191.312C442.878 190.339 443.178 189.125 443 187.932Z" fill="#EBEBEB"/>
<path d="M350.53 110.622C350.062 110.475 349.569 110.421 349.081 110.465C348.592 110.508 348.117 110.648 347.682 110.876C347.247 111.103 346.861 111.414 346.547 111.791C346.233 112.168 345.996 112.603 345.85 113.072C345.381 112.925 344.888 112.873 344.399 112.917C343.91 112.961 343.434 113.101 342.999 113.329C342.564 113.557 342.178 113.868 341.864 114.246C341.549 114.623 341.312 115.058 341.165 115.527C341.019 115.996 340.966 116.489 341.01 116.978C341.054 117.467 341.194 117.943 341.422 118.378C341.65 118.813 341.962 119.199 342.339 119.513C342.716 119.828 343.151 120.065 343.62 120.212L350.76 122.442L352.99 115.302C353.284 114.355 353.19 113.33 352.729 112.453C352.268 111.575 351.477 110.917 350.53 110.622Z" fill="#F5F5F5"/>
<path d="M73.3898 19.3617C72.4416 19.0674 71.4154 19.1611 70.5363 19.6222C69.6571 20.0834 68.9967 20.8743 68.6998 21.8217C68.2316 21.6759 67.7393 21.6238 67.251 21.6683C66.7627 21.7127 66.2879 21.853 65.8538 22.0809C65.4197 22.3089 65.0347 22.6201 64.7209 22.9969C64.4071 23.3736 64.1705 23.8085 64.0248 24.2767C63.879 24.7448 63.8269 25.2371 63.8714 25.7254C63.9158 26.2137 64.0561 26.6885 64.284 27.1226C64.512 27.5567 64.8232 27.9417 65.2 28.2555C65.5767 28.5693 66.0116 28.8059 66.4798 28.9517L73.6098 31.1817L75.8398 24.0417C75.9869 23.5735 76.0402 23.081 75.9967 22.5922C75.9531 22.1034 75.8136 21.628 75.586 21.1932C75.3584 20.7585 75.0472 20.3729 74.6704 20.0586C74.2935 19.7443 73.8583 19.5075 73.3898 19.3617Z" fill="#F5F5F5"/>
<path d="M184.91 186.282C184.904 180.326 182.683 174.585 178.68 170.176C174.677 165.766 169.177 163.002 163.25 162.422C160.291 155.769 155.629 150.016 149.735 145.741C143.842 141.466 136.925 138.821 129.683 138.074C122.441 137.326 115.129 138.502 108.487 141.483C101.844 144.464 96.1056 149.144 91.8499 155.052C88.3221 152.48 84.0841 151.065 79.719 151.001C75.3539 150.937 71.0762 152.227 67.4745 154.694C63.8728 157.161 61.124 160.683 59.6064 164.777C58.0888 168.87 57.8769 173.333 58.9999 177.552C55.6633 180.361 52.9382 183.825 50.9929 187.73C49.0476 191.634 47.9235 195.895 47.6898 200.251C47.4562 204.607 48.1181 208.964 49.6347 213.054C51.1512 217.144 53.4901 220.88 56.5071 224.03C59.524 227.181 63.1548 229.679 67.1752 231.371C71.1956 233.063 75.5203 233.913 79.8821 233.868C84.2439 233.824 88.5502 232.885 92.535 231.111C96.5198 229.336 100.098 226.763 103.05 223.552C106.978 228.656 112.28 232.532 118.335 234.726C124.39 236.921 130.945 237.341 137.231 235.938C143.516 234.535 149.271 231.367 153.818 226.806C158.365 222.245 161.516 216.481 162.9 210.192C168.899 209.693 174.491 206.957 178.568 202.529C182.644 198.1 184.908 192.301 184.91 186.282Z" fill="#EBEBEB"/>
<path d="M346.8 73.7817C346.803 69.7451 348.308 65.854 351.021 62.8653C353.734 59.8766 357.462 58.004 361.48 57.6117C363.474 53.0932 366.627 49.1825 370.621 46.2764C374.614 43.3702 379.305 41.5721 384.218 41.0644C389.131 40.5566 394.09 41.3574 398.594 43.3854C403.097 45.4134 406.984 48.5965 409.86 52.6117C412.252 50.8816 415.12 49.9331 418.072 49.8961C421.024 49.859 423.915 50.7352 426.35 52.4048C428.785 54.0743 430.644 56.4555 431.674 59.2225C432.703 61.9894 432.852 65.0069 432.1 67.8617C434.37 69.7629 436.225 72.11 437.551 74.7576C438.876 77.4052 439.644 80.2969 439.806 83.2534C439.968 86.2098 439.521 89.1681 438.493 91.9447C437.464 94.7214 435.877 97.2572 433.828 99.395C431.78 101.533 429.314 103.227 426.583 104.373C423.853 105.518 420.917 106.091 417.956 106.055C414.995 106.019 412.073 105.375 409.372 104.164C406.67 102.952 404.246 101.199 402.25 99.0117C399.593 102.473 396.004 105.104 391.904 106.596C387.803 108.087 383.362 108.378 379.103 107.433C374.843 106.487 370.942 104.346 367.857 101.26C364.773 98.1741 362.633 94.2718 361.69 90.0117C357.623 89.6702 353.834 87.8112 351.076 84.8043C348.317 81.7973 346.791 77.8625 346.8 73.7817Z" fill="#F0F0F0"/>
<path d="M250 383.922C357.082 383.922 443.89 378.854 443.89 372.602C443.89 366.35 357.082 361.282 250 361.282C142.917 361.282 56.1099 366.35 56.1099 372.602C56.1099 378.854 142.917 383.922 250 383.922Z" fill="#F5F5F5"/>
<path d="M136.11 347.112H81.78C80.5077 347.099 79.292 346.584 78.3969 345.68C77.5019 344.775 76.9999 343.554 77 342.282V319.992C77.0024 318.853 77.4061 317.752 78.14 316.882L139.54 243.882C139.994 243.343 140.561 242.91 141.2 242.613C141.839 242.316 142.535 242.162 143.24 242.162H166.77C168.051 242.162 169.28 242.671 170.185 243.577C171.091 244.482 171.6 245.711 171.6 246.992V314.992C171.6 316.273 172.109 317.501 173.015 318.407C173.92 319.313 175.149 319.822 176.43 319.822H182.64C183.921 319.822 185.15 320.331 186.055 321.237C186.961 322.142 187.47 323.371 187.47 324.652V342.242C187.47 343.523 186.961 344.751 186.055 345.657C185.15 346.563 183.921 347.072 182.64 347.072H176.43C175.149 347.072 173.92 347.581 173.015 348.487C172.109 349.392 171.6 350.621 171.6 351.902V365.902C171.6 367.183 171.091 368.411 170.185 369.317C169.28 370.223 168.051 370.732 166.77 370.732H145.77C144.489 370.732 143.26 370.223 142.355 369.317C141.449 368.411 140.94 367.183 140.94 365.902V351.902C140.929 350.628 140.416 349.41 139.511 348.512C138.607 347.615 137.384 347.112 136.11 347.112ZM140.94 316.482V289.282C140.951 288.579 140.744 287.891 140.346 287.312C139.948 286.733 139.379 286.293 138.719 286.052C138.059 285.811 137.341 285.781 136.663 285.968C135.986 286.154 135.384 286.547 134.94 287.092L111.83 314.292C111.412 314.783 111.144 315.384 111.056 316.023C110.968 316.662 111.065 317.312 111.335 317.898C111.606 318.484 112.038 318.98 112.581 319.328C113.124 319.676 113.755 319.861 114.4 319.862H137.52C137.967 319.867 138.411 319.784 138.826 319.616C139.24 319.449 139.618 319.201 139.936 318.886C140.254 318.572 140.507 318.197 140.679 317.785C140.851 317.372 140.94 316.929 140.94 316.482Z" fill="#263238"/>
<path d="M198.37 307.022C198.37 283.022 202.703 266.205 211.37 256.572C220.037 246.938 233.213 242.138 250.9 242.172C259.407 242.172 266.407 243.222 271.9 245.322C276.865 247.113 281.411 249.9 285.26 253.512C288.505 256.605 291.254 260.181 293.41 264.112C295.546 268.227 297.155 272.595 298.2 277.112C300.587 286.759 301.775 296.664 301.74 306.602C301.74 329.542 297.857 346.328 290.09 356.962C282.323 367.595 268.96 372.928 250 372.962C239.333 372.962 230.737 371.265 224.21 367.872C217.56 364.424 211.961 359.25 208 352.892C204.947 348.225 202.573 341.858 200.88 333.792C199.127 324.978 198.286 316.008 198.37 307.022ZM233.21 307.102C233.21 323.202 234.633 334.202 237.48 340.102C240.327 346.002 244.45 348.952 249.85 348.952C251.567 348.968 253.27 348.645 254.861 347.999C256.452 347.354 257.9 346.4 259.12 345.192C261.74 342.692 263.667 338.738 264.9 333.332C266.133 327.925 266.75 319.505 266.75 308.072C266.75 291.292 265.327 280.012 262.48 274.232C259.633 268.452 255.367 265.562 249.68 265.562C243.867 265.562 239.67 268.508 237.09 274.402C234.51 280.295 233.217 291.195 233.21 307.102Z" fill="#263238"/>
<path d="M371.69 347.112H317.37C316.089 347.112 314.861 346.603 313.955 345.697C313.049 344.791 312.54 343.563 312.54 342.282V319.992C312.54 318.855 312.94 317.754 313.67 316.882L375.08 243.882C375.532 243.343 376.097 242.91 376.735 242.613C377.372 242.316 378.067 242.162 378.77 242.162H402.31C403.591 242.162 404.82 242.671 405.725 243.577C406.631 244.482 407.14 245.711 407.14 246.992V314.992C407.135 315.632 407.257 316.267 407.499 316.859C407.741 317.452 408.099 317.991 408.551 318.444C409.003 318.897 409.541 319.256 410.133 319.499C410.725 319.743 411.36 319.866 412 319.862H418.2C419.481 319.862 420.71 320.371 421.615 321.277C422.521 322.182 423.03 323.411 423.03 324.692V342.282C423.03 343.563 422.521 344.791 421.615 345.697C420.71 346.603 419.481 347.112 418.2 347.112H412C410.719 347.112 409.491 347.621 408.585 348.527C407.679 349.432 407.17 350.661 407.17 351.942V365.942C407.17 367.223 406.661 368.451 405.755 369.357C404.85 370.263 403.621 370.772 402.34 370.772H381.34C380.059 370.772 378.831 370.263 377.925 369.357C377.019 368.451 376.51 367.223 376.51 365.942V351.942C376.51 350.663 376.003 349.436 375.099 348.53C374.195 347.625 372.969 347.115 371.69 347.112ZM376.52 316.482V289.282C376.519 288.591 376.306 287.917 375.911 287.351C375.515 286.785 374.956 286.354 374.308 286.115C373.659 285.877 372.954 285.842 372.286 286.017C371.617 286.192 371.019 286.567 370.57 287.092L347.45 314.292C347.033 314.782 346.765 315.381 346.677 316.018C346.588 316.655 346.683 317.304 346.951 317.889C347.219 318.474 347.648 318.97 348.188 319.32C348.728 319.669 349.357 319.857 350 319.862H373.11C373.556 319.866 373.999 319.781 374.413 319.613C374.826 319.445 375.202 319.197 375.519 318.883C375.837 318.568 376.088 318.194 376.26 317.782C376.432 317.37 376.52 316.928 376.52 316.482Z" fill="#263238"/>
<path d="M157.82 255.242C156.89 257.242 155.91 259.042 154.96 260.902L152.16 266.452L149.36 272.022C148.42 273.892 147.45 275.762 146.3 277.602C146.472 275.459 146.884 273.342 147.53 271.292C148.143 269.227 148.936 267.219 149.9 265.292C150.859 263.363 151.998 261.528 153.3 259.812C154.587 258.086 156.108 256.548 157.82 255.242Z" fill="white"/>
<path d="M161.38 259.942C160.51 261.672 159.61 263.302 158.73 264.942L156.14 269.842L153.55 274.762C152.68 276.412 151.79 278.072 150.73 279.692C150.917 277.783 151.316 275.902 151.92 274.082C152.504 272.259 153.244 270.489 154.13 268.792C155.014 267.087 156.062 265.473 157.26 263.972C158.436 262.441 159.823 261.084 161.38 259.942Z" fill="white"/>
<path d="M151.66 253.272C150.89 255.072 150.07 256.762 149.27 258.462L146.92 263.552L144.57 268.652C143.77 270.362 142.96 272.082 141.98 273.772C142.072 271.836 142.384 269.917 142.91 268.052C143.411 266.179 144.08 264.355 144.91 262.602C145.716 260.849 146.683 259.175 147.8 257.602C148.883 255.989 150.182 254.532 151.66 253.272Z" fill="white"/>
<path d="M381 329.272C382.711 330.59 384.232 332.138 385.52 333.872C386.849 335.589 388.014 337.427 389 339.362C389.958 341.29 390.747 343.298 391.36 345.362C392.004 347.413 392.42 349.529 392.6 351.672C391.44 349.832 390.48 347.962 389.53 346.092L386.73 340.522L383.93 334.972C382.94 333.072 382 331.232 381 329.272Z" fill="white"/>
<path d="M377.48 333.972C379.027 335.11 380.41 336.456 381.59 337.972C382.789 339.475 383.837 341.093 384.72 342.802C385.614 344.495 386.354 346.266 386.93 348.092C387.542 349.91 387.944 351.792 388.13 353.702C387.07 352.082 386.18 350.422 385.3 348.772L382.71 343.852L380.12 338.952C379.24 337.362 378.34 335.702 377.48 333.972Z" fill="white"/>
<path d="M387.19 327.302C388.687 328.549 390.006 329.996 391.11 331.602C392.227 333.173 393.191 334.847 393.99 336.602C394.815 338.356 395.484 340.18 395.99 342.052C396.511 343.918 396.823 345.836 396.92 347.772C395.92 346.072 395.12 344.362 394.33 342.652L391.98 337.542L389.63 332.462C388.79 330.792 388 329.102 387.19 327.302Z" fill="white"/>
<path d="M299.12 357.982H312.4V361.362H304.09V363.912H311.8V367.182H304.09V370.362H312.64V373.992H299.12V357.982Z" fill="#407BFF"/>
<path d="M312.64 375.952H299.12C298.608 375.952 298.117 375.748 297.755 375.387C297.393 375.025 297.19 374.534 297.19 374.022V358.022C297.189 357.768 297.238 357.516 297.334 357.282C297.431 357.047 297.573 356.834 297.752 356.654C297.932 356.475 298.145 356.333 298.38 356.236C298.615 356.139 298.866 356.09 299.12 356.092H312.4C312.654 356.09 312.905 356.139 313.14 356.236C313.375 356.333 313.588 356.475 313.768 356.654C313.947 356.834 314.089 357.047 314.186 357.282C314.282 357.516 314.331 357.768 314.33 358.022V361.362C313.928 361.633 313.642 362.047 313.531 362.519C313.42 362.992 313.491 363.489 313.73 363.912V367.182C313.507 367.422 313.349 367.714 313.27 368.032C313.191 368.349 313.193 368.682 313.277 368.998C313.361 369.315 313.523 369.605 313.749 369.841C313.975 370.078 314.258 370.254 314.57 370.352V373.982C314.575 374.239 314.529 374.494 314.435 374.733C314.34 374.971 314.199 375.189 314.019 375.372C313.839 375.556 313.625 375.702 313.388 375.801C313.151 375.901 312.897 375.952 312.64 375.952ZM301.05 372.092H303.18C302.874 371.926 302.62 371.68 302.444 371.381C302.267 371.081 302.176 370.739 302.18 370.392V367.222C302.455 367.046 302.681 366.805 302.837 366.519C302.994 366.233 303.076 365.913 303.076 365.587C303.076 365.261 302.994 364.94 302.837 364.655C302.681 364.369 302.455 364.127 302.18 363.952V361.362C302.18 361.076 302.244 360.794 302.367 360.537C302.49 360.279 302.668 360.052 302.89 359.872H301.07L301.05 372.092Z" fill="#407BFF"/>
<path d="M315.38 374.022V358.022H323.64C324.823 357.98 326.005 358.111 327.15 358.412C327.964 358.655 328.67 359.171 329.15 359.872C329.505 360.381 329.752 360.958 329.875 361.566C329.998 362.175 329.994 362.802 329.863 363.409C329.733 364.017 329.479 364.59 329.117 365.095C328.755 365.599 328.293 366.024 327.76 366.342C327.218 366.646 326.63 366.862 326.02 366.982C326.476 367.116 326.91 367.315 327.31 367.572C327.606 367.819 327.871 368.101 328.1 368.412C328.362 368.724 328.596 369.059 328.8 369.412L331.2 374.062H325.6L322.95 369.162C322.737 368.692 322.431 368.27 322.05 367.922C321.695 367.675 321.272 367.545 320.84 367.552H320.4V374.062L315.38 374.022ZM320.38 364.482H322.47C322.912 364.444 323.35 364.37 323.78 364.262C324.105 364.2 324.394 364.018 324.59 363.752C324.819 363.436 324.926 363.048 324.893 362.658C324.86 362.269 324.689 361.905 324.41 361.632C323.854 361.299 323.205 361.155 322.56 361.222H320.38V364.482Z" fill="#407BFF"/>
<path d="M331.16 375.952H325.56C325.213 375.952 324.872 375.86 324.573 375.684C324.274 375.508 324.028 375.255 323.86 374.952L322.29 372.032V374.032C322.287 374.543 322.083 375.032 321.722 375.394C321.36 375.755 320.871 375.959 320.36 375.962H315.36C315.106 375.962 314.855 375.912 314.621 375.815C314.387 375.718 314.174 375.576 313.995 375.397C313.816 375.217 313.674 375.005 313.577 374.77C313.48 374.536 313.43 374.285 313.43 374.032V358.032C313.428 357.778 313.477 357.526 313.574 357.292C313.67 357.057 313.813 356.844 313.992 356.664C314.172 356.485 314.385 356.343 314.62 356.246C314.854 356.15 315.106 356.101 315.36 356.102H323.62C325.007 356.055 326.393 356.22 327.73 356.592C328.927 356.973 329.962 357.744 330.67 358.782C331.412 359.871 331.793 361.165 331.76 362.482C331.781 363.63 331.495 364.762 330.93 365.762C330.586 366.351 330.147 366.878 329.63 367.322C329.947 367.707 330.225 368.122 330.46 368.562L332.85 373.182C333.003 373.476 333.077 373.804 333.066 374.135C333.055 374.467 332.959 374.789 332.787 375.073C332.616 375.356 332.374 375.59 332.085 375.753C331.797 375.916 331.471 376.001 331.14 376.002L331.16 375.952ZM326.71 372.092H328L327 370.262C326.867 370.017 326.706 369.789 326.52 369.582C326.38 369.403 326.23 369.233 326.07 369.072C325.834 368.946 325.586 368.845 325.33 368.772C325.083 368.687 324.855 368.554 324.66 368.382L326.71 372.092ZM317.31 372.092H318.43V367.512C318.43 367.219 318.496 366.93 318.624 366.667C318.753 366.403 318.939 366.172 319.17 365.992C318.939 365.813 318.753 365.584 318.625 365.323C318.496 365.061 318.43 364.773 318.43 364.482V361.222C318.43 360.737 318.612 360.269 318.94 359.912H317.31V372.092ZM323.17 366.342C323.532 366.622 323.847 366.96 324.1 367.342C324.063 367.174 324.046 367.003 324.05 366.832C324.068 366.587 324.129 366.346 324.23 366.122H324.14C323.76 366.242 323.44 366.302 323.17 366.362V366.342ZM325.4 359.992L325.63 360.162C326.015 360.487 326.321 360.895 326.526 361.356C326.73 361.817 326.827 362.318 326.81 362.822C326.815 363.577 326.569 364.312 326.11 364.912C326.324 364.854 326.529 364.766 326.72 364.652C327.092 364.436 327.405 364.13 327.63 363.762C327.845 363.353 327.949 362.894 327.93 362.432C327.957 361.905 327.817 361.384 327.53 360.942C327.294 360.585 326.94 360.323 326.53 360.202C326.16 360.099 325.782 360.028 325.4 359.992Z" fill="#407BFF"/>
<path d="M332.81 374.022V358.022H341.07C342.256 357.979 343.442 358.111 344.59 358.412C345.405 358.654 346.111 359.17 346.59 359.872C346.946 360.381 347.192 360.958 347.315 361.567C347.438 362.175 347.434 362.803 347.304 363.41C347.173 364.017 346.919 364.59 346.557 365.095C346.195 365.599 345.733 366.024 345.2 366.342C344.658 366.647 344.07 366.863 343.46 366.982C343.916 367.116 344.35 367.315 344.75 367.572C345.05 367.818 345.319 368.1 345.55 368.412C345.806 368.727 346.037 369.061 346.24 369.412L348.64 374.062H343L340.35 369.162C340.141 368.69 339.834 368.267 339.45 367.922C339.097 367.671 338.673 367.541 338.24 367.552H337.8V374.062L332.81 374.022ZM337.81 364.482H339.9C340.342 364.445 340.78 364.371 341.21 364.262C341.535 364.2 341.824 364.018 342.02 363.752C342.228 363.487 342.338 363.159 342.33 362.822C342.343 362.6 342.306 362.377 342.221 362.171C342.136 361.965 342.006 361.781 341.84 361.632C341.284 361.299 340.635 361.155 339.99 361.222H337.81V364.482Z" fill="#407BFF"/>
<path d="M348.59 375.952H343C342.653 375.952 342.313 375.86 342.014 375.684C341.715 375.508 341.468 375.255 341.3 374.952L339.73 372.032V374.032C339.73 374.544 339.527 375.035 339.165 375.397C338.803 375.758 338.312 375.962 337.8 375.962H332.8C332.289 375.959 331.8 375.755 331.438 375.394C331.077 375.032 330.873 374.543 330.87 374.032V358.032C330.87 357.52 331.073 357.029 331.435 356.667C331.797 356.305 332.288 356.102 332.8 356.102H341.06C342.447 356.054 343.833 356.219 345.17 356.592C346.371 356.97 347.41 357.741 348.12 358.782C348.791 359.817 349.168 361.015 349.212 362.247C349.256 363.48 348.965 364.701 348.37 365.782C348.027 366.368 347.592 366.895 347.08 367.342C347.394 367.729 347.671 368.144 347.91 368.582L350.29 373.202C350.443 373.496 350.517 373.824 350.507 374.155C350.496 374.486 350.4 374.809 350.228 375.093C350.056 375.376 349.814 375.61 349.526 375.773C349.237 375.936 348.911 376.021 348.58 376.022L348.59 375.952ZM344.14 372.092H345.43L344.48 370.262C344.336 370.022 344.172 369.794 343.99 369.582C343.858 369.397 343.707 369.226 343.54 369.072C343.305 368.946 343.057 368.845 342.8 368.772C342.557 368.686 342.333 368.553 342.14 368.382L344.14 372.092ZM334.74 372.092H335.86V367.512C335.86 367.219 335.927 366.93 336.055 366.666C336.183 366.403 336.37 366.172 336.6 365.992C336.37 365.813 336.183 365.584 336.055 365.323C335.927 365.061 335.86 364.773 335.86 364.482V361.222C335.86 360.735 336.046 360.266 336.38 359.912H334.74V372.092ZM340.6 366.362C340.963 366.642 341.277 366.98 341.53 367.362C341.505 367.193 341.505 367.021 341.53 366.852C341.54 366.606 341.598 366.365 341.7 366.142H341.62C341.19 366.242 340.87 366.302 340.6 366.362ZM342.84 360.012L343.06 360.182C343.445 360.507 343.752 360.915 343.956 361.376C344.16 361.837 344.258 362.338 344.24 362.842C344.245 363.597 343.999 364.332 343.54 364.932C343.757 364.873 343.966 364.786 344.16 364.672C344.53 364.455 344.839 364.149 345.06 363.782C345.276 363.373 345.379 362.914 345.36 362.452C345.387 361.925 345.247 361.404 344.96 360.962C344.724 360.605 344.37 360.343 343.96 360.222C343.594 360.112 343.219 360.035 342.84 359.992V360.012Z" fill="#407BFF"/>
<path d="M349.17 366.012C349.06 364.895 349.199 363.768 349.576 362.711C349.953 361.654 350.56 360.694 351.353 359.899C352.145 359.105 353.104 358.496 354.16 358.116C355.216 357.736 356.343 357.595 357.46 357.702C358.58 357.63 359.703 357.784 360.762 358.153C361.822 358.522 362.797 359.1 363.63 359.852C364.375 360.655 364.951 361.6 365.322 362.631C365.693 363.662 365.852 364.758 365.79 365.852C365.852 367.442 365.529 369.023 364.85 370.462C364.232 371.644 363.279 372.618 362.11 373.262C360.734 373.973 359.198 374.318 357.65 374.262C356.108 374.313 354.574 374.019 353.16 373.402C351.945 372.8 350.941 371.845 350.28 370.662C349.5 369.239 349.117 367.633 349.17 366.012ZM354.17 366.012C354.061 367.244 354.378 368.476 355.07 369.502C355.389 369.834 355.772 370.098 356.195 370.278C356.619 370.458 357.075 370.551 357.535 370.551C357.995 370.551 358.451 370.458 358.874 370.278C359.298 370.098 359.681 369.834 360 369.502C360.698 368.39 361.007 367.078 360.88 365.772C360.974 364.594 360.648 363.422 359.96 362.462C359.646 362.123 359.26 361.857 358.832 361.685C358.403 361.512 357.941 361.436 357.48 361.462C357.026 361.445 356.574 361.532 356.158 361.716C355.742 361.899 355.373 362.175 355.08 362.522C354.365 363.546 354.029 364.787 354.13 366.032L354.17 366.012Z" fill="#407BFF"/>
<path d="M357.65 376.222C355.816 376.274 353.994 375.911 352.32 375.162C350.762 374.4 349.472 373.183 348.62 371.672C347.654 369.946 347.177 367.989 347.24 366.012C347.312 363.988 347.961 362.026 349.11 360.358C350.258 358.69 351.859 357.384 353.724 356.595C355.59 355.805 357.641 355.564 359.639 355.9C361.636 356.236 363.496 357.135 365 358.492C365.933 359.474 366.658 360.635 367.129 361.906C367.6 363.176 367.808 364.529 367.74 365.882C367.802 367.786 367.4 369.677 366.57 371.392C365.783 372.905 364.565 374.151 363.07 374.972C361.401 375.849 359.534 376.28 357.65 376.222ZM359 359.732C359.924 359.985 360.753 360.507 361.38 361.232C362.394 362.534 362.889 364.166 362.77 365.812C362.77 368.102 362.34 369.722 361.45 370.812C360.879 371.489 360.131 371.994 359.29 372.272C359.952 372.175 360.592 371.962 361.18 371.642C362.03 371.189 362.727 370.493 363.18 369.642C363.716 368.481 363.966 367.209 363.91 365.932C363.972 365.087 363.863 364.239 363.588 363.438C363.313 362.637 362.878 361.9 362.31 361.272C361.408 360.405 360.244 359.863 359 359.732ZM355.91 359.732C354.712 359.877 353.595 360.411 352.73 361.252C352.153 361.893 351.712 362.645 351.433 363.461C351.155 364.277 351.045 365.142 351.11 366.002C351.053 367.288 351.344 368.566 351.95 369.702C352.415 370.564 353.134 371.263 354.01 371.702C354.521 371.943 355.063 372.115 355.62 372.212C354.824 371.922 354.117 371.429 353.57 370.782C352.678 369.358 352.205 367.712 352.205 366.032C352.205 364.352 352.678 362.706 353.57 361.282C354.178 360.551 354.989 360.015 355.9 359.742L355.91 359.732ZM357.45 363.382C357.274 363.364 357.097 363.39 356.933 363.456C356.769 363.522 356.624 363.627 356.51 363.762C356.127 364.45 355.973 365.241 356.07 366.022C355.973 366.796 356.127 367.582 356.51 368.262C356.633 368.402 356.788 368.51 356.962 368.577C357.137 368.643 357.325 368.665 357.51 368.642C358.21 368.642 358.41 368.412 358.51 368.292C358.61 368.172 358.93 367.732 358.93 365.802C359.009 365.105 358.854 364.401 358.49 363.802C358.364 363.649 358.202 363.529 358.019 363.452C357.836 363.375 357.637 363.344 357.44 363.362L357.45 363.382Z" fill="#407BFF"/>
<path d="M368.53 374.022V358.022H376.79C377.973 357.98 379.155 358.111 380.3 358.412C381.114 358.655 381.82 359.171 382.3 359.872C382.655 360.381 382.902 360.958 383.025 361.566C383.148 362.175 383.144 362.802 383.013 363.409C382.883 364.017 382.629 364.59 382.267 365.095C381.905 365.599 381.443 366.024 380.91 366.342C380.367 366.646 379.78 366.862 379.17 366.982C379.626 367.116 380.06 367.315 380.46 367.572C380.756 367.819 381.021 368.101 381.25 368.412C381.512 368.724 381.746 369.059 381.95 369.412L384.35 374.062H378.75L376.1 369.162C375.887 368.692 375.581 368.27 375.2 367.922C374.845 367.675 374.422 367.545 373.99 367.552H373.55V374.062L368.53 374.022ZM373.53 364.482H375.62C376.062 364.444 376.5 364.37 376.93 364.262C377.254 364.2 377.544 364.018 377.74 363.752C377.969 363.436 378.076 363.048 378.043 362.658C378.01 362.269 377.839 361.905 377.56 361.632C377.004 361.299 376.355 361.155 375.71 361.222H373.53V364.482Z" fill="#407BFF"/>
<path d="M384.31 375.952H378.71C378.363 375.952 378.023 375.86 377.724 375.684C377.425 375.508 377.178 375.255 377.01 374.952L375.44 372.032V374.032C375.437 374.543 375.233 375.032 374.872 375.394C374.511 375.755 374.021 375.959 373.51 375.962H368.51C367.998 375.962 367.507 375.759 367.145 375.397C366.783 375.035 366.58 374.544 366.58 374.032V358.032C366.579 357.778 366.628 357.526 366.724 357.292C366.821 357.057 366.963 356.844 367.142 356.664C367.322 356.485 367.535 356.343 367.77 356.246C368.005 356.15 368.256 356.101 368.51 356.102H376.77C378.157 356.055 379.543 356.22 380.88 356.592C382.077 356.973 383.112 357.744 383.82 358.782C384.566 359.869 384.95 361.164 384.92 362.482C384.94 363.631 384.649 364.764 384.08 365.762C383.737 366.351 383.297 366.878 382.78 367.322C383.097 367.707 383.375 368.122 383.61 368.562L386 373.182C386.153 373.476 386.227 373.804 386.217 374.135C386.206 374.467 386.11 374.789 385.938 375.073C385.766 375.356 385.524 375.59 385.236 375.753C384.947 375.916 384.621 376.001 384.29 376.002L384.31 375.952ZM379.86 372.092H381.14L380.2 370.262C380.056 370.022 379.892 369.794 379.71 369.582C379.571 369.403 379.42 369.233 379.26 369.072C379.025 368.946 378.777 368.845 378.52 368.772C378.273 368.687 378.046 368.554 377.85 368.382L379.86 372.092ZM370.46 372.092H371.58V367.512C371.58 367.219 371.647 366.93 371.775 366.667C371.903 366.403 372.09 366.172 372.32 365.992C372.09 365.813 371.903 365.584 371.775 365.323C371.647 365.061 371.58 364.773 371.58 364.482V361.222C371.576 360.736 371.759 360.267 372.09 359.912H370.46V372.092ZM376.32 366.342C376.683 366.622 376.997 366.96 377.25 367.342C377.225 367.173 377.225 367.001 377.25 366.832C377.26 366.586 377.318 366.345 377.42 366.122H377.33C376.91 366.242 376.59 366.302 376.32 366.362V366.342ZM378.56 359.992L378.78 360.162C379.165 360.487 379.472 360.895 379.676 361.356C379.88 361.817 379.978 362.318 379.96 362.822C379.965 363.577 379.719 364.312 379.26 364.912C379.891 364.734 380.431 364.323 380.77 363.762C380.988 363.32 381.093 362.832 381.077 362.341C381.062 361.849 380.925 361.368 380.68 360.942C380.444 360.585 380.09 360.323 379.68 360.202C379.314 360.099 378.939 360.029 378.56 359.992Z" fill="#407BFF"/>
<path d="M299.12 357.982H312.4V361.362H304.09V363.912H311.8V367.182H304.09V370.362H312.64V373.992H299.12V357.982Z" fill="white"/>
<path d="M315.38 374.022V358.022H323.64C324.823 357.98 326.005 358.111 327.15 358.412C327.964 358.655 328.67 359.171 329.15 359.872C329.505 360.381 329.752 360.958 329.875 361.566C329.998 362.175 329.994 362.802 329.863 363.409C329.733 364.017 329.479 364.59 329.117 365.095C328.755 365.599 328.293 366.024 327.76 366.342C327.218 366.646 326.63 366.862 326.02 366.982C326.476 367.116 326.91 367.315 327.31 367.572C327.606 367.819 327.871 368.101 328.1 368.412C328.362 368.724 328.596 369.059 328.8 369.412L331.2 374.062H325.6L322.95 369.162C322.737 368.692 322.431 368.27 322.05 367.922C321.695 367.675 321.272 367.545 320.84 367.552H320.4V374.062L315.38 374.022ZM320.38 364.482H322.47C322.912 364.444 323.35 364.37 323.78 364.262C324.105 364.2 324.394 364.018 324.59 363.752C324.819 363.436 324.926 363.048 324.893 362.658C324.86 362.269 324.689 361.905 324.41 361.632C323.854 361.299 323.205 361.155 322.56 361.222H320.38V364.482Z" fill="white"/>
<path d="M332.81 374.022V358.022H341.07C342.256 357.979 343.442 358.111 344.59 358.412C345.405 358.654 346.111 359.17 346.59 359.872C346.946 360.381 347.192 360.958 347.315 361.567C347.438 362.175 347.434 362.803 347.304 363.41C347.173 364.017 346.919 364.59 346.557 365.095C346.195 365.599 345.733 366.024 345.2 366.342C344.658 366.647 344.07 366.863 343.46 366.982C343.916 367.116 344.35 367.315 344.75 367.572C345.05 367.818 345.319 368.1 345.55 368.412C345.806 368.727 346.037 369.061 346.24 369.412L348.64 374.062H343L340.35 369.162C340.141 368.69 339.834 368.267 339.45 367.922C339.097 367.671 338.673 367.541 338.24 367.552H337.8V374.062L332.81 374.022ZM337.81 364.482H339.9C340.342 364.445 340.78 364.371 341.21 364.262C341.535 364.2 341.824 364.018 342.02 363.752C342.228 363.487 342.338 363.159 342.33 362.822C342.343 362.6 342.306 362.377 342.221 362.171C342.136 361.965 342.006 361.781 341.84 361.632C341.284 361.299 340.635 361.155 339.99 361.222H337.81V364.482Z" fill="white"/>
<path d="M349.17 366.012C349.06 364.895 349.199 363.768 349.576 362.711C349.953 361.654 350.56 360.694 351.353 359.899C352.145 359.105 353.104 358.496 354.16 358.116C355.216 357.736 356.343 357.595 357.46 357.702C358.58 357.63 359.703 357.784 360.762 358.153C361.822 358.522 362.797 359.1 363.63 359.852C364.375 360.655 364.951 361.6 365.322 362.631C365.693 363.662 365.852 364.758 365.79 365.852C365.852 367.442 365.529 369.023 364.85 370.462C364.232 371.644 363.279 372.618 362.11 373.262C360.734 373.973 359.198 374.318 357.65 374.262C356.108 374.313 354.574 374.019 353.16 373.402C351.945 372.8 350.941 371.845 350.28 370.662C349.5 369.239 349.117 367.633 349.17 366.012ZM354.17 366.012C354.061 367.244 354.378 368.476 355.07 369.502C355.389 369.834 355.772 370.098 356.195 370.278C356.619 370.458 357.075 370.551 357.535 370.551C357.995 370.551 358.451 370.458 358.874 370.278C359.298 370.098 359.681 369.834 360 369.502C360.698 368.39 361.007 367.078 360.88 365.772C360.974 364.594 360.648 363.422 359.96 362.462C359.646 362.123 359.26 361.857 358.832 361.685C358.403 361.512 357.941 361.436 357.48 361.462C357.026 361.445 356.574 361.532 356.158 361.716C355.742 361.899 355.373 362.175 355.08 362.522C354.365 363.546 354.029 364.787 354.13 366.032L354.17 366.012Z" fill="white"/>
<path d="M368.53 374.022V358.022H376.79C377.973 357.98 379.155 358.111 380.3 358.412C381.114 358.655 381.82 359.171 382.3 359.872C382.655 360.381 382.902 360.958 383.025 361.566C383.148 362.175 383.144 362.802 383.013 363.409C382.883 364.017 382.629 364.59 382.267 365.095C381.905 365.599 381.443 366.024 380.91 366.342C380.367 366.646 379.78 366.862 379.17 366.982C379.626 367.116 380.06 367.315 380.46 367.572C380.756 367.819 381.021 368.101 381.25 368.412C381.512 368.724 381.746 369.059 381.95 369.412L384.35 374.062H378.75L376.1 369.162C375.887 368.692 375.581 368.27 375.2 367.922C374.845 367.675 374.422 367.545 373.99 367.552H373.55V374.062L368.53 374.022ZM373.53 364.482H375.62C376.062 364.444 376.5 364.37 376.93 364.262C377.254 364.2 377.544 364.018 377.74 363.752C377.969 363.436 378.076 363.048 378.043 362.658C378.01 362.269 377.839 361.905 377.56 361.632C377.004 361.299 376.355 361.155 375.71 361.222H373.53V364.482Z" fill="white"/>
<path d="M426.5 112.642C422.298 111.307 417.908 110.662 413.5 110.732C409.22 110.757 404.982 111.574 401 113.142C399.327 113.799 397.755 114.688 396.33 115.782C396.19 115.902 396.03 116.012 395.92 116.122C395.81 116.232 395.7 116.312 395.52 116.502C395.34 116.692 394.87 117.172 394.52 117.502C393.881 118.226 393.29 118.991 392.75 119.792C390.515 123.078 389.096 126.848 388.61 130.792C388.372 132.659 388.395 134.551 388.68 136.412C388.813 137.287 389.017 138.15 389.29 138.992C389.561 139.836 389.896 140.658 390.29 141.452C391.386 143.507 392.626 145.481 394 147.362C395.53 149.542 397.3 151.922 399 154.832C400.977 158.055 402.388 161.593 403.17 165.292C403.568 167.374 403.716 169.495 403.61 171.612C403.49 173.688 403.124 175.742 402.52 177.732C401.353 181.544 399.412 185.074 396.82 188.102C395.541 189.59 394.117 190.946 392.57 192.152C391.075 193.328 389.475 194.362 387.79 195.242C384.537 196.92 381.041 198.077 377.43 198.672C374.05 199.232 370.617 199.393 367.2 199.152C363.942 198.921 360.711 198.392 357.55 197.572C354.58 196.802 351.658 195.857 348.8 194.742C343.24 192.612 338.2 190.172 333.39 188.102C328.934 186.057 324.275 184.488 319.49 183.422C317.321 182.982 315.113 182.76 312.9 182.762C310.655 182.769 308.415 182.983 306.21 183.402C301.56 184.351 297.064 185.94 292.85 188.122C284.11 192.532 276.03 199.252 267.67 206.292C266.157 207.57 264.2 208.199 262.227 208.04C260.253 207.881 258.422 206.948 257.133 205.444C255.844 203.94 255.203 201.988 255.348 200.013C255.494 198.038 256.415 196.201 257.91 194.902C266.16 187.712 274.85 180.002 285.63 174.242C291.11 171.27 296.981 169.082 303.07 167.742C306.238 167.073 309.462 166.701 312.7 166.632C315.974 166.559 319.247 166.817 322.47 167.402C328.428 168.568 334.244 170.368 339.82 172.772C345.12 174.942 350.01 177.172 354.73 178.872C356.994 179.705 359.304 180.407 361.65 180.972C363.809 181.491 366.012 181.806 368.23 181.912C372.129 182.231 376.041 181.473 379.54 179.722C380.275 179.313 380.971 178.837 381.62 178.302C382.224 177.806 382.78 177.253 383.28 176.652C384.239 175.475 384.946 174.113 385.36 172.652C385.545 172.001 385.646 171.329 385.66 170.652C385.676 170.027 385.615 169.402 385.48 168.792C385.045 167.139 384.343 165.568 383.4 164.142C382.29 162.342 380.77 160.322 379.1 158.052C377.172 155.515 375.431 152.841 373.89 150.052C373.017 148.417 372.269 146.719 371.65 144.972C371.044 143.218 370.576 141.419 370.25 139.592C369.616 136.038 369.478 132.414 369.84 128.822C370.537 121.821 372.903 115.09 376.74 109.192C377.704 107.699 378.763 106.27 379.91 104.912C380.5 104.232 381.1 103.562 381.73 102.912C382.02 102.602 382.44 102.212 382.81 101.862C383.18 101.512 383.57 101.192 383.95 100.862C386.806 98.5235 389.986 96.6104 393.39 95.182C399.587 92.5879 406.213 91.1704 412.93 91.002C419.49 90.7931 426.042 91.6475 432.33 93.532C434.713 94.4119 436.672 96.1659 437.809 98.4377C438.945 100.71 439.175 103.329 438.451 105.764C437.727 108.199 436.103 110.267 433.909 111.548C431.715 112.829 429.116 113.228 426.64 112.662L426.5 112.642Z" fill="#263238"/>
<path d="M426.26 113.452C420.886 111.631 415.192 110.949 409.54 111.452C406.814 111.7 404.127 112.278 401.54 113.172C399.399 113.903 397.397 114.992 395.62 116.392L395.05 116.882C393.166 118.613 390.671 119.524 388.115 119.415C385.559 119.306 383.151 118.186 381.42 116.302C379.689 114.418 378.778 111.923 378.887 109.367C378.996 106.811 380.116 104.403 382 102.672C385.503 99.2456 389.635 96.5291 394.17 94.672C398.252 92.9706 402.527 91.7783 406.9 91.122C415.48 89.8617 424.23 90.4204 432.58 92.762C435.352 93.5205 437.708 95.349 439.132 97.8451C440.555 100.341 440.929 103.3 440.17 106.072C439.411 108.844 437.583 111.2 435.087 112.624C432.591 114.047 429.632 114.421 426.86 113.662L426.33 113.502L426.26 113.452Z" fill="#407BFF"/>
<path d="M239.8 237.212L243.51 242.992C239.78 244.942 235.88 244.652 231.9 244.652C230.21 236.832 239.8 237.212 239.8 237.212Z" fill="#263238"/>
<path d="M217.19 206.362C221.92 219.972 239.46 238.022 239.46 238.022C239.46 238.022 232.06 239.502 234.07 244.612H244.4L266.64 240.422C267.382 240.249 268.03 239.801 268.454 239.167C268.877 238.534 269.044 237.763 268.92 237.012L260.71 209.472L217.19 206.362Z" fill="#407BFF"/>
<path d="M303.46 214.152L305.46 222.262C309.38 220.712 312.69 219.652 314.39 216.012C312.42 210.952 303.46 214.152 303.46 214.152Z" fill="#263238"/>
<path d="M285.9 172.542C292.9 185.082 307.66 215.662 307.66 215.662C307.66 215.662 315.24 215.982 314.23 221.312L284.84 228.572C284.184 228.799 283.472 228.804 282.814 228.585C282.156 228.366 281.589 227.936 281.2 227.362L260.2 209.582C271.66 202.582 285 184.212 285.9 172.542Z" fill="#407BFF"/>
<path opacity="0.1" d="M272.28 198.852C268.838 203.019 264.793 206.649 260.28 209.622L266.28 214.512C272.75 208.722 274.59 202.522 272.28 198.852Z" fill="black"/>
<path d="M264.8 136.132C272.96 137.522 306.85 132.922 309.37 132.802C309.64 130.932 310.5 126.302 312.53 127.122C314.56 127.942 315.6 131.442 315.19 133.122C320 132.262 326.32 142.122 319.13 150.122C308.6 161.942 270.13 163.752 270.13 163.752C270.13 163.752 249.26 138.092 264.8 136.132Z" fill="#407BFF"/>
<path opacity="0.1" d="M267.34 151.862C265.714 151.682 264.068 151.863 262.52 152.392C264.753 156.376 267.301 160.175 270.14 163.752C270.14 163.752 277.9 163.382 287.4 161.922C282.17 158.182 273.88 152.912 267.34 151.862Z" fill="black"/>
<path d="M315.19 133.092C320.05 131.092 323.45 130.092 324.57 131.762C325.69 133.432 324.19 136.942 319.49 137.852C315.18 135.152 315.19 133.092 315.19 133.092Z" fill="#407BFF"/>
<path d="M318.35 137.252C323.47 137.082 326.9 137.382 327.35 139.252C327.8 141.122 325.22 143.842 320.64 143.052C317.63 139.132 318.35 137.252 318.35 137.252Z" fill="#407BFF"/>
<path d="M321.58 142.482C324.87 144.012 326.89 145.352 326.29 146.962C325.69 148.572 322.84 149.812 320.29 147.712C320.26 143.692 321.58 142.482 321.58 142.482Z" fill="#407BFF"/>
<path d="M202.15 161.702C198.39 169.072 174.43 193.472 172.82 195.432C171.16 194.522 166.94 192.432 166.39 194.562C165.84 196.692 168.01 199.612 169.57 200.262C166.01 203.602 170.1 214.552 180.87 213.612C196.64 212.232 221.09 182.502 221.09 182.502C221.09 182.502 213 150.412 202.15 161.702Z" fill="#407BFF"/>
<path opacity="0.1" d="M213.23 173.142C214.066 171.735 215.194 170.524 216.54 169.592C218.402 173.765 219.924 178.083 221.09 182.502C221.09 182.502 216.16 188.502 209.3 195.232C209.43 188.812 210.16 179.012 213.23 173.142Z" fill="black"/>
<path d="M169.57 200.262C165.04 202.942 162.23 205.092 162.9 206.982C163.57 208.872 167.28 209.782 170.82 206.562C171.23 201.492 169.57 200.262 169.57 200.262Z" fill="#407BFF"/>
<path d="M171 205.292C167.8 209.292 166 212.212 167.26 213.702C168.52 215.192 172.2 214.702 174.31 210.582C173 205.832 171 205.292 171 205.292Z" fill="#407BFF"/>
<path d="M173.28 211.002C172.53 214.552 172.4 217.002 174.06 217.462C175.72 217.922 178.4 216.402 178.22 213.122C175 210.672 173.28 211.002 173.28 211.002Z" fill="#407BFF"/>
<path opacity="0.1" d="M260.73 209.572V209.512L247.43 208.512C247.16 214.242 253.83 217.872 262.79 216.332L260.73 209.572Z" fill="black"/>
<path d="M263.19 140.732L235.75 152.482L208.32 164.232C208.32 164.232 211.24 199.692 220.24 211.842C229.24 223.992 246.62 220.252 261.97 213.672C277.32 207.092 291.97 197.102 289.43 182.202C286.89 167.302 263.19 140.732 263.19 140.732Z" fill="#407BFF"/>
<path opacity="0.2" d="M251.25 147.362L236.31 153.762L221.38 160.162C221.6 157.252 215.5 184.322 225.9 198.752C232.68 208.152 245.34 205.572 256.47 200.802C267.6 196.032 278.19 188.652 276.06 177.262C272.8 159.792 249 145.542 251.25 147.362Z" fill="white"/>
<path opacity="0.2" d="M246.5 151.582L236.5 155.842L226.55 160.112C226.62 158.012 223.17 177.482 230.55 188.202C235.38 195.202 243.89 193.642 251.31 190.462C258.73 187.282 265.73 182.192 264 173.872C261.41 161.122 244.92 150.192 246.5 151.582Z" fill="white"/>
<path opacity="0.2" d="M176.528 209.707C178.419 208.949 179.158 206.351 178.177 203.906C177.196 201.461 174.867 200.095 172.976 200.853C171.085 201.612 170.346 204.209 171.327 206.654C172.308 209.099 174.637 210.466 176.528 209.707Z" fill="white"/>
<path opacity="0.2" d="M319.48 142.202C319.67 144.832 318.18 147.082 316.15 147.202C314.12 147.322 312.31 145.342 312.15 142.722C311.99 140.102 313.45 137.842 315.48 137.722C317.51 137.602 319.29 139.582 319.48 142.202Z" fill="white"/>
<path d="M175.69 76.362C135.82 48.142 74.5598 65.452 69.7498 76.112C64.6398 87.462 120.12 118.032 133.75 147.572C153.65 110.602 175.69 76.362 175.69 76.362Z" fill="#263238"/>
<path opacity="0.5" d="M161 87.932C129.44 65.932 84.94 75.832 82.06 83.332C78.99 91.332 122.34 115.682 134.45 137.582C146.8 111.732 161 87.932 161 87.932Z" fill="#407BFF"/>
<path d="M164.93 82.592C155.99 83.192 148.42 86.192 141.75 93.232C144.756 92.2685 147.959 92.0982 151.05 92.7377C154.141 93.3773 157.014 94.8049 159.39 96.882L164.93 82.592Z" fill="#263238"/>
<path d="M223.4 55.9119C242.56 -4.54807 310.8 -4.78807 324.4 4.36193C334.73 11.3619 290.74 39.2919 302.53 79.6119C262.85 66.0319 223.4 55.9119 223.4 55.9119Z" fill="#263238"/>
<path opacity="0.5" d="M241.43 54.6019C257.43 19.6019 294.75 5.60194 312.18 8.73194C328.66 11.6719 279.42 50.1019 289.48 83.9319C265.7 67.9319 241.43 54.6019 241.43 54.6019Z" fill="#407BFF"/>
<path d="M240.34 49.2019C243.424 47.5316 246.808 46.4887 250.298 46.1334C253.787 45.7782 257.312 46.1175 260.67 47.1319C258.203 47.6849 255.921 48.867 254.046 50.5633C252.17 52.2595 250.766 54.4122 249.97 56.8119L240.34 49.2019Z" fill="#263238"/>
<path d="M241.17 46.3619C243.212 44.4525 245.612 42.9659 248.231 41.9877C250.85 41.0094 253.636 40.5588 256.43 40.6619C254.638 41.5874 253.117 42.9605 252.013 44.648C250.909 46.3354 250.26 48.2796 250.13 50.2919L241.17 46.3619Z" fill="#263238"/>
<path d="M314.33 82.7019C324.41 106.222 288.05 134.702 237.43 156.392C186.81 178.082 141.11 184.762 131 161.232C120.89 137.702 145.24 81.1219 195.86 59.4319C246.48 37.7419 304.25 59.1719 314.33 82.7019Z" fill="#407BFF"/>
<path opacity="0.1" d="M294.35 84.9419C303.69 106.752 275.21 131.752 234.35 149.252C193.49 166.752 155.76 170.122 146.42 148.302C137.08 126.482 159.66 87.7319 200.5 70.2419C241.34 52.7519 285 63.1219 294.35 84.9419Z" fill="black"/>
<path d="M212.17 116.732C211.29 114.672 213.98 112.312 217.83 110.652C221.68 108.992 225.26 108.652 226.14 110.742C227.02 112.832 225.67 118.282 221.81 119.942C217.95 121.602 213.05 118.792 212.17 116.732Z" fill="#263238"/>
<path opacity="0.3" d="M220.34 135.102C219.75 133.702 222.58 131.672 226.44 130.022C230.3 128.372 233.72 127.722 234.31 129.112C234.9 130.502 232.98 134.642 229.13 136.292C225.28 137.942 220.94 136.492 220.34 135.102Z" fill="black"/>
<path opacity="0.4" d="M148.91 118.132C154.42 102.352 167.01 90.6419 179.85 87.7119C201.5 82.7719 207.85 109.882 197.39 128.572C185.71 149.492 159.91 146.302 157.39 136.732C153.76 143.102 139 146.432 148.91 118.132Z" fill="white"/>
<path d="M197.4 100.362C197.4 100.362 195.93 119.572 185.79 126.362C175.65 133.152 160.67 124.832 160.67 124.832C160.67 124.832 162.14 105.632 172.28 98.832C182.42 92.032 197.4 100.362 197.4 100.362Z" fill="white"/>
<path d="M160.67 124.732C160.578 120.027 161.254 115.339 162.67 110.852C163.366 108.556 164.326 106.348 165.53 104.272C166.746 102.12 168.341 100.205 170.24 98.622C172.196 97.0263 174.508 95.9252 176.98 95.412C179.381 94.9019 181.855 94.8341 184.28 95.212C188.975 95.9018 193.454 97.6453 197.38 100.312C193.115 98.6752 188.635 97.6647 184.08 97.312C181.895 97.1657 179.701 97.3683 177.58 97.912C175.509 98.3907 173.582 99.3576 171.96 100.732C170.279 102.099 168.848 103.747 167.73 105.602L167.27 106.292L166.86 107.022C166.6 107.512 166.31 108.022 166.06 108.492C165.59 109.492 165.06 110.492 164.67 111.562C162.964 115.83 161.626 120.236 160.67 124.732Z" fill="#263238"/>
<path d="M224.45 88.7219C224.45 88.7219 239.37 100.912 251.24 98.2219C263.11 95.5319 267.46 78.9819 267.46 78.9819C267.46 78.9819 252.55 66.7919 240.67 69.4819C228.79 72.1719 224.45 88.7219 224.45 88.7219Z" fill="white"/>
<path d="M267.46 78.9818C263.544 76.5832 259.433 74.5192 255.17 72.8118C254.17 72.3918 253.04 72.0718 251.98 71.7118C251.45 71.5418 250.9 71.4218 250.36 71.2718L249.56 71.0618L248.74 70.9218C246.626 70.4557 244.448 70.3542 242.3 70.6218C240.186 70.8564 238.158 71.5862 236.38 72.7518C234.523 73.9086 232.865 75.3572 231.47 77.0418C228.581 80.5741 226.223 84.5089 224.47 88.7218C225.243 84.0402 227.069 79.5952 229.81 75.7218C231.211 73.7059 232.966 71.961 234.99 70.5718C237.075 69.1339 239.476 68.2213 241.99 67.9118C244.443 67.6311 246.926 67.7971 249.32 68.4018C251.633 68.9626 253.875 69.788 256 70.8618C260.235 72.9289 264.105 75.6714 267.46 78.9818Z" fill="#263238"/>
<path d="M187.867 122.892C193.679 121.478 197.245 115.621 195.831 109.809C194.417 103.998 188.56 100.432 182.748 101.846C176.937 103.259 173.371 109.116 174.785 114.928C176.198 120.74 182.055 124.306 187.867 122.892Z" fill="#263238"/>
<path d="M176.61 113.012C176.967 113.839 177.562 114.542 178.319 115.032C179.075 115.521 179.96 115.776 180.861 115.763C181.763 115.75 182.64 115.47 183.382 114.959C184.124 114.448 184.699 113.728 185.032 112.891C185.366 112.053 185.444 111.136 185.256 110.255C185.068 109.373 184.624 108.567 183.978 107.938C183.333 107.309 182.516 106.885 181.629 106.72C180.743 106.555 179.828 106.657 179 107.012C178.448 107.248 177.949 107.591 177.53 108.021C177.111 108.45 176.782 108.958 176.56 109.516C176.338 110.073 176.228 110.669 176.236 111.269C176.245 111.869 176.372 112.461 176.61 113.012Z" fill="white"/>
<path d="M251.156 92.4886C253.378 86.9355 250.678 80.6324 245.125 78.4102C239.571 76.188 233.268 78.8882 231.046 84.4413C228.824 89.9944 231.524 96.2975 237.077 98.5198C242.63 100.742 248.934 98.0417 251.156 92.4886Z" fill="#263238"/>
<path d="M232.4 89.102C232.757 89.9294 233.352 90.6322 234.108 91.1219C234.865 91.6115 235.75 91.8659 236.651 91.8529C237.552 91.84 238.43 91.5602 239.172 91.049C239.914 90.5379 240.488 89.8182 240.822 88.9808C241.155 88.1435 241.233 87.2262 241.046 86.3446C240.858 85.463 240.414 84.6568 239.768 84.0277C239.123 83.3987 238.305 82.975 237.419 82.8102C236.533 82.6455 235.618 82.747 234.79 83.102C234.237 83.3372 233.737 83.6794 233.317 84.1089C232.898 84.5384 232.568 85.0467 232.345 85.6044C232.123 86.1621 232.014 86.7583 232.023 87.3586C232.032 87.9589 232.16 88.5514 232.4 89.102Z" fill="white"/>
<path d="M186.9 113.032C187.043 113.361 187.282 113.641 187.584 113.835C187.886 114.03 188.24 114.13 188.599 114.124C188.959 114.118 189.308 114.005 189.604 113.801C189.899 113.596 190.128 113.308 190.26 112.974C190.392 112.64 190.423 112.274 190.347 111.922C190.272 111.571 190.094 111.249 189.836 110.999C189.578 110.748 189.252 110.58 188.898 110.514C188.545 110.449 188.18 110.49 187.85 110.632C187.406 110.825 187.057 111.186 186.879 111.636C186.701 112.086 186.709 112.587 186.9 113.032Z" fill="white"/>
<path d="M242.69 89.1219C242.828 89.4531 243.061 89.736 243.36 89.935C243.659 90.134 244.01 90.2402 244.369 90.2403C244.727 90.2404 245.078 90.1344 245.377 89.9356C245.676 89.7367 245.909 89.454 246.048 89.1228C246.187 88.7917 246.224 88.427 246.156 88.0746C246.088 87.7222 245.917 87.3978 245.665 87.1423C245.413 86.8867 245.091 86.7114 244.739 86.6384C244.388 86.5654 244.023 86.5979 243.69 86.7319C243.465 86.8207 243.261 86.9536 243.088 87.1226C242.916 87.2917 242.779 87.4935 242.686 87.7162C242.593 87.9389 242.545 88.178 242.546 88.4194C242.547 88.6608 242.595 88.8997 242.69 89.1219Z" fill="white"/>
<path d="M236.88 123.232C236.33 123.582 235.78 123.942 235.21 124.232C234.64 124.522 234.01 124.802 233.38 125.032C232.093 125.482 230.743 125.722 229.38 125.742C227.978 125.722 226.594 125.423 225.31 124.862C223.988 124.282 222.816 123.41 221.88 122.312L223.51 121.612C223.655 123.05 223.477 124.502 222.99 125.862C222.51 127.178 221.772 128.385 220.82 129.412C219.869 130.386 218.764 131.197 217.55 131.812C216.95 132.1 216.336 132.357 215.71 132.582C215.07 132.772 214.43 132.932 213.8 133.082C214.37 132.742 214.94 132.432 215.5 132.082C216.06 131.732 216.58 131.412 217.08 131.012C218.07 130.276 218.96 129.416 219.73 128.452C220.451 127.498 220.999 126.425 221.35 125.282C221.523 124.718 221.644 124.139 221.71 123.552C221.775 122.994 221.775 122.43 221.71 121.872C221.687 121.637 221.755 121.402 221.9 121.216C222.045 121.03 222.256 120.907 222.49 120.872C222.649 120.851 222.81 120.872 222.959 120.931C223.108 120.991 223.239 121.088 223.34 121.212C223.703 121.641 224.109 122.033 224.55 122.382C225.024 122.728 225.526 123.036 226.05 123.302C227.121 123.828 228.274 124.166 229.46 124.302C230.691 124.413 231.932 124.359 233.15 124.142C233.78 124.062 234.39 123.862 235.02 123.742C235.65 123.622 236.25 123.412 236.88 123.232Z" fill="#263238"/>
<path d="M222.61 122.712C222.432 122.71 222.258 122.658 222.109 122.56C221.96 122.463 221.842 122.324 221.77 122.162L219 115.652C218.906 115.43 218.904 115.181 218.994 114.958C219.084 114.735 219.259 114.557 219.48 114.462C219.59 114.413 219.709 114.386 219.829 114.384C219.95 114.381 220.069 114.403 220.181 114.448C220.293 114.493 220.395 114.559 220.481 114.644C220.566 114.729 220.634 114.83 220.68 114.942L223.47 121.442C223.529 121.581 223.554 121.732 223.54 121.883C223.527 122.033 223.476 122.178 223.393 122.304C223.31 122.43 223.196 122.533 223.063 122.604C222.93 122.676 222.781 122.713 222.63 122.712H222.61Z" fill="#263238"/>
<path d="M131.72 136.592C123.61 140.402 117.72 148.502 116.25 158.092C123.41 149.352 131.76 151.922 131.76 151.922L131.72 136.592Z" fill="#407BFF"/>
<path d="M132.55 160.222C131.134 163.443 130.526 166.962 130.779 170.472C131.032 173.981 132.137 177.376 134 180.362C133.92 171.762 140.06 169.202 140.06 169.202L132.55 160.222Z" fill="#407BFF"/>
<path d="M132.08 147.022C123.91 153.122 119.23 163.492 119.72 174.532C125.72 163.142 135.62 164.112 135.62 164.112L132.08 147.022Z" fill="#407BFF"/>
<path d="M296 66.202C304.35 62.962 314.25 64.322 322.24 69.832C310.97 68.992 307.07 76.832 307.07 76.832L296 66.202Z" fill="#407BFF"/>
<path d="M309.86 82.702C316.59 81.612 323.93 82.462 328.43 86.842C322.906 86.8387 317.558 88.7866 313.33 92.342L309.86 82.702Z" fill="#407BFF"/>
<path d="M307.61 81.7219C313.72 84.7219 319.18 89.7219 320.28 95.9119C315.794 92.6832 310.31 91.1459 304.8 91.5719L307.61 81.7219Z" fill="#407BFF"/>
<path d="M303.32 73.6619C313.37 71.9519 324.1 75.7219 331.76 83.6619C319.38 80.1519 313.25 87.9819 313.25 87.9819L303.32 73.6619Z" fill="#407BFF"/>
<path d="M190 63.892C189.62 58.232 192.35 53.362 199.11 48.332C197.69 56.412 203.54 58.432 203.54 58.432L190 63.892Z" fill="#407BFF"/>
<path d="M197.38 60.7418C198.72 54.1618 205.46 47.7418 215.27 43.6118C208.27 51.1518 213.91 55.8318 213.91 55.8318L197.38 60.7418Z" fill="#407BFF"/>
<path d="M141.59 178.912C141.501 178.909 141.415 178.881 141.34 178.832C141.29 178.799 141.248 178.756 141.215 178.706C141.182 178.657 141.159 178.601 141.148 178.542C141.137 178.483 141.138 178.423 141.15 178.365C141.162 178.306 141.186 178.251 141.22 178.202C167.73 138.582 215.97 122.952 216.45 122.802C216.567 122.767 216.692 122.779 216.801 122.835C216.909 122.891 216.991 122.987 217.03 123.102C217.065 123.217 217.053 123.342 216.996 123.448C216.94 123.555 216.845 123.635 216.73 123.672C216.25 123.822 168.31 139.362 141.97 178.672C141.935 178.743 141.881 178.803 141.814 178.846C141.747 178.888 141.669 178.911 141.59 178.912Z" fill="#263238"/>
<path d="M148.89 203.872C148.84 203.881 148.789 203.881 148.74 203.872C148.625 203.833 148.53 203.75 148.475 203.642C148.421 203.533 148.412 203.407 148.45 203.292C166.75 149.842 214.65 126.682 215.13 126.462C215.237 126.41 215.361 126.403 215.473 126.443C215.586 126.482 215.678 126.564 215.73 126.672C215.757 126.725 215.773 126.784 215.777 126.844C215.781 126.904 215.773 126.964 215.754 127.021C215.734 127.078 215.703 127.13 215.663 127.175C215.623 127.22 215.574 127.256 215.52 127.282C215.04 127.512 167.52 150.512 149.32 203.592C149.283 203.675 149.223 203.746 149.146 203.796C149.07 203.845 148.981 203.872 148.89 203.872Z" fill="#263238"/>
<path d="M227.8 118.892C227.72 118.894 227.641 118.873 227.572 118.833C227.503 118.792 227.447 118.733 227.41 118.662C227.378 118.611 227.357 118.555 227.348 118.495C227.338 118.436 227.341 118.376 227.356 118.318C227.371 118.259 227.398 118.205 227.435 118.158C227.471 118.11 227.518 118.071 227.57 118.042C228.01 117.782 272.08 92.712 319.22 99.852C319.279 99.8593 319.336 99.8785 319.387 99.9083C319.439 99.9382 319.484 99.9782 319.519 100.026C319.555 100.073 319.58 100.128 319.594 100.186C319.608 100.243 319.61 100.303 319.6 100.362C319.578 100.48 319.512 100.586 319.416 100.658C319.32 100.731 319.2 100.764 319.08 100.752C272.27 93.652 228.47 118.572 228.08 118.832C227.995 118.881 227.897 118.902 227.8 118.892Z" fill="#263238"/>
<path d="M322.38 122.252C322.333 122.262 322.286 122.262 322.24 122.252C266.44 104.252 231.83 120.252 231.48 120.432C231.371 120.484 231.246 120.49 231.133 120.45C231.019 120.409 230.926 120.326 230.875 120.217C230.823 120.108 230.816 119.983 230.857 119.87C230.897 119.756 230.981 119.664 231.09 119.612C231.43 119.442 266.34 103.252 322.52 121.382C322.633 121.423 322.727 121.506 322.781 121.614C322.835 121.722 322.845 121.847 322.81 121.962C322.777 122.049 322.718 122.123 322.641 122.175C322.564 122.227 322.472 122.254 322.38 122.252Z" fill="#263238"/>
<path d="M219.154 366.621C227.773 357.313 227.215 342.78 217.907 334.16C208.599 325.541 194.065 326.099 185.446 335.407C176.827 344.716 177.385 359.249 186.693 367.868C196.001 376.487 210.534 375.929 219.154 366.621Z" fill="#407BFF"/>
<path d="M266.75 374.982C255.37 374.982 251.35 370.672 247.47 366.512C246.185 365.059 244.776 363.721 243.26 362.512C237.44 358.072 228.26 356.042 223.63 358.172C223.414 358.208 223.192 358.172 222.998 358.07C222.804 357.967 222.65 357.804 222.558 357.605C222.466 357.407 222.442 357.183 222.489 356.969C222.536 356.756 222.652 356.563 222.82 356.422C228.12 353.992 238.01 356.082 244.43 360.972C246.034 362.259 247.526 363.681 248.89 365.222C252.65 369.272 256.21 373.092 266.75 373.092C269.322 373.16 271.864 372.53 274.107 371.269C276.35 370.009 278.21 368.164 279.49 365.932C280.546 364.18 281.117 362.178 281.143 360.132C281.169 358.086 280.651 356.071 279.64 354.292C277.25 350.442 272.33 348.482 265.77 348.792C265.623 348.838 265.469 348.851 265.317 348.828C265.165 348.805 265.021 348.747 264.895 348.66C264.769 348.572 264.665 348.457 264.591 348.322C264.517 348.188 264.475 348.039 264.468 347.885C264.461 347.732 264.489 347.58 264.55 347.439C264.611 347.298 264.704 347.174 264.821 347.075C264.938 346.976 265.077 346.905 265.226 346.868C265.374 346.831 265.53 346.829 265.68 346.862C272.97 346.532 278.51 348.802 281.28 353.272C282.47 355.344 283.088 357.696 283.071 360.085C283.053 362.475 282.4 364.817 281.18 366.872C279.73 369.4 277.623 371.488 275.083 372.916C272.542 374.344 269.663 375.058 266.75 374.982Z" fill="#407BFF"/>
<path d="M212 368.562C199.896 368.439 188.231 364.015 179.09 356.082C178.971 355.898 178.916 355.681 178.933 355.463C178.95 355.245 179.038 355.039 179.183 354.876C179.328 354.712 179.523 354.601 179.737 354.559C179.951 354.517 180.173 354.546 180.37 354.642C188.37 361.782 202.65 368.542 218.58 366.142C218.72 366.08 218.873 366.052 219.026 366.059C219.179 366.066 219.329 366.108 219.463 366.182C219.598 366.256 219.713 366.36 219.801 366.486C219.888 366.612 219.946 366.756 219.969 366.908C219.992 367.059 219.98 367.214 219.934 367.361C219.887 367.507 219.808 367.64 219.701 367.751C219.595 367.861 219.465 367.946 219.321 367.998C219.176 368.05 219.022 368.069 218.87 368.052C216.595 368.392 214.299 368.563 212 368.562Z" fill="#407BFF"/>
<path d="M209.48 371.422C197.69 371.422 187.62 366.782 178.83 357.322C178.658 357.137 178.563 356.894 178.563 356.642C178.563 356.39 178.658 356.147 178.83 355.962C179.015 355.788 179.26 355.69 179.515 355.69C179.769 355.69 180.014 355.788 180.2 355.962C189.93 366.442 201.3 370.732 214.95 369.112C215.092 369.052 215.247 369.026 215.401 369.036C215.556 369.046 215.706 369.092 215.839 369.17C215.973 369.248 216.087 369.355 216.172 369.485C216.257 369.614 216.311 369.761 216.329 369.915C216.348 370.068 216.33 370.224 216.278 370.37C216.226 370.515 216.141 370.647 216.03 370.754C215.919 370.862 215.784 370.942 215.636 370.988C215.489 371.035 215.333 371.046 215.18 371.022C213.29 371.27 211.386 371.404 209.48 371.422Z" fill="#407BFF"/>
<path d="M192.06 372.582C191.811 372.583 191.571 372.491 191.386 372.325C191.201 372.159 191.085 371.929 191.06 371.682C190.22 360.402 194.11 342.442 204.67 327.752C204.84 327.613 205.05 327.535 205.269 327.528C205.488 327.521 205.703 327.586 205.882 327.713C206.06 327.84 206.192 328.023 206.256 328.232C206.321 328.441 206.315 328.666 206.24 328.872C196 343.182 192.21 360.612 193 371.542C193.001 371.789 192.911 372.028 192.747 372.213C192.582 372.397 192.356 372.514 192.11 372.542L192.06 372.582Z" fill="#407BFF"/>
<path d="M182.47 363.632C182.286 363.63 182.106 363.579 181.95 363.482C181.741 363.339 181.594 363.123 181.538 362.876C181.483 362.629 181.522 362.37 181.65 362.152C185.01 356.842 197.49 339.032 217.05 332.782C217.293 332.713 217.552 332.739 217.777 332.854C218.001 332.969 218.174 333.165 218.26 333.402C218.328 333.644 218.302 333.904 218.187 334.128C218.072 334.353 217.877 334.525 217.64 334.612C198.7 340.672 186.55 358.012 183.28 363.182C183.191 363.316 183.071 363.428 182.93 363.506C182.789 363.585 182.631 363.628 182.47 363.632Z" fill="#407BFF"/>
<path d="M182.47 363.632C182.346 363.633 182.224 363.609 182.11 363.562C181.879 363.46 181.694 363.275 181.594 363.043C181.494 362.811 181.485 362.55 181.57 362.312C184.527 355.041 189 348.483 194.69 343.076C200.381 337.668 207.157 333.535 214.57 330.952C214.789 330.936 215.006 330.993 215.19 331.113C215.373 331.233 215.512 331.411 215.584 331.617C215.657 331.824 215.66 332.049 215.592 332.258C215.525 332.467 215.39 332.647 215.21 332.772C208.051 335.261 201.505 339.247 196.007 344.465C190.51 349.682 186.188 356.012 183.33 363.032C183.256 363.202 183.137 363.348 182.985 363.454C182.833 363.559 182.655 363.621 182.47 363.632Z" fill="#407BFF"/>
<path d="M189.21 370.902C188.967 370.904 188.732 370.818 188.548 370.66C188.364 370.502 188.244 370.282 188.21 370.042C185.79 349.202 192.63 337.282 200.39 327.512C200.553 327.32 200.783 327.197 201.033 327.167C201.284 327.137 201.536 327.203 201.74 327.352C201.934 327.516 202.059 327.747 202.089 328C202.119 328.253 202.051 328.507 201.9 328.712C194.4 338.162 187.79 349.712 190.13 369.822C190.15 370.075 190.074 370.326 189.916 370.525C189.758 370.723 189.531 370.855 189.28 370.892L189.21 370.902Z" fill="#407BFF"/>
<path d="M186.53 368.722C186.321 368.717 186.119 368.647 185.952 368.521C185.786 368.395 185.662 368.221 185.6 368.022C182.6 356.972 184.83 339.692 197.07 327.842C197.255 327.67 197.498 327.575 197.75 327.575C198.002 327.575 198.245 327.67 198.43 327.842C198.604 328.027 198.701 328.272 198.701 328.527C198.701 328.781 198.604 329.026 198.43 329.212C187.28 340.002 184.48 356.632 187.48 367.482C187.54 367.728 187.504 367.988 187.38 368.209C187.255 368.43 187.052 368.595 186.81 368.672L186.53 368.722Z" fill="#407BFF"/>
<path d="M225 355.222C224.8 355.219 224.604 355.157 224.44 355.042C210.14 344.752 192.7 340.962 181.77 341.782C181.553 341.742 181.355 341.63 181.207 341.465C181.059 341.301 180.971 341.091 180.955 340.871C180.939 340.65 180.996 340.431 181.119 340.246C181.241 340.062 181.421 339.923 181.63 339.852C192.91 339.022 210.87 342.902 225.57 353.472C225.718 353.601 225.825 353.77 225.877 353.959C225.929 354.148 225.925 354.349 225.864 354.535C225.803 354.722 225.689 354.886 225.535 355.008C225.382 355.131 225.196 355.205 225 355.222Z" fill="#407BFF"/>
<path d="M225.2 352.552C225.065 352.555 224.932 352.528 224.81 352.472C211.99 346.782 192.59 346.032 179.69 350.712C179.564 350.802 179.42 350.861 179.268 350.886C179.115 350.911 178.959 350.9 178.812 350.854C178.665 350.809 178.53 350.73 178.418 350.623C178.306 350.517 178.221 350.386 178.168 350.241C178.115 350.096 178.096 349.941 178.114 349.788C178.131 349.635 178.183 349.487 178.266 349.358C178.35 349.228 178.462 349.119 178.595 349.04C178.727 348.961 178.876 348.914 179.03 348.902C192.35 344.062 212.36 344.842 225.59 350.712C225.817 350.823 225.993 351.015 226.084 351.251C226.175 351.486 226.173 351.747 226.08 351.982C226 352.149 225.876 352.291 225.72 352.391C225.565 352.492 225.385 352.548 225.2 352.552Z" fill="#407BFF"/>
<path d="M225.16 349.852C225.027 349.85 224.896 349.822 224.774 349.768C224.652 349.715 224.542 349.638 224.45 349.542C214.94 339.202 202.62 335.542 184.45 337.632C184.307 337.692 184.153 337.717 183.998 337.707C183.844 337.697 183.694 337.652 183.56 337.574C183.427 337.496 183.313 337.388 183.228 337.259C183.143 337.13 183.089 336.983 183.071 336.829C183.052 336.676 183.07 336.52 183.121 336.374C183.173 336.228 183.258 336.097 183.37 335.989C183.481 335.882 183.616 335.802 183.763 335.756C183.911 335.709 184.067 335.698 184.22 335.722C202.78 333.562 216 337.542 225.83 348.242C225.941 348.384 226.011 348.554 226.033 348.733C226.055 348.912 226.028 349.094 225.955 349.259C225.882 349.424 225.766 349.566 225.619 349.67C225.472 349.775 225.3 349.837 225.12 349.852H225.16Z" fill="#407BFF"/>
<path d="M224.44 345.932C224.184 345.925 223.941 345.822 223.76 345.642C211.87 333.782 195.1 332.072 187.51 334.642C187.29 334.656 187.072 334.598 186.889 334.475C186.705 334.353 186.568 334.173 186.497 333.965C186.427 333.756 186.427 333.53 186.498 333.322C186.569 333.113 186.707 332.934 186.89 332.812C194.94 330.082 212.66 331.812 225.12 344.272C225.291 344.457 225.387 344.7 225.387 344.952C225.387 345.204 225.291 345.447 225.12 345.632C224.94 345.815 224.697 345.923 224.44 345.932Z" fill="#407BFF"/>
<path d="M220 366.672C219.911 366.686 219.819 366.686 219.73 366.672C196.73 359.862 179.82 344.402 179.66 344.242C179.545 344.056 179.494 343.839 179.514 343.622C179.534 343.405 179.625 343.2 179.772 343.039C179.919 342.879 180.115 342.77 180.329 342.731C180.544 342.692 180.765 342.724 180.96 342.822C181.13 342.982 197.73 358.142 220.28 364.822C220.473 364.914 220.63 365.066 220.731 365.254C220.831 365.443 220.868 365.659 220.837 365.87C220.805 366.081 220.707 366.277 220.557 366.428C220.406 366.58 220.211 366.679 220 366.712V366.672Z" fill="#407BFF"/>
<path d="M220.46 366.082C220.329 366.08 220.2 366.053 220.08 366.002C206.163 359.788 192.83 352.341 180.24 343.752C180.094 343.701 179.962 343.616 179.854 343.505C179.746 343.394 179.665 343.26 179.618 343.112C179.571 342.965 179.558 342.808 179.582 342.655C179.606 342.502 179.664 342.357 179.754 342.231C179.843 342.104 179.961 342 180.097 341.927C180.233 341.854 180.385 341.813 180.54 341.808C180.694 341.804 180.848 341.835 180.989 341.9C181.129 341.964 181.253 342.061 181.35 342.182C193.829 350.695 207.045 358.074 220.84 364.232C221.018 364.338 221.159 364.497 221.243 364.687C221.326 364.877 221.349 365.088 221.307 365.292C221.265 365.495 221.162 365.68 221.01 365.822C220.858 365.963 220.666 366.054 220.46 366.082Z" fill="#407BFF"/>
<path d="M221.31 364.892C221.153 364.895 220.998 364.857 220.86 364.782C201.19 354.202 180.57 343.932 180.37 343.832C180.206 343.687 180.095 343.492 180.053 343.277C180.011 343.062 180.04 342.84 180.137 342.644C180.233 342.447 180.391 342.288 180.587 342.19C180.783 342.092 181.005 342.061 181.22 342.102C181.43 342.202 202.08 352.492 221.77 363.102C221.935 363.219 222.061 363.383 222.131 363.572C222.201 363.762 222.212 363.969 222.162 364.165C222.112 364.361 222.004 364.537 221.852 364.671C221.7 364.804 221.511 364.888 221.31 364.912V364.892Z" fill="#407BFF"/>
<path d="M222 363.832C221.786 363.836 221.577 363.765 221.41 363.632C203.55 349.632 181.1 343.132 180.87 343.072C180.68 342.959 180.533 342.787 180.451 342.582C180.369 342.376 180.358 342.15 180.418 341.938C180.479 341.725 180.608 341.539 180.785 341.408C180.963 341.276 181.179 341.207 181.4 341.212C181.63 341.282 204.4 347.862 222.6 362.112C222.792 362.275 222.915 362.505 222.945 362.755C222.974 363.006 222.908 363.258 222.76 363.462C222.671 363.579 222.556 363.673 222.424 363.737C222.292 363.801 222.147 363.834 222 363.832Z" fill="#407BFF"/>
<path d="M223.84 359.952C223.619 359.951 223.404 359.877 223.23 359.742C206.87 346.302 181.23 343.132 181.01 343.102C180.805 343.021 180.632 342.874 180.519 342.684C180.406 342.494 180.359 342.273 180.386 342.053C180.412 341.834 180.51 341.63 180.664 341.472C180.819 341.315 181.021 341.212 181.24 341.182C181.5 341.182 207.65 344.452 224.46 358.252C224.647 358.419 224.765 358.651 224.789 358.901C224.813 359.152 224.742 359.402 224.59 359.602C224.497 359.71 224.382 359.798 224.253 359.858C224.123 359.918 223.983 359.95 223.84 359.952Z" fill="#407BFF"/>
<path d="M193.69 373.362C193.498 373.341 193.315 373.265 193.165 373.143C193.015 373.021 192.904 372.858 192.844 372.674C192.785 372.49 192.781 372.292 192.831 372.105C192.882 371.919 192.986 371.751 193.13 371.622C211.36 358.432 221.77 340.132 221.87 339.952C221.908 339.803 221.98 339.665 222.08 339.548C222.18 339.431 222.305 339.339 222.447 339.279C222.588 339.218 222.741 339.191 222.895 339.2C223.048 339.209 223.198 339.252 223.331 339.328C223.465 339.404 223.58 339.509 223.666 339.636C223.753 339.763 223.808 339.909 223.83 340.061C223.851 340.213 223.837 340.368 223.788 340.514C223.74 340.66 223.658 340.793 223.55 340.902C223.45 341.082 212.83 359.752 194.26 373.182C194.093 373.298 193.894 373.361 193.69 373.362Z" fill="#407BFF"/>
<g opacity="0.3">
<path d="M212 368.562C199.896 368.439 188.231 364.015 179.09 356.082C178.971 355.898 178.916 355.681 178.933 355.463C178.95 355.245 179.038 355.039 179.183 354.876C179.328 354.712 179.523 354.601 179.737 354.559C179.951 354.517 180.173 354.546 180.37 354.642C188.37 361.782 202.65 368.542 218.58 366.142C218.72 366.08 218.873 366.052 219.026 366.059C219.179 366.066 219.329 366.108 219.463 366.182C219.598 366.256 219.713 366.36 219.801 366.486C219.888 366.612 219.946 366.756 219.969 366.908C219.992 367.059 219.98 367.214 219.934 367.361C219.887 367.507 219.808 367.64 219.701 367.751C219.595 367.861 219.465 367.946 219.321 367.998C219.176 368.05 219.022 368.069 218.87 368.052C216.595 368.392 214.299 368.563 212 368.562Z" fill="black"/>
<path d="M209.48 371.422C197.69 371.422 187.62 366.782 178.83 357.322C178.658 357.137 178.563 356.894 178.563 356.642C178.563 356.39 178.658 356.147 178.83 355.962C179.015 355.788 179.26 355.69 179.515 355.69C179.769 355.69 180.014 355.788 180.2 355.962C189.93 366.442 201.3 370.732 214.95 369.112C215.092 369.052 215.247 369.026 215.401 369.036C215.556 369.046 215.706 369.092 215.839 369.17C215.973 369.248 216.087 369.355 216.172 369.485C216.257 369.614 216.311 369.761 216.329 369.915C216.348 370.068 216.33 370.224 216.278 370.37C216.226 370.515 216.141 370.647 216.03 370.754C215.919 370.862 215.784 370.942 215.636 370.988C215.489 371.035 215.333 371.046 215.18 371.022C213.29 371.27 211.386 371.404 209.48 371.422Z" fill="black"/>
<path d="M192.06 372.582C191.811 372.583 191.571 372.491 191.386 372.325C191.201 372.159 191.085 371.929 191.06 371.682C190.22 360.402 194.11 342.442 204.67 327.752C204.84 327.613 205.05 327.535 205.269 327.528C205.488 327.521 205.703 327.586 205.882 327.713C206.06 327.84 206.192 328.023 206.256 328.232C206.321 328.441 206.315 328.666 206.24 328.872C196 343.182 192.21 360.612 193 371.542C193.001 371.789 192.911 372.028 192.747 372.213C192.582 372.397 192.356 372.514 192.11 372.542L192.06 372.582Z" fill="black"/>
<path d="M182.469 363.632C182.286 363.631 182.106 363.579 181.949 363.482C181.741 363.339 181.593 363.123 181.538 362.876C181.482 362.629 181.522 362.37 181.649 362.152C185.009 356.842 197.489 339.032 217.049 332.782C217.292 332.714 217.552 332.74 217.776 332.855C218 332.97 218.173 333.165 218.259 333.402C218.328 333.645 218.302 333.904 218.187 334.128C218.072 334.353 217.876 334.526 217.639 334.612C198.699 340.672 186.549 358.012 183.279 363.182C183.191 363.317 183.071 363.428 182.93 363.506C182.789 363.585 182.631 363.628 182.469 363.632Z" fill="black"/>
<path d="M182.47 363.632C182.346 363.633 182.224 363.609 182.11 363.562C181.879 363.46 181.694 363.275 181.594 363.043C181.494 362.811 181.485 362.55 181.57 362.312C184.527 355.041 189 348.483 194.69 343.076C200.381 337.668 207.157 333.535 214.57 330.952C214.789 330.936 215.006 330.993 215.19 331.113C215.373 331.233 215.512 331.411 215.584 331.617C215.657 331.824 215.66 332.049 215.592 332.258C215.525 332.467 215.39 332.647 215.21 332.772C208.051 335.261 201.505 339.247 196.007 344.465C190.51 349.682 186.188 356.012 183.33 363.032C183.256 363.202 183.137 363.348 182.985 363.454C182.833 363.559 182.655 363.621 182.47 363.632Z" fill="black"/>
<path d="M189.21 370.902C188.967 370.904 188.732 370.818 188.548 370.66C188.364 370.502 188.244 370.282 188.21 370.042C185.79 349.202 192.63 337.282 200.39 327.512C200.553 327.32 200.783 327.197 201.033 327.167C201.284 327.137 201.536 327.203 201.74 327.352C201.934 327.516 202.059 327.747 202.089 328C202.119 328.253 202.051 328.507 201.9 328.712C194.4 338.162 187.79 349.712 190.13 369.822C190.15 370.075 190.074 370.326 189.916 370.525C189.758 370.723 189.531 370.855 189.28 370.892L189.21 370.902Z" fill="black"/>
<path d="M186.53 368.722C186.321 368.717 186.119 368.647 185.952 368.521C185.786 368.395 185.662 368.221 185.6 368.022C182.6 356.972 184.83 339.692 197.07 327.842C197.255 327.67 197.498 327.575 197.75 327.575C198.002 327.575 198.245 327.67 198.43 327.842C198.604 328.027 198.701 328.272 198.701 328.527C198.701 328.781 198.604 329.026 198.43 329.212C187.28 340.002 184.48 356.632 187.48 367.482C187.54 367.728 187.504 367.988 187.38 368.209C187.255 368.43 187.052 368.595 186.81 368.672L186.53 368.722Z" fill="black"/>
<path d="M225 355.222C224.799 355.219 224.604 355.157 224.44 355.042C210.14 344.752 192.7 340.962 181.77 341.782C181.552 341.742 181.354 341.63 181.207 341.465C181.059 341.301 180.97 341.091 180.954 340.871C180.938 340.65 180.996 340.431 181.118 340.246C181.24 340.062 181.42 339.923 181.63 339.852C192.91 339.022 210.87 342.902 225.57 353.472C225.717 353.601 225.824 353.77 225.876 353.959C225.929 354.148 225.924 354.349 225.863 354.535C225.803 354.722 225.688 354.886 225.535 355.008C225.381 355.131 225.195 355.205 225 355.222Z" fill="black"/>
<path d="M225.2 352.552C225.065 352.555 224.932 352.528 224.81 352.472C211.99 346.782 192.59 346.032 179.69 350.712C179.564 350.802 179.42 350.861 179.268 350.886C179.115 350.911 178.959 350.9 178.812 350.854C178.665 350.809 178.53 350.73 178.418 350.623C178.306 350.517 178.221 350.386 178.168 350.241C178.115 350.096 178.096 349.941 178.114 349.788C178.131 349.635 178.183 349.487 178.266 349.358C178.35 349.228 178.462 349.119 178.595 349.04C178.727 348.961 178.876 348.914 179.03 348.902C192.35 344.062 212.36 344.842 225.59 350.712C225.817 350.823 225.993 351.015 226.084 351.251C226.175 351.486 226.173 351.747 226.08 351.982C226 352.149 225.876 352.291 225.72 352.391C225.565 352.492 225.385 352.548 225.2 352.552Z" fill="black"/>
<path d="M225.159 349.852C225.026 349.85 224.895 349.822 224.773 349.768C224.651 349.715 224.541 349.638 224.449 349.542C214.939 339.202 202.619 335.542 184.449 337.632C184.307 337.692 184.152 337.717 183.998 337.707C183.844 337.697 183.694 337.652 183.56 337.574C183.426 337.496 183.312 337.388 183.228 337.259C183.143 337.13 183.089 336.983 183.07 336.829C183.052 336.676 183.069 336.52 183.121 336.374C183.173 336.228 183.258 336.097 183.369 335.989C183.481 335.882 183.615 335.802 183.763 335.756C183.91 335.709 184.067 335.698 184.219 335.722C202.779 333.562 215.999 337.542 225.829 348.242C225.94 348.384 226.01 348.554 226.032 348.733C226.054 348.912 226.027 349.094 225.954 349.259C225.882 349.424 225.766 349.566 225.619 349.67C225.472 349.775 225.299 349.837 225.119 349.852H225.159Z" fill="black"/>
<path d="M224.44 345.932C224.184 345.925 223.941 345.822 223.76 345.642C211.87 333.782 195.1 332.072 187.51 334.642C187.29 334.656 187.072 334.598 186.889 334.475C186.705 334.353 186.568 334.173 186.497 333.965C186.427 333.756 186.427 333.53 186.498 333.322C186.569 333.113 186.707 332.934 186.89 332.812C194.94 330.082 212.66 331.812 225.12 344.272C225.291 344.457 225.387 344.7 225.387 344.952C225.387 345.204 225.291 345.447 225.12 345.632C224.94 345.815 224.697 345.923 224.44 345.932Z" fill="black"/>
<path d="M219.999 366.672C219.91 366.686 219.819 366.686 219.729 366.672C196.729 359.862 179.819 344.402 179.659 344.242C179.545 344.057 179.493 343.839 179.514 343.622C179.534 343.405 179.624 343.2 179.772 343.04C179.919 342.879 180.115 342.771 180.329 342.731C180.543 342.692 180.765 342.724 180.959 342.822C181.129 342.982 197.729 358.142 220.279 364.822C220.472 364.914 220.63 365.066 220.73 365.254C220.83 365.443 220.868 365.659 220.836 365.87C220.805 366.081 220.707 366.277 220.556 366.429C220.406 366.58 220.211 366.679 219.999 366.712V366.672Z" fill="black"/>
<path d="M220.46 366.082C220.329 366.08 220.2 366.053 220.08 366.002C206.163 359.788 192.83 352.341 180.24 343.752C180.093 343.701 179.961 343.616 179.853 343.505C179.745 343.394 179.664 343.26 179.617 343.112C179.57 342.965 179.558 342.808 179.582 342.655C179.605 342.502 179.664 342.357 179.753 342.231C179.843 342.104 179.96 342 180.097 341.927C180.233 341.854 180.385 341.813 180.539 341.808C180.694 341.804 180.848 341.835 180.988 341.9C181.129 341.964 181.253 342.061 181.35 342.182C193.829 350.695 207.045 358.074 220.84 364.232C221.018 364.338 221.159 364.497 221.242 364.687C221.326 364.877 221.349 365.088 221.307 365.292C221.265 365.495 221.161 365.68 221.009 365.822C220.857 365.963 220.665 366.054 220.46 366.082Z" fill="black"/>
<path d="M221.31 364.892C221.153 364.895 220.998 364.857 220.86 364.782C201.19 354.202 180.57 343.932 180.37 343.832C180.206 343.687 180.095 343.492 180.053 343.277C180.011 343.062 180.04 342.84 180.137 342.644C180.233 342.447 180.391 342.288 180.587 342.19C180.783 342.092 181.005 342.061 181.22 342.102C181.43 342.202 202.08 352.492 221.77 363.102C221.935 363.219 222.061 363.383 222.131 363.572C222.201 363.762 222.212 363.969 222.162 364.165C222.112 364.361 222.004 364.537 221.852 364.671C221.7 364.804 221.511 364.888 221.31 364.912V364.892Z" fill="black"/>
<path d="M221.999 363.832C221.785 363.836 221.577 363.765 221.409 363.632C203.549 349.632 181.099 343.132 180.869 343.072C180.679 342.959 180.532 342.787 180.45 342.582C180.369 342.376 180.357 342.15 180.418 341.938C180.478 341.725 180.607 341.539 180.785 341.408C180.963 341.276 181.179 341.207 181.399 341.212C181.629 341.282 204.399 347.862 222.599 362.112C222.791 362.275 222.914 362.505 222.944 362.755C222.974 363.006 222.908 363.258 222.759 363.462C222.67 363.579 222.555 363.673 222.423 363.737C222.291 363.801 222.146 363.834 221.999 363.832Z" fill="black"/>
<path d="M223.839 359.952C223.619 359.951 223.404 359.877 223.229 359.742C206.869 346.302 181.229 343.132 181.009 343.102C180.804 343.021 180.632 342.874 180.519 342.684C180.406 342.494 180.359 342.273 180.385 342.053C180.411 341.834 180.509 341.63 180.664 341.472C180.818 341.315 181.021 341.212 181.239 341.182C181.499 341.182 207.649 344.452 224.459 358.252C224.647 358.419 224.764 358.651 224.788 358.901C224.812 359.152 224.741 359.402 224.589 359.602C224.497 359.71 224.382 359.798 224.252 359.858C224.123 359.918 223.982 359.95 223.839 359.952Z" fill="black"/>
<path d="M193.69 373.362C193.497 373.341 193.315 373.265 193.165 373.143C193.015 373.021 192.903 372.858 192.844 372.674C192.785 372.49 192.78 372.292 192.831 372.105C192.882 371.919 192.985 371.751 193.13 371.622C211.36 358.432 221.77 340.132 221.87 339.952C221.907 339.803 221.979 339.665 222.079 339.548C222.179 339.431 222.305 339.339 222.446 339.279C222.587 339.218 222.741 339.191 222.894 339.2C223.048 339.209 223.197 339.252 223.331 339.328C223.465 339.404 223.579 339.509 223.666 339.636C223.752 339.763 223.808 339.909 223.829 340.061C223.85 340.213 223.836 340.368 223.788 340.514C223.739 340.66 223.658 340.793 223.55 340.902C223.45 341.082 212.83 359.752 194.26 373.182C194.092 373.298 193.893 373.361 193.69 373.362Z" fill="black"/>
</g>
</svg>
