<svg xmlns="http://www.w3.org/2000/svg" width="2164" height="1419" fill="none"><path stroke="#407BFF" d="M27 32a5 5 0 1 0 10 0 5 5 0 0 0-10 0ZM31 92a1 1 0 1 0 2 0 1 1 0 0 0-2 0ZM38 146l-12 12 12-12ZM38 206l-12 12 12-12ZM38 266l-12 12 12-12ZM34 330l-4 4 4-4ZM38 386l-12 12 12-12Z"/><path stroke="#407BFF" stroke-width="3" d="M62 422 2 482l60-60Z"/><path stroke="#407BFF" d="m38 506-12 12 12-12ZM34 570l-4 4 4-4ZM34 630l-4 4 4-4ZM38 686l-12 12 12-12ZM91 32a1 1 0 1 0 2 0 1 1 0 0 0-2 0ZM87 92a5 5 0 1 0 10 0 5 5 0 0 0-10 0ZM87 152a5.002 5.002 0 0 0 8.535 3.536A5.002 5.002 0 0 0 92 147a5.002 5.002 0 0 0-5 5ZM94 210l-4 4 4-4ZM98 266l-12 12 12-12ZM87 332a5.002 5.002 0 0 0 8.535 3.536A5.002 5.002 0 0 0 92 327a5.002 5.002 0 0 0-5 5ZM98 386l-12 12 12-12ZM94 450l-4 4 4-4ZM87 512a5.002 5.002 0 0 0 8.535 3.536A5.002 5.002 0 0 0 92 507a5.002 5.002 0 0 0-5 5Z"/><path stroke="#407BFF" stroke-width="3" d="m122 542-60 60 60-60Z"/><path stroke="#407BFF" d="M87 632a5.002 5.002 0 0 0 8.535 3.536A5.002 5.002 0 0 0 92 627a5.002 5.002 0 0 0-5 5ZM89 692a2.998 2.998 0 0 0 3 3 2.999 2.999 0 0 0 2.121-5.121A2.999 2.999 0 0 0 89 692ZM158 26l-12 12 12-12ZM154 90l-4 4 4-4Z"/><path stroke="#407BFF" stroke-width="3" d="m182 122-60 60 60-60ZM182 182l-60 60 60-60Z"/><path stroke="#407BFF" d="m154 270-4 4 4-4ZM151 332a.997.997 0 0 0 1 1 .997.997 0 0 0 1-1 .997.997 0 0 0-1-1 .997.997 0 0 0-1 1Z"/><path stroke="#407BFF" stroke-width="3" d="m182 362-60 60 60-60Z"/><path stroke="#407BFF" d="m158 446-12 12 12-12ZM154 510l-4 4 4-4ZM149 572c0 .796.316 1.559.879 2.121a2.996 2.996 0 0 0 4.242 0 2.996 2.996 0 0 0 0-4.242 2.996 2.996 0 0 0-4.242 0A2.996 2.996 0 0 0 149 572ZM158 626l-12 12 12-12ZM158 686l-12 12 12-12ZM207 32a5.002 5.002 0 0 0 5 5 5.002 5.002 0 0 0 3.536-8.535A5.002 5.002 0 0 0 207 32ZM214 90l-4 4 4-4ZM207 152c0 1.326.527 2.598 1.464 3.536a5.004 5.004 0 0 0 7.072 0 5.004 5.004 0 0 0 0-7.072 5.004 5.004 0 0 0-7.072 0A5.004 5.004 0 0 0 207 152ZM218 206l-12 12 12-12ZM218 266l-12 12 12-12ZM207 332c0 1.326.527 2.598 1.464 3.536a5.004 5.004 0 0 0 7.072 0 5.004 5.004 0 0 0 0-7.072 5.004 5.004 0 0 0-7.072 0A5.004 5.004 0 0 0 207 332ZM218 386l-12 12 12-12ZM214 450l-4 4 4-4ZM218 506l-12 12 12-12ZM218 566l-12 12 12-12ZM207 632c0 1.326.527 2.598 1.464 3.536a5.004 5.004 0 0 0 7.072 0 5.004 5.004 0 0 0 0-7.072 5.004 5.004 0 0 0-7.072 0A5.004 5.004 0 0 0 207 632ZM211 692a.997.997 0 0 0 1 1 .997.997 0 0 0 1-1 .997.997 0 0 0-1-1 .997.997 0 0 0-1 1ZM267 32a5.002 5.002 0 0 0 5 5 5.002 5.002 0 0 0 3.536-8.535A5.002 5.002 0 0 0 267 32ZM278 86l-12 12 12-12Z"/><path stroke="#407BFF" stroke-width="3" d="m302 122-60 60 60-60Z"/><path stroke="#407BFF" d="M267 212c0 1.326.527 2.598 1.464 3.536a5.004 5.004 0 0 0 7.072 0 5.004 5.004 0 0 0 0-7.072 5.004 5.004 0 0 0-7.072 0A5.004 5.004 0 0 0 267 212Z"/><path stroke="#407BFF" stroke-width="3" d="m302 242-60 60 60-60Z"/><path stroke="#407BFF" d="M267 332c0 1.326.527 2.598 1.464 3.536a5.004 5.004 0 0 0 7.072 0 5.004 5.004 0 0 0 0-7.072 5.004 5.004 0 0 0-7.072 0A5.004 5.004 0 0 0 267 332ZM267 392c0 1.326.527 2.598 1.464 3.536a5.004 5.004 0 0 0 7.072 0 5.004 5.004 0 0 0 0-7.072 5.004 5.004 0 0 0-7.072 0A5.004 5.004 0 0 0 267 392ZM274 450l-4 4 4-4ZM274 510l-4 4 4-4ZM267 572c0 1.326.527 2.598 1.464 3.536a5.004 5.004 0 0 0 7.072 0 5.004 5.004 0 0 0 0-7.072 5.004 5.004 0 0 0-7.072 0A5.004 5.004 0 0 0 267 572ZM271 632a.997.997 0 0 0 1 1 .997.997 0 0 0 1-1 .997.997 0 0 0-1-1 .997.997 0 0 0-1 1ZM278 686l-12 12 12-12Z"/><path stroke="#407BFF" stroke-width="3" d="m362 2-60 60 60-60Z"/><path stroke="#407BFF" d="m338 86-12 12 12-12ZM338 146l-12 12 12-12ZM327 212c0 1.326.527 2.598 1.464 3.536a5.004 5.004 0 0 0 7.072 0 5.004 5.004 0 0 0 0-7.072 5.004 5.004 0 0 0-7.072 0A5.004 5.004 0 0 0 327 212ZM327 272c0 1.326.527 2.598 1.464 3.536a5.004 5.004 0 0 0 7.072 0 5.004 5.004 0 0 0 0-7.072 5.004 5.004 0 0 0-7.072 0A5.004 5.004 0 0 0 327 272ZM327 332c0 1.326.527 2.598 1.464 3.536a5.004 5.004 0 0 0 7.072 0 5.004 5.004 0 0 0 0-7.072 5.004 5.004 0 0 0-7.072 0A5.004 5.004 0 0 0 327 332ZM338 386l-12 12 12-12ZM334 450l-4 4 4-4ZM338 506l-12 12 12-12ZM329 572c0 .796.316 1.559.879 2.121a2.996 2.996 0 0 0 4.242 0 2.996 2.996 0 0 0 0-4.242 2.996 2.996 0 0 0-4.242 0A2.996 2.996 0 0 0 329 572ZM329 632c0 .796.316 1.559.879 2.121a2.996 2.996 0 0 0 4.242 0 2.996 2.996 0 0 0 0-4.242 2.996 2.996 0 0 0-4.242 0A2.996 2.996 0 0 0 329 632ZM327 692c0 1.326.527 2.598 1.464 3.536a5.004 5.004 0 0 0 7.072 0 5.004 5.004 0 0 0 0-7.072 5.004 5.004 0 0 0-7.072 0A5.004 5.004 0 0 0 327 692ZM387 32a5.002 5.002 0 0 0 5 5 5.002 5.002 0 0 0 3.536-8.535A5.002 5.002 0 0 0 387 32ZM389 92a2.999 2.999 0 0 0 5.121 2.121 2.999 2.999 0 1 0-4.242-4.242A2.999 2.999 0 0 0 389 92ZM398 146l-12 12 12-12ZM394 210l-4 4 4-4ZM387 272c0 1.326.527 2.598 1.464 3.536a5.004 5.004 0 0 0 7.072 0 5.004 5.004 0 0 0 0-7.072 5.004 5.004 0 0 0-7.072 0A5.004 5.004 0 0 0 387 272ZM394 330l-4 4 4-4ZM391 392a.997.997 0 0 0 1 1 .997.997 0 0 0 1-1 .997.997 0 0 0-1-1 .997.997 0 0 0-1 1ZM387 452c0 1.326.527 2.598 1.464 3.536a5.004 5.004 0 0 0 7.072 0 5.004 5.004 0 0 0 0-7.072 5.004 5.004 0 0 0-7.072 0A5.004 5.004 0 0 0 387 452ZM391 512a.997.997 0 0 0 1 1 .997.997 0 0 0 1-1 .997.997 0 0 0-1-1 .997.997 0 0 0-1 1ZM389 572c0 .796.316 1.559.879 2.121a2.996 2.996 0 0 0 4.242 0 2.996 2.996 0 0 0 0-4.242 2.996 2.996 0 0 0-4.242 0A2.996 2.996 0 0 0 389 572ZM389 632c0 .796.316 1.559.879 2.121a2.996 2.996 0 0 0 4.242 0 2.996 2.996 0 0 0 0-4.242 2.996 2.996 0 0 0-4.242 0A2.996 2.996 0 0 0 389 632ZM389 692c0 .796.316 1.559.879 2.121a2.996 2.996 0 0 0 4.242 0 2.996 2.996 0 0 0 0-4.242 2.996 2.996 0 0 0-4.242 0A2.996 2.996 0 0 0 389 692ZM451 32a.998.998 0 0 0 1 1 1 1 0 1 0-1-1ZM447 92a5.002 5.002 0 0 0 5 5 5.002 5.002 0 0 0 3.536-8.535A5.002 5.002 0 0 0 447 92ZM447 152c0 1.326.527 2.598 1.464 3.536a5.004 5.004 0 0 0 7.072 0 5.004 5.004 0 0 0 0-7.072 5.004 5.004 0 0 0-7.072 0A5.004 5.004 0 0 0 447 152ZM447 212c0 1.326.527 2.598 1.464 3.536a5.004 5.004 0 0 0 7.072 0 5.004 5.004 0 0 0 0-7.072 5.004 5.004 0 0 0-7.072 0A5.004 5.004 0 0 0 447 212Z"/><path stroke="#407BFF" stroke-width="3" d="m482 242-60 60 60-60Z"/><path stroke="#407BFF" d="M447 332c0 1.326.527 2.598 1.464 3.536a5.004 5.004 0 0 0 7.072 0 5.004 5.004 0 0 0 0-7.072 5.004 5.004 0 0 0-7.072 0A5.004 5.004 0 0 0 447 332ZM458 386l-12 12 12-12ZM447 452c0 1.326.527 2.598 1.464 3.536a5.004 5.004 0 0 0 7.072 0 5.004 5.004 0 0 0 0-7.072 5.004 5.004 0 0 0-7.072 0A5.004 5.004 0 0 0 447 452ZM458 506l-12 12 12-12ZM458 566l-12 12 12-12ZM447 632c0 1.326.527 2.598 1.464 3.536a5.004 5.004 0 0 0 7.072 0 5.004 5.004 0 0 0 0-7.072 5.004 5.004 0 0 0-7.072 0A5.004 5.004 0 0 0 447 632ZM458 686l-12 12 12-12ZM507 32a5.002 5.002 0 0 0 5 5 5.002 5.002 0 0 0 3.536-8.535A5.002 5.002 0 0 0 507 32ZM507 92a5.002 5.002 0 0 0 5 5 5.002 5.002 0 0 0 3.536-8.535A5.002 5.002 0 0 0 507 92ZM507 152c0 1.326.527 2.598 1.464 3.536a5.004 5.004 0 0 0 7.072 0 5.004 5.004 0 0 0 0-7.072 5.004 5.004 0 0 0-7.072 0A5.004 5.004 0 0 0 507 152ZM507 212c0 1.326.527 2.598 1.464 3.536a5.004 5.004 0 0 0 7.072 0 5.004 5.004 0 0 0 0-7.072 5.004 5.004 0 0 0-7.072 0A5.004 5.004 0 0 0 507 212ZM509 272c0 .796.316 1.559.879 2.121a2.996 2.996 0 0 0 4.242 0 2.996 2.996 0 0 0 0-4.242 2.996 2.996 0 0 0-4.242 0A2.996 2.996 0 0 0 509 272ZM511 332a.997.997 0 0 0 1 1 .997.997 0 0 0 1-1 .997.997 0 0 0-1-1 .997.997 0 0 0-1 1Z"/><path stroke="#407BFF" stroke-width="3" d="m542 362-60 60 60-60Z"/><path stroke="#407BFF" d="m514 450-4 4 4-4ZM511 512a.997.997 0 0 0 1 1 .997.997 0 0 0 1-1 .997.997 0 0 0-1-1 .997.997 0 0 0-1 1ZM511 572a.997.997 0 0 0 1 1 .997.997 0 0 0 1-1 .997.997 0 0 0-1-1 .997.997 0 0 0-1 1ZM518 626l-12 12 12-12ZM518 686l-12 12 12-12ZM578 26l-12 12 12-12ZM569 92a2.999 2.999 0 0 0 5.121 2.121 2.999 2.999 0 1 0-4.242-4.242A2.999 2.999 0 0 0 569 92ZM567 152c0 1.326.527 2.598 1.464 3.536a5.004 5.004 0 0 0 7.072 0 5.004 5.004 0 0 0 0-7.072 5.004 5.004 0 0 0-7.072 0A5.004 5.004 0 0 0 567 152ZM567 212c0 1.326.527 2.598 1.464 3.536a5.004 5.004 0 0 0 7.072 0 5.004 5.004 0 0 0 0-7.072 5.004 5.004 0 0 0-7.072 0A5.004 5.004 0 0 0 567 212ZM569 272c0 .796.316 1.559.879 2.121a2.996 2.996 0 0 0 4.242 0 2.996 2.996 0 0 0 0-4.242 2.996 2.996 0 0 0-4.242 0A2.996 2.996 0 0 0 569 272ZM578 326l-12 12 12-12ZM578 386l-12 12 12-12ZM574 450l-4 4 4-4ZM574 510l-4 4 4-4ZM578 566l-12 12 12-12ZM578 626l-12 12 12-12ZM569 692c0 .796.316 1.559.879 2.121a2.996 2.996 0 0 0 4.242 0 2.996 2.996 0 0 0 0-4.242 2.996 2.996 0 0 0-4.242 0A2.996 2.996 0 0 0 569 692ZM631 32a.998.998 0 0 0 1 1 1 1 0 1 0-1-1ZM631 92a.998.998 0 0 0 1 1 1 1 0 1 0-1-1Z"/><path stroke="#407BFF" stroke-width="3" d="m662 122-60 60 60-60Z"/><path stroke="#407BFF" d="m638 206-12 12 12-12ZM638 266l-12 12 12-12ZM638 326l-12 12 12-12ZM638 386l-12 12 12-12Z"/><path stroke="#407BFF" stroke-width="3" d="m662 422-60 60 60-60Z"/><path stroke="#407BFF" d="m634 510-4 4 4-4ZM627 572c0 1.326.527 2.598 1.464 3.536a5.004 5.004 0 0 0 7.072 0 5.004 5.004 0 0 0 0-7.072 5.004 5.004 0 0 0-7.072 0A5.004 5.004 0 0 0 627 572ZM638 626l-12 12 12-12ZM627 692c0 1.326.527 2.598 1.464 3.536a5.004 5.004 0 0 0 7.072 0 5.004 5.004 0 0 0 0-7.072 5.004 5.004 0 0 0-7.072 0A5.004 5.004 0 0 0 627 692ZM687 32a5.002 5.002 0 0 0 5 5 5.002 5.002 0 0 0 3.536-8.535A5.002 5.002 0 0 0 687 32ZM698 86l-12 12 12-12ZM689 152c0 .796.316 1.559.879 2.121a2.996 2.996 0 0 0 4.242 0 2.996 2.996 0 0 0 0-4.242 2.996 2.996 0 0 0-4.242 0A2.996 2.996 0 0 0 689 152ZM694 210l-4 4 4-4ZM698 266l-12 12 12-12ZM687 332c0 1.326.527 2.598 1.464 3.536a5.004 5.004 0 0 0 7.072 0 5.004 5.004 0 0 0 0-7.072 5.004 5.004 0 0 0-7.072 0A5.004 5.004 0 0 0 687 332ZM687 392c0 1.326.527 2.598 1.464 3.536a5.004 5.004 0 0 0 7.072 0 5.004 5.004 0 0 0 0-7.072 5.004 5.004 0 0 0-7.072 0A5.004 5.004 0 0 0 687 392ZM687 452c0 1.326.527 2.598 1.464 3.536a5.004 5.004 0 0 0 7.072 0 5.004 5.004 0 0 0 0-7.072 5.004 5.004 0 0 0-7.072 0A5.004 5.004 0 0 0 687 452Z"/><path stroke="#407BFF" stroke-width="3" d="m722 482-60 60 60-60Z"/><path stroke="#407BFF" d="M687 572c0 1.326.527 2.598 1.464 3.536a5.004 5.004 0 0 0 7.072 0 5.004 5.004 0 0 0 0-7.072 5.004 5.004 0 0 0-7.072 0A5.004 5.004 0 0 0 687 572ZM691 632a.997.997 0 0 0 1 1 .997.997 0 0 0 1-1 .997.997 0 0 0-1-1 .997.997 0 0 0-1 1ZM694 690l-4 4 4-4ZM27 752a5.002 5.002 0 0 0 8.535 3.536A5.002 5.002 0 0 0 32 747a5.002 5.002 0 0 0-5 5ZM31 812a1 1 0 1 0 1.999 0A1 1 0 0 0 31 812ZM38 866l-12 12 12-12ZM38 926l-12 12 12-12ZM38 986l-12 12 12-12ZM34 1050l-4 4 4-4ZM38 1106l-12 12 12-12Z"/><path stroke="#407BFF" stroke-width="3" d="m62 1142-60 60 60-60Z"/><path stroke="#407BFF" d="m38 1226-12 12 12-12ZM34 1290l-4 4 4-4ZM34 1350l-4 4 4-4ZM38 1406l-12 12 12-12ZM91 752a1 1 0 1 0 1.999 0A1 1 0 0 0 91 752ZM87 812a5.002 5.002 0 0 0 8.535 3.536A5.002 5.002 0 0 0 92 807a5.002 5.002 0 0 0-5 5ZM87 872a5.002 5.002 0 0 0 8.535 3.536A5.002 5.002 0 0 0 92 867a5.002 5.002 0 0 0-5 5ZM94 930l-4 4 4-4ZM98 986l-12 12 12-12ZM87 1052c0 1.33.527 2.6 1.465 3.54.937.93 2.209 1.46 3.535 1.46s2.598-.53 3.535-1.46a5.008 5.008 0 0 0 0-7.08A5.028 5.028 0 0 0 92 1047c-1.326 0-2.598.53-3.535 1.46A5.008 5.008 0 0 0 87 1052ZM98 1106l-12 12 12-12ZM94 1170l-4 4 4-4ZM87 1232c0 1.33.527 2.6 1.465 3.54.937.93 2.209 1.46 3.535 1.46s2.598-.53 3.535-1.46a5.008 5.008 0 0 0 0-7.08A5.028 5.028 0 0 0 92 1227c-1.326 0-2.598.53-3.535 1.46A5.008 5.008 0 0 0 87 1232Z"/><path stroke="#407BFF" stroke-width="3" d="m122 1262-60 60 60-60Z"/><path stroke="#407BFF" d="M87 1352c0 1.33.527 2.6 1.465 3.54.937.93 2.209 1.46 3.535 1.46s2.598-.53 3.535-1.46a5.008 5.008 0 0 0 0-7.08A5.028 5.028 0 0 0 92 1347c-1.326 0-2.598.53-3.535 1.46A5.008 5.008 0 0 0 87 1352ZM89 1412c0 .8.316 1.56.879 2.12.562.56 1.325.88 2.121.88s1.559-.32 2.121-.88c.563-.56.879-1.32.879-2.12s-.316-1.56-.879-2.12A3.012 3.012 0 0 0 92 1409c-.796 0-1.559.32-2.121.88A2.985 2.985 0 0 0 89 1412ZM158 746l-12 12 12-12ZM154 810l-4 4 4-4Z"/><path stroke="#407BFF" stroke-width="3" d="m182 842-60 60 60-60ZM182 902l-60 60 60-60Z"/><path stroke="#407BFF" d="m154 990-4 4 4-4ZM151 1052a1 1 0 0 0 .293.71c.187.18.442.29.707.29.265 0 .52-.11.707-.29a1 1 0 0 0 .293-.71 1 1 0 0 0-.293-.71 1.03 1.03 0 0 0-.707-.29c-.265 0-.52.11-.707.29a1 1 0 0 0-.293.71Z"/><path stroke="#407BFF" stroke-width="3" d="m182 1082-60 60 60-60Z"/><path stroke="#407BFF" d="m158 1166-12 12 12-12ZM154 1230l-4 4 4-4ZM149 1292c0 .8.316 1.56.879 2.12a3.01 3.01 0 0 0 2.121.88 3.01 3.01 0 0 0 2.121-.88c.563-.56.879-1.32.879-2.12s-.316-1.56-.879-2.12A3.01 3.01 0 0 0 152 1289a3.01 3.01 0 0 0-2.121.88A2.984 2.984 0 0 0 149 1292ZM158 1346l-12 12 12-12ZM158 1406l-12 12 12-12ZM207 752c0 1.326.527 2.598 1.464 3.536a5.004 5.004 0 0 0 7.072 0 5.004 5.004 0 0 0 0-7.072 5.004 5.004 0 0 0-7.072 0A5.004 5.004 0 0 0 207 752ZM214 810l-4 4 4-4ZM207 872c0 1.326.527 2.598 1.464 3.536a5.004 5.004 0 0 0 7.072 0 5.004 5.004 0 0 0 0-7.072 5.004 5.004 0 0 0-7.072 0A5.004 5.004 0 0 0 207 872ZM218 926l-12 12 12-12ZM218 986l-12 12 12-12ZM207 1052c0 1.33.527 2.6 1.464 3.54A5.03 5.03 0 0 0 212 1057a5.03 5.03 0 0 0 3.536-1.46 5.01 5.01 0 0 0 0-7.08A5.03 5.03 0 0 0 212 1047a5.03 5.03 0 0 0-3.536 1.46A5.01 5.01 0 0 0 207 1052ZM218 1106l-12 12 12-12ZM214 1170l-4 4 4-4ZM218 1226l-12 12 12-12ZM218 1286l-12 12 12-12ZM207 1352c0 1.33.527 2.6 1.464 3.54A5.03 5.03 0 0 0 212 1357a5.03 5.03 0 0 0 3.536-1.46 5.01 5.01 0 0 0 0-7.08A5.03 5.03 0 0 0 212 1347a5.03 5.03 0 0 0-3.536 1.46A5.01 5.01 0 0 0 207 1352ZM211 1412a1 1 0 0 0 .293.71c.187.18.442.29.707.29.265 0 .52-.11.707-.29a1 1 0 0 0 .293-.71 1 1 0 0 0-.293-.71 1.03 1.03 0 0 0-.707-.29c-.265 0-.52.11-.707.29a1 1 0 0 0-.293.71ZM267 752c0 1.326.527 2.598 1.464 3.536a5.004 5.004 0 0 0 7.072 0 5.004 5.004 0 0 0 0-7.072 5.004 5.004 0 0 0-7.072 0A5.004 5.004 0 0 0 267 752ZM278 806l-12 12 12-12Z"/><path stroke="#407BFF" stroke-width="3" d="m302 842-60 60 60-60Z"/><path stroke="#407BFF" d="M267 932c0 1.326.527 2.598 1.464 3.536a5.004 5.004 0 0 0 7.072 0 5.004 5.004 0 0 0 0-7.072 5.004 5.004 0 0 0-7.072 0A5.004 5.004 0 0 0 267 932Z"/><path stroke="#407BFF" stroke-width="3" d="m302 962-60 60 60-60Z"/><path stroke="#407BFF" d="M267 1052c0 1.33.527 2.6 1.464 3.54A5.03 5.03 0 0 0 272 1057a5.03 5.03 0 0 0 3.536-1.46 5.01 5.01 0 0 0 0-7.08A5.03 5.03 0 0 0 272 1047a5.03 5.03 0 0 0-3.536 1.46A5.01 5.01 0 0 0 267 1052ZM267 1112c0 1.33.527 2.6 1.464 3.54A5.03 5.03 0 0 0 272 1117a5.03 5.03 0 0 0 3.536-1.46 5.01 5.01 0 0 0 0-7.08A5.03 5.03 0 0 0 272 1107a5.03 5.03 0 0 0-3.536 1.46A5.01 5.01 0 0 0 267 1112ZM274 1170l-4 4 4-4ZM274 1230l-4 4 4-4ZM267 1292c0 1.33.527 2.6 1.464 3.54A5.03 5.03 0 0 0 272 1297a5.03 5.03 0 0 0 3.536-1.46 5.01 5.01 0 0 0 0-7.08A5.03 5.03 0 0 0 272 1287a5.03 5.03 0 0 0-3.536 1.46A5.01 5.01 0 0 0 267 1292ZM271 1352a1 1 0 0 0 .293.71c.187.18.442.29.707.29.265 0 .52-.11.707-.29a1 1 0 0 0 .293-.71 1 1 0 0 0-.293-.71 1.03 1.03 0 0 0-.707-.29c-.265 0-.52.11-.707.29a1 1 0 0 0-.293.71ZM278 1406l-12 12 12-12Z"/><path stroke="#407BFF" stroke-width="3" d="m362 722-60 60 60-60Z"/><path stroke="#407BFF" d="m338 806-12 12 12-12ZM338 866l-12 12 12-12ZM327 932c0 1.326.527 2.598 1.464 3.536a5.004 5.004 0 0 0 7.072 0 5.004 5.004 0 0 0 0-7.072 5.004 5.004 0 0 0-7.072 0A5.004 5.004 0 0 0 327 932ZM327 992c0 1.326.527 2.598 1.464 3.536a5.004 5.004 0 0 0 7.072 0 5.004 5.004 0 0 0 0-7.072 5.004 5.004 0 0 0-7.072 0A5.004 5.004 0 0 0 327 992ZM327 1052c0 1.33.527 2.6 1.464 3.54A5.03 5.03 0 0 0 332 1057a5.03 5.03 0 0 0 3.536-1.46 5.01 5.01 0 0 0 0-7.08A5.03 5.03 0 0 0 332 1047a5.03 5.03 0 0 0-3.536 1.46A5.01 5.01 0 0 0 327 1052ZM338 1106l-12 12 12-12ZM334 1170l-4 4 4-4ZM338 1226l-12 12 12-12ZM329 1292c0 .8.316 1.56.879 2.12a3.01 3.01 0 0 0 2.121.88 3.01 3.01 0 0 0 2.121-.88c.563-.56.879-1.32.879-2.12s-.316-1.56-.879-2.12A3.01 3.01 0 0 0 332 1289a3.01 3.01 0 0 0-2.121.88A2.984 2.984 0 0 0 329 1292ZM329 1352c0 .8.316 1.56.879 2.12a3.01 3.01 0 0 0 2.121.88 3.01 3.01 0 0 0 2.121-.88c.563-.56.879-1.32.879-2.12s-.316-1.56-.879-2.12A3.01 3.01 0 0 0 332 1349a3.01 3.01 0 0 0-2.121.88A2.984 2.984 0 0 0 329 1352ZM327 1412c0 1.33.527 2.6 1.464 3.54A5.03 5.03 0 0 0 332 1417a5.03 5.03 0 0 0 3.536-1.46 5.01 5.01 0 0 0 0-7.08A5.03 5.03 0 0 0 332 1407a5.03 5.03 0 0 0-3.536 1.46A5.01 5.01 0 0 0 327 1412ZM387 752c0 1.326.527 2.598 1.464 3.536a5.004 5.004 0 0 0 7.072 0 5.004 5.004 0 0 0 0-7.072 5.004 5.004 0 0 0-7.072 0A5.004 5.004 0 0 0 387 752ZM389 812c0 .796.316 1.559.879 2.121a2.996 2.996 0 0 0 4.242 0 2.996 2.996 0 0 0 0-4.242 2.996 2.996 0 0 0-4.242 0A2.996 2.996 0 0 0 389 812ZM398 866l-12 12 12-12ZM394 930l-4 4 4-4ZM387 992c0 1.326.527 2.598 1.464 3.536a5.004 5.004 0 0 0 7.072 0 5.004 5.004 0 0 0 0-7.072 5.004 5.004 0 0 0-7.072 0A5.004 5.004 0 0 0 387 992ZM394 1050l-4 4 4-4ZM391 1112a1 1 0 0 0 .293.71c.187.18.442.29.707.29.265 0 .52-.11.707-.29a1 1 0 0 0 .293-.71 1 1 0 0 0-.293-.71 1.03 1.03 0 0 0-.707-.29c-.265 0-.52.11-.707.29a1 1 0 0 0-.293.71ZM387 1172c0 1.33.527 2.6 1.464 3.54A5.03 5.03 0 0 0 392 1177a5.03 5.03 0 0 0 3.536-1.46 5.01 5.01 0 0 0 0-7.08A5.03 5.03 0 0 0 392 1167a5.03 5.03 0 0 0-3.536 1.46A5.01 5.01 0 0 0 387 1172ZM391 1232a1 1 0 0 0 .293.71c.187.18.442.29.707.29.265 0 .52-.11.707-.29a1 1 0 0 0 .293-.71 1 1 0 0 0-.293-.71 1.03 1.03 0 0 0-.707-.29c-.265 0-.52.11-.707.29a1 1 0 0 0-.293.71ZM389 1292c0 .8.316 1.56.879 2.12a3.01 3.01 0 0 0 2.121.88 3.01 3.01 0 0 0 2.121-.88c.563-.56.879-1.32.879-2.12s-.316-1.56-.879-2.12A3.01 3.01 0 0 0 392 1289a3.01 3.01 0 0 0-2.121.88A2.984 2.984 0 0 0 389 1292ZM389 1352c0 .8.316 1.56.879 2.12a3.01 3.01 0 0 0 2.121.88 3.01 3.01 0 0 0 2.121-.88c.563-.56.879-1.32.879-2.12s-.316-1.56-.879-2.12A3.01 3.01 0 0 0 392 1349a3.01 3.01 0 0 0-2.121.88A2.984 2.984 0 0 0 389 1352ZM389 1412c0 .8.316 1.56.879 2.12a3.01 3.01 0 0 0 2.121.88 3.01 3.01 0 0 0 2.121-.88c.563-.56.879-1.32.879-2.12s-.316-1.56-.879-2.12A3.01 3.01 0 0 0 392 1409a3.01 3.01 0 0 0-2.121.88A2.984 2.984 0 0 0 389 1412ZM451 752a.997.997 0 0 0 1 1 .997.997 0 0 0 1-1 .997.997 0 0 0-1-1 .997.997 0 0 0-1 1ZM447 812c0 1.326.527 2.598 1.464 3.536a5.004 5.004 0 0 0 7.072 0 5.004 5.004 0 0 0 0-7.072 5.004 5.004 0 0 0-7.072 0A5.004 5.004 0 0 0 447 812ZM447 872c0 1.326.527 2.598 1.464 3.536a5.004 5.004 0 0 0 7.072 0 5.004 5.004 0 0 0 0-7.072 5.004 5.004 0 0 0-7.072 0A5.004 5.004 0 0 0 447 872ZM447 932c0 1.326.527 2.598 1.464 3.536a5.004 5.004 0 0 0 7.072 0 5.004 5.004 0 0 0 0-7.072 5.004 5.004 0 0 0-7.072 0A5.004 5.004 0 0 0 447 932Z"/><path stroke="#407BFF" stroke-width="3" d="m482 962-60 60 60-60Z"/><path stroke="#407BFF" d="M447 1052c0 1.33.527 2.6 1.464 3.54A5.03 5.03 0 0 0 452 1057a5.03 5.03 0 0 0 3.536-1.46 5.01 5.01 0 0 0 0-7.08A5.03 5.03 0 0 0 452 1047a5.03 5.03 0 0 0-3.536 1.46A5.01 5.01 0 0 0 447 1052ZM458 1106l-12 12 12-12ZM447 1172c0 1.33.527 2.6 1.464 3.54A5.03 5.03 0 0 0 452 1177a5.03 5.03 0 0 0 3.536-1.46 5.01 5.01 0 0 0 0-7.08A5.03 5.03 0 0 0 452 1167a5.03 5.03 0 0 0-3.536 1.46A5.01 5.01 0 0 0 447 1172ZM458 1226l-12 12 12-12ZM458 1286l-12 12 12-12ZM447 1352c0 1.33.527 2.6 1.464 3.54A5.03 5.03 0 0 0 452 1357a5.03 5.03 0 0 0 3.536-1.46 5.01 5.01 0 0 0 0-7.08A5.03 5.03 0 0 0 452 1347a5.03 5.03 0 0 0-3.536 1.46A5.01 5.01 0 0 0 447 1352ZM458 1406l-12 12 12-12ZM507 752c0 1.326.527 2.598 1.464 3.536a5.004 5.004 0 0 0 7.072 0 5.004 5.004 0 0 0 0-7.072 5.004 5.004 0 0 0-7.072 0A5.004 5.004 0 0 0 507 752ZM507 812c0 1.326.527 2.598 1.464 3.536a5.004 5.004 0 0 0 7.072 0 5.004 5.004 0 0 0 0-7.072 5.004 5.004 0 0 0-7.072 0A5.004 5.004 0 0 0 507 812ZM507 872c0 1.326.527 2.598 1.464 3.536a5.004 5.004 0 0 0 7.072 0 5.004 5.004 0 0 0 0-7.072 5.004 5.004 0 0 0-7.072 0A5.004 5.004 0 0 0 507 872ZM507 932c0 1.326.527 2.598 1.464 3.536a5.004 5.004 0 0 0 7.072 0 5.004 5.004 0 0 0 0-7.072 5.004 5.004 0 0 0-7.072 0A5.004 5.004 0 0 0 507 932ZM509 992c0 .796.316 1.559.879 2.121a2.996 2.996 0 0 0 4.242 0 2.996 2.996 0 0 0 0-4.242 2.996 2.996 0 0 0-4.242 0A2.996 2.996 0 0 0 509 992ZM511 1052a1 1 0 0 0 .293.71c.187.18.442.29.707.29.265 0 .52-.11.707-.29a1 1 0 0 0 .293-.71 1 1 0 0 0-.293-.71 1.03 1.03 0 0 0-.707-.29c-.265 0-.52.11-.707.29a1 1 0 0 0-.293.71Z"/><path stroke="#407BFF" stroke-width="3" d="m542 1082-60 60 60-60Z"/><path stroke="#407BFF" d="m514 1170-4 4 4-4ZM511 1232a1 1 0 0 0 .293.71c.187.18.442.29.707.29.265 0 .52-.11.707-.29a1 1 0 0 0 .293-.71 1 1 0 0 0-.293-.71 1.03 1.03 0 0 0-.707-.29c-.265 0-.52.11-.707.29a1 1 0 0 0-.293.71ZM511 1292a1 1 0 0 0 .293.71c.187.18.442.29.707.29.265 0 .52-.11.707-.29a1 1 0 0 0 .293-.71 1 1 0 0 0-.293-.71 1.03 1.03 0 0 0-.707-.29c-.265 0-.52.11-.707.29a1 1 0 0 0-.293.71ZM518 1346l-12 12 12-12ZM518 1406l-12 12 12-12ZM578 746l-12 12 12-12ZM569 812c0 .796.316 1.559.879 2.121a2.996 2.996 0 0 0 4.242 0 2.996 2.996 0 0 0 0-4.242 2.996 2.996 0 0 0-4.242 0A2.996 2.996 0 0 0 569 812ZM567 872c0 1.326.527 2.598 1.464 3.536a5.004 5.004 0 0 0 7.072 0 5.004 5.004 0 0 0 0-7.072 5.004 5.004 0 0 0-7.072 0A5.004 5.004 0 0 0 567 872ZM567 932c0 1.326.527 2.598 1.464 3.536a5.004 5.004 0 0 0 7.072 0 5.004 5.004 0 0 0 0-7.072 5.004 5.004 0 0 0-7.072 0A5.004 5.004 0 0 0 567 932ZM569 992c0 .796.316 1.559.879 2.121a2.996 2.996 0 0 0 4.242 0 2.996 2.996 0 0 0 0-4.242 2.996 2.996 0 0 0-4.242 0A2.996 2.996 0 0 0 569 992ZM578 1046l-12 12 12-12ZM578 1106l-12 12 12-12ZM574 1170l-4 4 4-4ZM574 1230l-4 4 4-4ZM578 1286l-12 12 12-12ZM578 1346l-12 12 12-12ZM569 1412c0 .8.316 1.56.879 2.12a3.01 3.01 0 0 0 2.121.88 3.01 3.01 0 0 0 2.121-.88c.563-.56.879-1.32.879-2.12s-.316-1.56-.879-2.12A3.01 3.01 0 0 0 572 1409a3.01 3.01 0 0 0-2.121.88A2.984 2.984 0 0 0 569 1412ZM631 752a.997.997 0 0 0 1 1 .997.997 0 0 0 1-1 .997.997 0 0 0-1-1 .997.997 0 0 0-1 1ZM631 812a.997.997 0 0 0 1 1 .997.997 0 0 0 1-1 .997.997 0 0 0-1-1 .997.997 0 0 0-1 1Z"/><path stroke="#407BFF" stroke-width="3" d="m662 842-60 60 60-60Z"/><path stroke="#407BFF" d="m638 926-12 12 12-12ZM638 986l-12 12 12-12ZM638 1046l-12 12 12-12ZM638 1106l-12 12 12-12Z"/><path stroke="#407BFF" stroke-width="3" d="m662 1142-60 60 60-60Z"/><path stroke="#407BFF" d="m634 1230-4 4 4-4ZM627 1292c0 1.33.527 2.6 1.464 3.54A5.03 5.03 0 0 0 632 1297a5.03 5.03 0 0 0 3.536-1.46 5.01 5.01 0 0 0 0-7.08A5.03 5.03 0 0 0 632 1287a5.03 5.03 0 0 0-3.536 1.46A5.01 5.01 0 0 0 627 1292ZM638 1346l-12 12 12-12ZM627 1412c0 1.33.527 2.6 1.464 3.54A5.03 5.03 0 0 0 632 1417a5.03 5.03 0 0 0 3.536-1.46 5.01 5.01 0 0 0 0-7.08A5.03 5.03 0 0 0 632 1407a5.03 5.03 0 0 0-3.536 1.46A5.01 5.01 0 0 0 627 1412ZM687 752c0 1.326.527 2.598 1.464 3.536a5.004 5.004 0 0 0 7.072 0 5.004 5.004 0 0 0 0-7.072 5.004 5.004 0 0 0-7.072 0A5.004 5.004 0 0 0 687 752ZM698 806l-12 12 12-12ZM689 872c0 .796.316 1.559.879 2.121a2.996 2.996 0 0 0 4.242 0 2.996 2.996 0 0 0 0-4.242 2.996 2.996 0 0 0-4.242 0A2.996 2.996 0 0 0 689 872ZM694 930l-4 4 4-4ZM698 986l-12 12 12-12ZM687 1052c0 1.33.527 2.6 1.464 3.54A5.03 5.03 0 0 0 692 1057a5.03 5.03 0 0 0 3.536-1.46 5.01 5.01 0 0 0 0-7.08A5.03 5.03 0 0 0 692 1047a5.03 5.03 0 0 0-3.536 1.46A5.01 5.01 0 0 0 687 1052ZM687 1112c0 1.33.527 2.6 1.464 3.54A5.03 5.03 0 0 0 692 1117a5.03 5.03 0 0 0 3.536-1.46 5.01 5.01 0 0 0 0-7.08A5.03 5.03 0 0 0 692 1107a5.03 5.03 0 0 0-3.536 1.46A5.01 5.01 0 0 0 687 1112ZM687 1172c0 1.33.527 2.6 1.464 3.54A5.03 5.03 0 0 0 692 1177a5.03 5.03 0 0 0 3.536-1.46 5.01 5.01 0 0 0 0-7.08A5.03 5.03 0 0 0 692 1167a5.03 5.03 0 0 0-3.536 1.46A5.01 5.01 0 0 0 687 1172Z"/><path stroke="#407BFF" stroke-width="3" d="m722 1202-60 60 60-60Z"/><path stroke="#407BFF" d="M687 1292c0 1.33.527 2.6 1.464 3.54A5.03 5.03 0 0 0 692 1297a5.03 5.03 0 0 0 3.536-1.46 5.01 5.01 0 0 0 0-7.08A5.03 5.03 0 0 0 692 1287a5.03 5.03 0 0 0-3.536 1.46A5.01 5.01 0 0 0 687 1292ZM691 1352a1 1 0 0 0 .293.71c.187.18.442.29.707.29.265 0 .52-.11.707-.29a1 1 0 0 0 .293-.71 1 1 0 0 0-.293-.71 1.03 1.03 0 0 0-.707-.29c-.265 0-.52.11-.707.29a1 1 0 0 0-.293.71ZM694 1410l-4 4 4-4ZM747 32a5.002 5.002 0 0 0 5 5 5.002 5.002 0 0 0 3.536-8.535A5.002 5.002 0 0 0 747 32ZM751 92a.998.998 0 0 0 1 1 1 1 0 1 0-1-1ZM758 146l-12 12 12-12ZM758 206l-12 12 12-12ZM758 266l-12 12 12-12ZM754 330l-4 4 4-4ZM758 386l-12 12 12-12Z"/><path stroke="#407BFF" stroke-width="3" d="m782 422-60 60 60-60Z"/><path stroke="#407BFF" d="m758 506-12 12 12-12ZM754 570l-4 4 4-4ZM754 630l-4 4 4-4ZM758 686l-12 12 12-12ZM811 32a.998.998 0 0 0 1 1 1 1 0 1 0-1-1ZM807 92a5.002 5.002 0 0 0 5 5 5.002 5.002 0 0 0 3.536-8.535A5.002 5.002 0 0 0 807 92ZM807 152c0 1.326.527 2.598 1.464 3.536a5.004 5.004 0 0 0 7.072 0 5.004 5.004 0 0 0 0-7.072 5.004 5.004 0 0 0-7.072 0A5.004 5.004 0 0 0 807 152ZM814 210l-4 4 4-4ZM818 266l-12 12 12-12ZM807 332c0 1.326.527 2.598 1.464 3.536a5.004 5.004 0 0 0 7.072 0 5.004 5.004 0 0 0 0-7.072 5.004 5.004 0 0 0-7.072 0A5.004 5.004 0 0 0 807 332ZM818 386l-12 12 12-12ZM814 450l-4 4 4-4ZM807 512c0 1.326.527 2.598 1.464 3.536a5.004 5.004 0 0 0 7.072 0 5.004 5.004 0 0 0 0-7.072 5.004 5.004 0 0 0-7.072 0A5.004 5.004 0 0 0 807 512Z"/><path stroke="#407BFF" stroke-width="3" d="m842 542-60 60 60-60Z"/><path stroke="#407BFF" d="M807 632c0 1.326.527 2.598 1.464 3.536a5.004 5.004 0 0 0 7.072 0 5.004 5.004 0 0 0 0-7.072 5.004 5.004 0 0 0-7.072 0A5.004 5.004 0 0 0 807 632ZM809 692c0 .796.316 1.559.879 2.121a2.996 2.996 0 0 0 4.242 0 2.996 2.996 0 0 0 0-4.242 2.996 2.996 0 0 0-4.242 0A2.996 2.996 0 0 0 809 692ZM878 26l-12 12 12-12ZM874 90l-4 4 4-4Z"/><path stroke="#407BFF" stroke-width="3" d="m902 122-60 60 60-60ZM902 182l-60 60 60-60Z"/><path stroke="#407BFF" d="m874 270-4 4 4-4ZM871 332a.997.997 0 0 0 1 1 .997.997 0 0 0 1-1 .997.997 0 0 0-1-1 .997.997 0 0 0-1 1Z"/><path stroke="#407BFF" stroke-width="3" d="m902 362-60 60 60-60Z"/><path stroke="#407BFF" d="m878 446-12 12 12-12ZM874 510l-4 4 4-4ZM869 572c0 .796.316 1.559.879 2.121a2.996 2.996 0 0 0 4.242 0 2.996 2.996 0 0 0 0-4.242 2.996 2.996 0 0 0-4.242 0A2.996 2.996 0 0 0 869 572ZM878 626l-12 12 12-12ZM878 686l-12 12 12-12ZM927 32a5.002 5.002 0 0 0 5 5 5.002 5.002 0 0 0 3.536-8.535A5.002 5.002 0 0 0 927 32ZM934 90l-4 4 4-4ZM927 152c0 1.326.527 2.598 1.464 3.536a5.004 5.004 0 0 0 7.072 0 5.004 5.004 0 0 0 0-7.072 5.004 5.004 0 0 0-7.072 0A5.004 5.004 0 0 0 927 152ZM938 206l-12 12 12-12ZM938 266l-12 12 12-12ZM927 332c0 1.326.527 2.598 1.464 3.536a5.004 5.004 0 0 0 7.072 0 5.004 5.004 0 0 0 0-7.072 5.004 5.004 0 0 0-7.072 0A5.004 5.004 0 0 0 927 332ZM938 386l-12 12 12-12ZM934 450l-4 4 4-4ZM938 506l-12 12 12-12ZM938 566l-12 12 12-12ZM927 632c0 1.326.527 2.598 1.464 3.536a5.004 5.004 0 0 0 7.072 0 5.004 5.004 0 0 0 0-7.072 5.004 5.004 0 0 0-7.072 0A5.004 5.004 0 0 0 927 632ZM931 692a.997.997 0 0 0 1 1 .997.997 0 0 0 1-1 .997.997 0 0 0-1-1 .997.997 0 0 0-1 1ZM987 32a5.002 5.002 0 0 0 5 5 5.002 5.002 0 0 0 3.536-8.535A5.002 5.002 0 0 0 987 32ZM998 86l-12 12 12-12Z"/><path stroke="#407BFF" stroke-width="3" d="m1022 122-60 60 60-60Z"/><path stroke="#407BFF" d="M987 212c0 1.326.527 2.598 1.464 3.536a5.004 5.004 0 0 0 7.072 0 5.004 5.004 0 0 0 0-7.072 5.004 5.004 0 0 0-7.072 0A5.004 5.004 0 0 0 987 212Z"/><path stroke="#407BFF" stroke-width="3" d="m1022 242-60 60 60-60Z"/><path stroke="#407BFF" d="M987 332c0 1.326.527 2.598 1.464 3.536a5.004 5.004 0 0 0 7.072 0 5.004 5.004 0 0 0 0-7.072 5.004 5.004 0 0 0-7.072 0A5.004 5.004 0 0 0 987 332ZM987 392c0 1.326.527 2.598 1.464 3.536a5.004 5.004 0 0 0 7.072 0 5.004 5.004 0 0 0 0-7.072 5.004 5.004 0 0 0-7.072 0A5.004 5.004 0 0 0 987 392ZM994 450l-4 4 4-4ZM994 510l-4 4 4-4ZM987 572c0 1.326.527 2.598 1.464 3.536a5.004 5.004 0 0 0 7.072 0 5.004 5.004 0 0 0 0-7.072 5.004 5.004 0 0 0-7.072 0A5.004 5.004 0 0 0 987 572ZM991 632a.997.997 0 0 0 1 1 .997.997 0 0 0 1-1 .997.997 0 0 0-1-1 .997.997 0 0 0-1 1ZM998 686l-12 12 12-12Z"/><path stroke="#407BFF" stroke-width="3" d="m1082 2-60 60 60-60Z"/><path stroke="#407BFF" d="m1058 86-12 12 12-12ZM1058 146l-12 12 12-12ZM1047 212a5.03 5.03 0 0 0 1.46 3.536 5.01 5.01 0 0 0 7.08 0A5.03 5.03 0 0 0 1057 212a5.03 5.03 0 0 0-1.46-3.536 5.01 5.01 0 0 0-7.08 0A5.03 5.03 0 0 0 1047 212ZM1047 272a5.03 5.03 0 0 0 1.46 3.536 5.01 5.01 0 0 0 7.08 0A5.03 5.03 0 0 0 1057 272a5.03 5.03 0 0 0-1.46-3.536 5.01 5.01 0 0 0-7.08 0A5.03 5.03 0 0 0 1047 272ZM1047 332a5.03 5.03 0 0 0 1.46 3.536 5.01 5.01 0 0 0 7.08 0A5.03 5.03 0 0 0 1057 332a5.03 5.03 0 0 0-1.46-3.536 5.01 5.01 0 0 0-7.08 0A5.03 5.03 0 0 0 1047 332ZM1058 386l-12 12 12-12ZM1054 450l-4 4 4-4ZM1058 506l-12 12 12-12ZM1049 572c0 .796.32 1.559.88 2.121.56.563 1.32.879 2.12.879s1.56-.316 2.12-.879A3.01 3.01 0 0 0 1055 572a3.01 3.01 0 0 0-.88-2.121A2.984 2.984 0 0 0 1052 569c-.8 0-1.56.316-2.12.879A3.01 3.01 0 0 0 1049 572ZM1049 632c0 .796.32 1.559.88 2.121.56.563 1.32.879 2.12.879s1.56-.316 2.12-.879A3.01 3.01 0 0 0 1055 632a3.01 3.01 0 0 0-.88-2.121A2.984 2.984 0 0 0 1052 629c-.8 0-1.56.316-2.12.879A3.01 3.01 0 0 0 1049 632ZM1047 692a5.03 5.03 0 0 0 1.46 3.536 5.01 5.01 0 0 0 7.08 0A5.03 5.03 0 0 0 1057 692a5.03 5.03 0 0 0-1.46-3.536 5.01 5.01 0 0 0-7.08 0A5.03 5.03 0 0 0 1047 692ZM1107 32c0 1.326.53 2.598 1.46 3.535a5.008 5.008 0 0 0 7.08 0A5.028 5.028 0 0 0 1117 32c0-1.326-.53-2.598-1.46-3.535a5.008 5.008 0 0 0-7.08 0A5.028 5.028 0 0 0 1107 32ZM1109 92c0 .796.32 1.559.88 2.121.56.563 1.32.879 2.12.879s1.56-.316 2.12-.879c.56-.562.88-1.325.88-2.121s-.32-1.559-.88-2.121A2.985 2.985 0 0 0 1112 89c-.8 0-1.56.316-2.12.879A3.012 3.012 0 0 0 1109 92ZM1118 146l-12 12 12-12ZM1114 210l-4 4 4-4ZM1107 272a5.03 5.03 0 0 0 1.46 3.536 5.01 5.01 0 0 0 7.08 0A5.03 5.03 0 0 0 1117 272a5.03 5.03 0 0 0-1.46-3.536 5.01 5.01 0 0 0-7.08 0A5.03 5.03 0 0 0 1107 272ZM1114 330l-4 4 4-4ZM1111 392c0 .265.11.52.29.707a1 1 0 0 0 .71.293 1 1 0 0 0 .71-.293c.18-.187.29-.442.29-.707 0-.265-.11-.52-.29-.707a1 1 0 0 0-.71-.293 1 1 0 0 0-.71.293 1.03 1.03 0 0 0-.29.707ZM1107 452a5.03 5.03 0 0 0 1.46 3.536 5.01 5.01 0 0 0 7.08 0A5.03 5.03 0 0 0 1117 452a5.03 5.03 0 0 0-1.46-3.536 5.01 5.01 0 0 0-7.08 0A5.03 5.03 0 0 0 1107 452ZM1111 512c0 .265.11.52.29.707a1 1 0 0 0 .71.293 1 1 0 0 0 .71-.293c.18-.187.29-.442.29-.707 0-.265-.11-.52-.29-.707a1 1 0 0 0-.71-.293 1 1 0 0 0-.71.293 1.03 1.03 0 0 0-.29.707ZM1109 572c0 .796.32 1.559.88 2.121.56.563 1.32.879 2.12.879s1.56-.316 2.12-.879A3.01 3.01 0 0 0 1115 572a3.01 3.01 0 0 0-.88-2.121A2.984 2.984 0 0 0 1112 569c-.8 0-1.56.316-2.12.879A3.01 3.01 0 0 0 1109 572ZM1109 632c0 .796.32 1.559.88 2.121.56.563 1.32.879 2.12.879s1.56-.316 2.12-.879A3.01 3.01 0 0 0 1115 632a3.01 3.01 0 0 0-.88-2.121A2.984 2.984 0 0 0 1112 629c-.8 0-1.56.316-2.12.879A3.01 3.01 0 0 0 1109 632ZM1109 692c0 .796.32 1.559.88 2.121.56.563 1.32.879 2.12.879s1.56-.316 2.12-.879A3.01 3.01 0 0 0 1115 692a3.01 3.01 0 0 0-.88-2.121A2.984 2.984 0 0 0 1112 689c-.8 0-1.56.316-2.12.879A3.01 3.01 0 0 0 1109 692ZM1171 32c0 .265.11.52.29.707A1.003 1.003 0 0 0 1173 32c0-.265-.11-.52-.29-.707A1.003 1.003 0 0 0 1171 32ZM1167 92c0 1.326.53 2.598 1.46 3.535a5.008 5.008 0 0 0 7.08 0A5.028 5.028 0 0 0 1177 92c0-1.326-.53-2.598-1.46-3.535a5.008 5.008 0 0 0-7.08 0A5.028 5.028 0 0 0 1167 92ZM1167 152a5.03 5.03 0 0 0 1.46 3.536 5.01 5.01 0 0 0 7.08 0A5.03 5.03 0 0 0 1177 152a5.03 5.03 0 0 0-1.46-3.536 5.01 5.01 0 0 0-7.08 0A5.03 5.03 0 0 0 1167 152ZM1167 212a5.03 5.03 0 0 0 1.46 3.536 5.01 5.01 0 0 0 7.08 0A5.03 5.03 0 0 0 1177 212a5.03 5.03 0 0 0-1.46-3.536 5.01 5.01 0 0 0-7.08 0A5.03 5.03 0 0 0 1167 212Z"/><path stroke="#407BFF" stroke-width="3" d="m1202 242-60 60 60-60Z"/><path stroke="#407BFF" d="M1167 332a5.03 5.03 0 0 0 1.46 3.536 5.01 5.01 0 0 0 7.08 0A5.03 5.03 0 0 0 1177 332a5.03 5.03 0 0 0-1.46-3.536 5.01 5.01 0 0 0-7.08 0A5.03 5.03 0 0 0 1167 332ZM1178 386l-12 12 12-12ZM1167 452a5.03 5.03 0 0 0 1.46 3.536 5.01 5.01 0 0 0 7.08 0A5.03 5.03 0 0 0 1177 452a5.03 5.03 0 0 0-1.46-3.536 5.01 5.01 0 0 0-7.08 0A5.03 5.03 0 0 0 1167 452ZM1178 506l-12 12 12-12ZM1178 566l-12 12 12-12ZM1167 632a5.03 5.03 0 0 0 1.46 3.536 5.01 5.01 0 0 0 7.08 0A5.03 5.03 0 0 0 1177 632a5.03 5.03 0 0 0-1.46-3.536 5.01 5.01 0 0 0-7.08 0A5.03 5.03 0 0 0 1167 632ZM1178 686l-12 12 12-12ZM1227 32c0 1.326.53 2.598 1.46 3.535a5.008 5.008 0 0 0 7.08 0A5.028 5.028 0 0 0 1237 32c0-1.326-.53-2.598-1.46-3.535a5.008 5.008 0 0 0-7.08 0A5.028 5.028 0 0 0 1227 32ZM1227 92c0 1.326.53 2.598 1.46 3.535a5.008 5.008 0 0 0 7.08 0A5.028 5.028 0 0 0 1237 92c0-1.326-.53-2.598-1.46-3.535a5.008 5.008 0 0 0-7.08 0A5.028 5.028 0 0 0 1227 92ZM1227 152a5.03 5.03 0 0 0 1.46 3.536 5.01 5.01 0 0 0 7.08 0A5.03 5.03 0 0 0 1237 152a5.03 5.03 0 0 0-1.46-3.536 5.01 5.01 0 0 0-7.08 0A5.03 5.03 0 0 0 1227 152ZM1227 212a5.03 5.03 0 0 0 1.46 3.536 5.01 5.01 0 0 0 7.08 0A5.03 5.03 0 0 0 1237 212a5.03 5.03 0 0 0-1.46-3.536 5.01 5.01 0 0 0-7.08 0A5.03 5.03 0 0 0 1227 212ZM1229 272c0 .796.32 1.559.88 2.121.56.563 1.32.879 2.12.879s1.56-.316 2.12-.879A3.01 3.01 0 0 0 1235 272a3.01 3.01 0 0 0-.88-2.121A2.984 2.984 0 0 0 1232 269c-.8 0-1.56.316-2.12.879A3.01 3.01 0 0 0 1229 272ZM1231 332c0 .265.11.52.29.707a1 1 0 0 0 .71.293 1 1 0 0 0 .71-.293c.18-.187.29-.442.29-.707 0-.265-.11-.52-.29-.707a1 1 0 0 0-.71-.293 1 1 0 0 0-.71.293 1.03 1.03 0 0 0-.29.707Z"/><path stroke="#407BFF" stroke-width="3" d="m1262 362-60 60 60-60Z"/><path stroke="#407BFF" d="m1234 450-4 4 4-4ZM1231 512c0 .265.11.52.29.707a1 1 0 0 0 .71.293 1 1 0 0 0 .71-.293c.18-.187.29-.442.29-.707 0-.265-.11-.52-.29-.707a1 1 0 0 0-.71-.293 1 1 0 0 0-.71.293 1.03 1.03 0 0 0-.29.707ZM1231 572c0 .265.11.52.29.707a1 1 0 0 0 .71.293 1 1 0 0 0 .71-.293c.18-.187.29-.442.29-.707 0-.265-.11-.52-.29-.707a1 1 0 0 0-.71-.293 1 1 0 0 0-.71.293 1.03 1.03 0 0 0-.29.707ZM1238 626l-12 12 12-12ZM1238 686l-12 12 12-12ZM1298 26l-12 12 12-12ZM1289 92c0 .796.32 1.559.88 2.121.56.563 1.32.879 2.12.879s1.56-.316 2.12-.879c.56-.562.88-1.325.88-2.121s-.32-1.559-.88-2.121A2.985 2.985 0 0 0 1292 89c-.8 0-1.56.316-2.12.879A3.012 3.012 0 0 0 1289 92ZM1287 152a5.03 5.03 0 0 0 1.46 3.536 5.01 5.01 0 0 0 7.08 0A5.03 5.03 0 0 0 1297 152a5.03 5.03 0 0 0-1.46-3.536 5.01 5.01 0 0 0-7.08 0A5.03 5.03 0 0 0 1287 152ZM1287 212a5.03 5.03 0 0 0 1.46 3.536 5.01 5.01 0 0 0 7.08 0A5.03 5.03 0 0 0 1297 212a5.03 5.03 0 0 0-1.46-3.536 5.01 5.01 0 0 0-7.08 0A5.03 5.03 0 0 0 1287 212ZM1289 272c0 .796.32 1.559.88 2.121.56.563 1.32.879 2.12.879s1.56-.316 2.12-.879A3.01 3.01 0 0 0 1295 272a3.01 3.01 0 0 0-.88-2.121A2.984 2.984 0 0 0 1292 269c-.8 0-1.56.316-2.12.879A3.01 3.01 0 0 0 1289 272ZM1298 326l-12 12 12-12ZM1298 386l-12 12 12-12ZM1294 450l-4 4 4-4ZM1294 510l-4 4 4-4ZM1298 566l-12 12 12-12ZM1298 626l-12 12 12-12ZM1289 692c0 .796.32 1.559.88 2.121.56.563 1.32.879 2.12.879s1.56-.316 2.12-.879A3.01 3.01 0 0 0 1295 692a3.01 3.01 0 0 0-.88-2.121A2.984 2.984 0 0 0 1292 689c-.8 0-1.56.316-2.12.879A3.01 3.01 0 0 0 1289 692ZM1351 32c0 .265.11.52.29.707A1.003 1.003 0 0 0 1353 32c0-.265-.11-.52-.29-.707A1.003 1.003 0 0 0 1351 32ZM1351 92c0 .265.11.52.29.707A1.003 1.003 0 0 0 1353 92c0-.265-.11-.52-.29-.707A1.003 1.003 0 0 0 1351 92Z"/><path stroke="#407BFF" stroke-width="3" d="m1382 122-60 60 60-60Z"/><path stroke="#407BFF" d="m1358 206-12 12 12-12ZM1358 266l-12 12 12-12ZM1358 326l-12 12 12-12ZM1358 386l-12 12 12-12Z"/><path stroke="#407BFF" stroke-width="3" d="m1382 422-60 60 60-60Z"/><path stroke="#407BFF" d="m1354 510-4 4 4-4ZM1347 572a5.03 5.03 0 0 0 1.46 3.536 5.01 5.01 0 0 0 7.08 0A5.03 5.03 0 0 0 1357 572a5.03 5.03 0 0 0-1.46-3.536 5.01 5.01 0 0 0-7.08 0A5.03 5.03 0 0 0 1347 572ZM1358 626l-12 12 12-12ZM1347 692a5.03 5.03 0 0 0 1.46 3.536 5.01 5.01 0 0 0 7.08 0A5.03 5.03 0 0 0 1357 692a5.03 5.03 0 0 0-1.46-3.536 5.01 5.01 0 0 0-7.08 0A5.03 5.03 0 0 0 1347 692ZM1407 32c0 1.326.53 2.598 1.46 3.535a5.008 5.008 0 0 0 7.08 0A5.028 5.028 0 0 0 1417 32c0-1.326-.53-2.598-1.46-3.535a5.008 5.008 0 0 0-7.08 0A5.028 5.028 0 0 0 1407 32ZM1418 86l-12 12 12-12ZM1409 152c0 .796.32 1.559.88 2.121.56.563 1.32.879 2.12.879s1.56-.316 2.12-.879A3.01 3.01 0 0 0 1415 152a3.01 3.01 0 0 0-.88-2.121A2.984 2.984 0 0 0 1412 149c-.8 0-1.56.316-2.12.879A3.01 3.01 0 0 0 1409 152ZM1414 210l-4 4 4-4ZM1418 266l-12 12 12-12ZM1407 332a5.03 5.03 0 0 0 1.46 3.536 5.01 5.01 0 0 0 7.08 0A5.03 5.03 0 0 0 1417 332a5.03 5.03 0 0 0-1.46-3.536 5.01 5.01 0 0 0-7.08 0A5.03 5.03 0 0 0 1407 332ZM1407 392a5.03 5.03 0 0 0 1.46 3.536 5.01 5.01 0 0 0 7.08 0A5.03 5.03 0 0 0 1417 392a5.03 5.03 0 0 0-1.46-3.536 5.01 5.01 0 0 0-7.08 0A5.03 5.03 0 0 0 1407 392ZM1407 452a5.03 5.03 0 0 0 1.46 3.536 5.01 5.01 0 0 0 7.08 0A5.03 5.03 0 0 0 1417 452a5.03 5.03 0 0 0-1.46-3.536 5.01 5.01 0 0 0-7.08 0A5.03 5.03 0 0 0 1407 452Z"/><path stroke="#407BFF" stroke-width="3" d="m1442 482-60 60 60-60Z"/><path stroke="#407BFF" d="M1407 572a5.03 5.03 0 0 0 1.46 3.536 5.01 5.01 0 0 0 7.08 0A5.03 5.03 0 0 0 1417 572a5.03 5.03 0 0 0-1.46-3.536 5.01 5.01 0 0 0-7.08 0A5.03 5.03 0 0 0 1407 572ZM1411 632c0 .265.11.52.29.707a1 1 0 0 0 .71.293 1 1 0 0 0 .71-.293c.18-.187.29-.442.29-.707 0-.265-.11-.52-.29-.707a1 1 0 0 0-.71-.293 1 1 0 0 0-.71.293 1.03 1.03 0 0 0-.29.707ZM1414 690l-4 4 4-4ZM747 752c0 1.326.527 2.598 1.464 3.536a5.004 5.004 0 0 0 7.072 0 5.004 5.004 0 0 0 0-7.072 5.004 5.004 0 0 0-7.072 0A5.004 5.004 0 0 0 747 752ZM751 812a.997.997 0 0 0 1 1 .997.997 0 0 0 1-1 .997.997 0 0 0-1-1 .997.997 0 0 0-1 1ZM758 866l-12 12 12-12ZM758 926l-12 12 12-12ZM758 986l-12 12 12-12ZM754 1050l-4 4 4-4ZM758 1106l-12 12 12-12Z"/><path stroke="#407BFF" stroke-width="3" d="m782 1142-60 60 60-60Z"/><path stroke="#407BFF" d="m758 1226-12 12 12-12ZM754 1290l-4 4 4-4ZM754 1350l-4 4 4-4ZM758 1406l-12 12 12-12ZM811 752a.997.997 0 0 0 1 1 .997.997 0 0 0 1-1 .997.997 0 0 0-1-1 .997.997 0 0 0-1 1ZM807 812c0 1.326.527 2.598 1.464 3.536a5.004 5.004 0 0 0 7.072 0 5.004 5.004 0 0 0 0-7.072 5.004 5.004 0 0 0-7.072 0A5.004 5.004 0 0 0 807 812ZM807 872c0 1.326.527 2.598 1.464 3.536a5.004 5.004 0 0 0 7.072 0 5.004 5.004 0 0 0 0-7.072 5.004 5.004 0 0 0-7.072 0A5.004 5.004 0 0 0 807 872ZM814 930l-4 4 4-4ZM818 986l-12 12 12-12ZM807 1052c0 1.33.527 2.6 1.464 3.54A5.03 5.03 0 0 0 812 1057a5.03 5.03 0 0 0 3.536-1.46 5.01 5.01 0 0 0 0-7.08A5.03 5.03 0 0 0 812 1047a5.03 5.03 0 0 0-3.536 1.46A5.01 5.01 0 0 0 807 1052ZM818 1106l-12 12 12-12ZM814 1170l-4 4 4-4ZM807 1232c0 1.33.527 2.6 1.464 3.54A5.03 5.03 0 0 0 812 1237a5.03 5.03 0 0 0 3.536-1.46 5.01 5.01 0 0 0 0-7.08A5.03 5.03 0 0 0 812 1227a5.03 5.03 0 0 0-3.536 1.46A5.01 5.01 0 0 0 807 1232Z"/><path stroke="#407BFF" stroke-width="3" d="m842 1262-60 60 60-60Z"/><path stroke="#407BFF" d="M807 1352c0 1.33.527 2.6 1.464 3.54A5.03 5.03 0 0 0 812 1357a5.03 5.03 0 0 0 3.536-1.46 5.01 5.01 0 0 0 0-7.08A5.03 5.03 0 0 0 812 1347a5.03 5.03 0 0 0-3.536 1.46A5.01 5.01 0 0 0 807 1352ZM809 1412c0 .8.316 1.56.879 2.12a3.01 3.01 0 0 0 2.121.88 3.01 3.01 0 0 0 2.121-.88c.563-.56.879-1.32.879-2.12s-.316-1.56-.879-2.12A3.01 3.01 0 0 0 812 1409a3.01 3.01 0 0 0-2.121.88A2.984 2.984 0 0 0 809 1412ZM878 746l-12 12 12-12ZM874 810l-4 4 4-4Z"/><path stroke="#407BFF" stroke-width="3" d="m902 842-60 60 60-60ZM902 902l-60 60 60-60Z"/><path stroke="#407BFF" d="m874 990-4 4 4-4ZM871 1052a1 1 0 0 0 .293.71c.187.18.442.29.707.29.265 0 .52-.11.707-.29a1 1 0 0 0 .293-.71 1 1 0 0 0-.293-.71 1.03 1.03 0 0 0-.707-.29c-.265 0-.52.11-.707.29a1 1 0 0 0-.293.71Z"/><path stroke="#407BFF" stroke-width="3" d="m902 1082-60 60 60-60Z"/><path stroke="#407BFF" d="m878 1166-12 12 12-12ZM874 1230l-4 4 4-4ZM869 1292c0 .8.316 1.56.879 2.12a3.01 3.01 0 0 0 2.121.88 3.01 3.01 0 0 0 2.121-.88c.563-.56.879-1.32.879-2.12s-.316-1.56-.879-2.12A3.01 3.01 0 0 0 872 1289a3.01 3.01 0 0 0-2.121.88A2.984 2.984 0 0 0 869 1292ZM878 1346l-12 12 12-12ZM878 1406l-12 12 12-12ZM927 752c0 1.326.527 2.598 1.464 3.536a5.004 5.004 0 0 0 7.072 0 5.004 5.004 0 0 0 0-7.072 5.004 5.004 0 0 0-7.072 0A5.004 5.004 0 0 0 927 752ZM934 810l-4 4 4-4ZM927 872c0 1.326.527 2.598 1.464 3.536a5.004 5.004 0 0 0 7.072 0 5.004 5.004 0 0 0 0-7.072 5.004 5.004 0 0 0-7.072 0A5.004 5.004 0 0 0 927 872ZM938 926l-12 12 12-12ZM938 986l-12 12 12-12ZM927 1052c0 1.33.527 2.6 1.464 3.54A5.03 5.03 0 0 0 932 1057a5.03 5.03 0 0 0 3.536-1.46 5.01 5.01 0 0 0 0-7.08A5.03 5.03 0 0 0 932 1047a5.03 5.03 0 0 0-3.536 1.46A5.01 5.01 0 0 0 927 1052ZM938 1106l-12 12 12-12ZM934 1170l-4 4 4-4ZM938 1226l-12 12 12-12ZM938 1286l-12 12 12-12ZM927 1352c0 1.33.527 2.6 1.464 3.54A5.03 5.03 0 0 0 932 1357a5.03 5.03 0 0 0 3.536-1.46 5.01 5.01 0 0 0 0-7.08A5.03 5.03 0 0 0 932 1347a5.03 5.03 0 0 0-3.536 1.46A5.01 5.01 0 0 0 927 1352ZM931 1412a1 1 0 0 0 .293.71c.187.18.442.29.707.29.265 0 .52-.11.707-.29a1 1 0 0 0 .293-.71 1 1 0 0 0-.293-.71 1.03 1.03 0 0 0-.707-.29c-.265 0-.52.11-.707.29a1 1 0 0 0-.293.71ZM987 752c0 1.326.527 2.598 1.464 3.536a5.004 5.004 0 0 0 7.072 0 5.004 5.004 0 0 0 0-7.072 5.004 5.004 0 0 0-7.072 0A5.004 5.004 0 0 0 987 752ZM998 806l-12 12 12-12Z"/><path stroke="#407BFF" stroke-width="3" d="m1022 842-60 60 60-60Z"/><path stroke="#407BFF" d="M987 932c0 1.326.527 2.598 1.464 3.536a5.004 5.004 0 0 0 7.072 0 5.004 5.004 0 0 0 0-7.072 5.004 5.004 0 0 0-7.072 0A5.004 5.004 0 0 0 987 932Z"/><path stroke="#407BFF" stroke-width="3" d="m1022 962-60 60 60-60Z"/><path stroke="#407BFF" d="M987 1052c0 1.33.527 2.6 1.464 3.54A5.03 5.03 0 0 0 992 1057a5.03 5.03 0 0 0 3.536-1.46 5.01 5.01 0 0 0 0-7.08A5.03 5.03 0 0 0 992 1047a5.03 5.03 0 0 0-3.536 1.46A5.01 5.01 0 0 0 987 1052ZM987 1112c0 1.33.527 2.6 1.464 3.54A5.03 5.03 0 0 0 992 1117a5.03 5.03 0 0 0 3.536-1.46 5.01 5.01 0 0 0 0-7.08A5.03 5.03 0 0 0 992 1107a5.03 5.03 0 0 0-3.536 1.46A5.01 5.01 0 0 0 987 1112ZM994 1170l-4 4 4-4ZM994 1230l-4 4 4-4ZM987 1292c0 1.33.527 2.6 1.464 3.54A5.03 5.03 0 0 0 992 1297a5.03 5.03 0 0 0 3.536-1.46 5.01 5.01 0 0 0 0-7.08A5.03 5.03 0 0 0 992 1287a5.03 5.03 0 0 0-3.536 1.46A5.01 5.01 0 0 0 987 1292ZM991 1352a1 1 0 0 0 .293.71c.187.18.442.29.707.29.265 0 .52-.11.707-.29a1 1 0 0 0 .293-.71 1 1 0 0 0-.293-.71 1.03 1.03 0 0 0-.707-.29c-.265 0-.52.11-.707.29a1 1 0 0 0-.293.71ZM998 1406l-12 12 12-12Z"/><path stroke="#407BFF" stroke-width="3" d="m1082 722-60 60 60-60Z"/><path stroke="#407BFF" d="m1058 806-12 12 12-12ZM1058 866l-12 12 12-12ZM1047 932a5.03 5.03 0 0 0 1.46 3.536 5.01 5.01 0 0 0 7.08 0A5.03 5.03 0 0 0 1057 932a5.03 5.03 0 0 0-1.46-3.536 5.01 5.01 0 0 0-7.08 0A5.03 5.03 0 0 0 1047 932ZM1047 992a5.03 5.03 0 0 0 1.46 3.536 5.01 5.01 0 0 0 7.08 0A5.03 5.03 0 0 0 1057 992a5.03 5.03 0 0 0-1.46-3.536 5.01 5.01 0 0 0-7.08 0A5.03 5.03 0 0 0 1047 992ZM1047 1052c0 1.33.53 2.6 1.46 3.54.94.93 2.21 1.46 3.54 1.46s2.6-.53 3.54-1.46c.93-.94 1.46-2.21 1.46-3.54s-.53-2.6-1.46-3.54a5.036 5.036 0 0 0-3.54-1.46c-1.33 0-2.6.53-3.54 1.46-.93.94-1.46 2.21-1.46 3.54ZM1058 1106l-12 12 12-12ZM1054 1170l-4 4 4-4ZM1058 1226l-12 12 12-12ZM1049 1292c0 .8.32 1.56.88 2.12a2.997 2.997 0 1 0 4.24-4.24 2.997 2.997 0 0 0-5.12 2.12ZM1049 1352c0 .8.32 1.56.88 2.12a2.997 2.997 0 1 0 4.24-4.24 2.997 2.997 0 0 0-5.12 2.12ZM1047 1412c0 1.33.53 2.6 1.46 3.54.94.93 2.21 1.46 3.54 1.46s2.6-.53 3.54-1.46c.93-.94 1.46-2.21 1.46-3.54s-.53-2.6-1.46-3.54a5.036 5.036 0 0 0-3.54-1.46c-1.33 0-2.6.53-3.54 1.46-.93.94-1.46 2.21-1.46 3.54ZM1107 752a5.03 5.03 0 0 0 1.46 3.536 5.01 5.01 0 0 0 7.08 0A5.03 5.03 0 0 0 1117 752a5.03 5.03 0 0 0-1.46-3.536 5.01 5.01 0 0 0-7.08 0A5.03 5.03 0 0 0 1107 752ZM1109 812c0 .796.32 1.559.88 2.121.56.563 1.32.879 2.12.879s1.56-.316 2.12-.879A3.01 3.01 0 0 0 1115 812a3.01 3.01 0 0 0-.88-2.121A2.984 2.984 0 0 0 1112 809c-.8 0-1.56.316-2.12.879A3.01 3.01 0 0 0 1109 812ZM1118 866l-12 12 12-12ZM1114 930l-4 4 4-4ZM1107 992a5.03 5.03 0 0 0 1.46 3.536 5.01 5.01 0 0 0 7.08 0A5.03 5.03 0 0 0 1117 992a5.03 5.03 0 0 0-1.46-3.536 5.01 5.01 0 0 0-7.08 0A5.03 5.03 0 0 0 1107 992ZM1114 1050l-4 4 4-4ZM1111 1112c0 .27.11.52.29.71.19.18.44.29.71.29.27 0 .52-.11.71-.29.18-.19.29-.44.29-.71 0-.27-.11-.52-.29-.71-.19-.18-.44-.29-.71-.29-.27 0-.52.11-.71.29-.18.19-.29.44-.29.71ZM1107 1172c0 1.33.53 2.6 1.46 3.54.94.93 2.21 1.46 3.54 1.46s2.6-.53 3.54-1.46c.93-.94 1.46-2.21 1.46-3.54s-.53-2.6-1.46-3.54a5.036 5.036 0 0 0-3.54-1.46c-1.33 0-2.6.53-3.54 1.46-.93.94-1.46 2.21-1.46 3.54ZM1111 1232c0 .27.11.52.29.71.19.18.44.29.71.29.27 0 .52-.11.71-.29.18-.19.29-.44.29-.71 0-.27-.11-.52-.29-.71-.19-.18-.44-.29-.71-.29-.27 0-.52.11-.71.29-.18.19-.29.44-.29.71ZM1109 1292c0 .8.32 1.56.88 2.12a2.997 2.997 0 1 0 4.24-4.24 2.997 2.997 0 0 0-5.12 2.12ZM1109 1352c0 .8.32 1.56.88 2.12a2.997 2.997 0 1 0 4.24-4.24 2.997 2.997 0 0 0-5.12 2.12ZM1109 1412c0 .8.32 1.56.88 2.12a2.997 2.997 0 1 0 4.24-4.24 2.997 2.997 0 0 0-5.12 2.12ZM1171 752c0 .265.11.52.29.707a1 1 0 0 0 .71.293 1 1 0 0 0 .71-.293c.18-.187.29-.442.29-.707 0-.265-.11-.52-.29-.707a1 1 0 0 0-.71-.293 1 1 0 0 0-.71.293 1.03 1.03 0 0 0-.29.707ZM1167 812a5.03 5.03 0 0 0 1.46 3.536 5.01 5.01 0 0 0 7.08 0A5.03 5.03 0 0 0 1177 812a5.03 5.03 0 0 0-1.46-3.536 5.01 5.01 0 0 0-7.08 0A5.03 5.03 0 0 0 1167 812ZM1167 872a5.03 5.03 0 0 0 1.46 3.536 5.01 5.01 0 0 0 7.08 0A5.03 5.03 0 0 0 1177 872a5.03 5.03 0 0 0-1.46-3.536 5.01 5.01 0 0 0-7.08 0A5.03 5.03 0 0 0 1167 872ZM1167 932a5.03 5.03 0 0 0 1.46 3.536 5.01 5.01 0 0 0 7.08 0A5.03 5.03 0 0 0 1177 932a5.03 5.03 0 0 0-1.46-3.536 5.01 5.01 0 0 0-7.08 0A5.03 5.03 0 0 0 1167 932Z"/><path stroke="#407BFF" stroke-width="3" d="m1202 962-60 60 60-60Z"/><path stroke="#407BFF" d="M1167 1052c0 1.33.53 2.6 1.46 3.54.94.93 2.21 1.46 3.54 1.46s2.6-.53 3.54-1.46c.93-.94 1.46-2.21 1.46-3.54s-.53-2.6-1.46-3.54a5.036 5.036 0 0 0-3.54-1.46c-1.33 0-2.6.53-3.54 1.46-.93.94-1.46 2.21-1.46 3.54ZM1178 1106l-12 12 12-12ZM1167 1172c0 1.33.53 2.6 1.46 3.54.94.93 2.21 1.46 3.54 1.46s2.6-.53 3.54-1.46c.93-.94 1.46-2.21 1.46-3.54s-.53-2.6-1.46-3.54a5.036 5.036 0 0 0-3.54-1.46c-1.33 0-2.6.53-3.54 1.46-.93.94-1.46 2.21-1.46 3.54ZM1178 1226l-12 12 12-12ZM1178 1286l-12 12 12-12ZM1167 1352c0 1.33.53 2.6 1.46 3.54.94.93 2.21 1.46 3.54 1.46s2.6-.53 3.54-1.46c.93-.94 1.46-2.21 1.46-3.54s-.53-2.6-1.46-3.54a5.036 5.036 0 0 0-3.54-1.46c-1.33 0-2.6.53-3.54 1.46-.93.94-1.46 2.21-1.46 3.54ZM1178 1406l-12 12 12-12ZM1227 752a5.03 5.03 0 0 0 1.46 3.536 5.01 5.01 0 0 0 7.08 0A5.03 5.03 0 0 0 1237 752a5.03 5.03 0 0 0-1.46-3.536 5.01 5.01 0 0 0-7.08 0A5.03 5.03 0 0 0 1227 752ZM1227 812a5.03 5.03 0 0 0 1.46 3.536 5.01 5.01 0 0 0 7.08 0A5.03 5.03 0 0 0 1237 812a5.03 5.03 0 0 0-1.46-3.536 5.01 5.01 0 0 0-7.08 0A5.03 5.03 0 0 0 1227 812ZM1227 872a5.03 5.03 0 0 0 1.46 3.536 5.01 5.01 0 0 0 7.08 0A5.03 5.03 0 0 0 1237 872a5.03 5.03 0 0 0-1.46-3.536 5.01 5.01 0 0 0-7.08 0A5.03 5.03 0 0 0 1227 872ZM1227 932a5.03 5.03 0 0 0 1.46 3.536 5.01 5.01 0 0 0 7.08 0A5.03 5.03 0 0 0 1237 932a5.03 5.03 0 0 0-1.46-3.536 5.01 5.01 0 0 0-7.08 0A5.03 5.03 0 0 0 1227 932ZM1229 992c0 .796.32 1.559.88 2.121.56.563 1.32.879 2.12.879s1.56-.316 2.12-.879A3.01 3.01 0 0 0 1235 992a3.01 3.01 0 0 0-.88-2.121A2.984 2.984 0 0 0 1232 989c-.8 0-1.56.316-2.12.879A3.01 3.01 0 0 0 1229 992ZM1231 1052c0 .27.11.52.29.71.19.18.44.29.71.29.27 0 .52-.11.71-.29.18-.19.29-.44.29-.71 0-.27-.11-.52-.29-.71-.19-.18-.44-.29-.71-.29-.27 0-.52.11-.71.29-.18.19-.29.44-.29.71Z"/><path stroke="#407BFF" stroke-width="3" d="m1262 1082-60 60 60-60Z"/><path stroke="#407BFF" d="m1234 1170-4 4 4-4ZM1231 1232c0 .27.11.52.29.71.19.18.44.29.71.29.27 0 .52-.11.71-.29.18-.19.29-.44.29-.71 0-.27-.11-.52-.29-.71-.19-.18-.44-.29-.71-.29-.27 0-.52.11-.71.29-.18.19-.29.44-.29.71ZM1231 1292c0 .27.11.52.29.71.19.18.44.29.71.29.27 0 .52-.11.71-.29.18-.19.29-.44.29-.71 0-.27-.11-.52-.29-.71-.19-.18-.44-.29-.71-.29-.27 0-.52.11-.71.29-.18.19-.29.44-.29.71ZM1238 1346l-12 12 12-12ZM1238 1406l-12 12 12-12ZM1298 746l-12 12 12-12ZM1289 812c0 .796.32 1.559.88 2.121.56.563 1.32.879 2.12.879s1.56-.316 2.12-.879A3.01 3.01 0 0 0 1295 812a3.01 3.01 0 0 0-.88-2.121A2.984 2.984 0 0 0 1292 809c-.8 0-1.56.316-2.12.879A3.01 3.01 0 0 0 1289 812ZM1287 872a5.03 5.03 0 0 0 1.46 3.536 5.01 5.01 0 0 0 7.08 0A5.03 5.03 0 0 0 1297 872a5.03 5.03 0 0 0-1.46-3.536 5.01 5.01 0 0 0-7.08 0A5.03 5.03 0 0 0 1287 872ZM1287 932a5.03 5.03 0 0 0 1.46 3.536 5.01 5.01 0 0 0 7.08 0A5.03 5.03 0 0 0 1297 932a5.03 5.03 0 0 0-1.46-3.536 5.01 5.01 0 0 0-7.08 0A5.03 5.03 0 0 0 1287 932ZM1289 992c0 .796.32 1.559.88 2.121.56.563 1.32.879 2.12.879s1.56-.316 2.12-.879A3.01 3.01 0 0 0 1295 992a3.01 3.01 0 0 0-.88-2.121A2.984 2.984 0 0 0 1292 989c-.8 0-1.56.316-2.12.879A3.01 3.01 0 0 0 1289 992ZM1298 1046l-12 12 12-12ZM1298 1106l-12 12 12-12ZM1294 1170l-4 4 4-4ZM1294 1230l-4 4 4-4ZM1298 1286l-12 12 12-12ZM1298 1346l-12 12 12-12ZM1289 1412c0 .8.32 1.56.88 2.12a2.997 2.997 0 1 0 4.24-4.24 2.997 2.997 0 0 0-5.12 2.12ZM1351 752c0 .265.11.52.29.707a1 1 0 0 0 .71.293 1 1 0 0 0 .71-.293c.18-.187.29-.442.29-.707 0-.265-.11-.52-.29-.707a1 1 0 0 0-.71-.293 1 1 0 0 0-.71.293 1.03 1.03 0 0 0-.29.707ZM1351 812c0 .265.11.52.29.707a1 1 0 0 0 .71.293 1 1 0 0 0 .71-.293c.18-.187.29-.442.29-.707 0-.265-.11-.52-.29-.707a1 1 0 0 0-.71-.293 1 1 0 0 0-.71.293 1.03 1.03 0 0 0-.29.707Z"/><path stroke="#407BFF" stroke-width="3" d="m1382 842-60 60 60-60Z"/><path stroke="#407BFF" d="m1358 926-12 12 12-12ZM1358 986l-12 12 12-12ZM1358 1046l-12 12 12-12ZM1358 1106l-12 12 12-12Z"/><path stroke="#407BFF" stroke-width="3" d="m1382 1142-60 60 60-60Z"/><path stroke="#407BFF" d="m1354 1230-4 4 4-4ZM1347 1292c0 1.33.53 2.6 1.46 3.54.94.93 2.21 1.46 3.54 1.46s2.6-.53 3.54-1.46c.93-.94 1.46-2.21 1.46-3.54s-.53-2.6-1.46-3.54a5.036 5.036 0 0 0-3.54-1.46c-1.33 0-2.6.53-3.54 1.46-.93.94-1.46 2.21-1.46 3.54ZM1358 1346l-12 12 12-12ZM1347 1412c0 1.33.53 2.6 1.46 3.54.94.93 2.21 1.46 3.54 1.46s2.6-.53 3.54-1.46c.93-.94 1.46-2.21 1.46-3.54s-.53-2.6-1.46-3.54a5.036 5.036 0 0 0-3.54-1.46c-1.33 0-2.6.53-3.54 1.46-.93.94-1.46 2.21-1.46 3.54ZM1407 752a5.03 5.03 0 0 0 1.46 3.536 5.01 5.01 0 0 0 7.08 0A5.03 5.03 0 0 0 1417 752a5.03 5.03 0 0 0-1.46-3.536 5.01 5.01 0 0 0-7.08 0A5.03 5.03 0 0 0 1407 752ZM1418 806l-12 12 12-12ZM1409 872c0 .796.32 1.559.88 2.121.56.563 1.32.879 2.12.879s1.56-.316 2.12-.879A3.01 3.01 0 0 0 1415 872a3.01 3.01 0 0 0-.88-2.121A2.984 2.984 0 0 0 1412 869c-.8 0-1.56.316-2.12.879A3.01 3.01 0 0 0 1409 872ZM1414 930l-4 4 4-4ZM1418 986l-12 12 12-12ZM1407 1052c0 1.33.53 2.6 1.46 3.54.94.93 2.21 1.46 3.54 1.46s2.6-.53 3.54-1.46c.93-.94 1.46-2.21 1.46-3.54s-.53-2.6-1.46-3.54a5.036 5.036 0 0 0-3.54-1.46c-1.33 0-2.6.53-3.54 1.46-.93.94-1.46 2.21-1.46 3.54ZM1407 1112c0 1.33.53 2.6 1.46 3.54.94.93 2.21 1.46 3.54 1.46s2.6-.53 3.54-1.46c.93-.94 1.46-2.21 1.46-3.54s-.53-2.6-1.46-3.54a5.036 5.036 0 0 0-3.54-1.46c-1.33 0-2.6.53-3.54 1.46-.93.94-1.46 2.21-1.46 3.54ZM1407 1172c0 1.33.53 2.6 1.46 3.54.94.93 2.21 1.46 3.54 1.46s2.6-.53 3.54-1.46c.93-.94 1.46-2.21 1.46-3.54s-.53-2.6-1.46-3.54a5.036 5.036 0 0 0-3.54-1.46c-1.33 0-2.6.53-3.54 1.46-.93.94-1.46 2.21-1.46 3.54Z"/><path stroke="#407BFF" stroke-width="3" d="m1442 1202-60 60 60-60Z"/><path stroke="#407BFF" d="M1407 1292c0 1.33.53 2.6 1.46 3.54.94.93 2.21 1.46 3.54 1.46s2.6-.53 3.54-1.46c.93-.94 1.46-2.21 1.46-3.54s-.53-2.6-1.46-3.54a5.036 5.036 0 0 0-3.54-1.46c-1.33 0-2.6.53-3.54 1.46-.93.94-1.46 2.21-1.46 3.54ZM1411 1352c0 .27.11.52.29.71.19.18.44.29.71.29.27 0 .52-.11.71-.29.18-.19.29-.44.29-.71 0-.27-.11-.52-.29-.71-.19-.18-.44-.29-.71-.29-.27 0-.52.11-.71.29-.18.19-.29.44-.29.71ZM1414 1410l-4 4 4-4ZM1467 32c0 1.326.53 2.598 1.46 3.535a5.008 5.008 0 0 0 7.08 0A5.028 5.028 0 0 0 1477 32c0-1.326-.53-2.598-1.46-3.535a5.008 5.008 0 0 0-7.08 0A5.028 5.028 0 0 0 1467 32ZM1471 92c0 .265.11.52.29.707A1.003 1.003 0 0 0 1473 92c0-.265-.11-.52-.29-.707A1.003 1.003 0 0 0 1471 92ZM1478 146l-12 12 12-12ZM1478 206l-12 12 12-12ZM1478 266l-12 12 12-12ZM1474 330l-4 4 4-4ZM1478 386l-12 12 12-12Z"/><path stroke="#407BFF" stroke-width="3" d="m1502 422-60 60 60-60Z"/><path stroke="#407BFF" d="m1478 506-12 12 12-12ZM1474 570l-4 4 4-4ZM1474 630l-4 4 4-4ZM1478 686l-12 12 12-12ZM1531 32c0 .265.11.52.29.707A1.003 1.003 0 0 0 1533 32c0-.265-.11-.52-.29-.707A1.003 1.003 0 0 0 1531 32ZM1527 92c0 1.326.53 2.598 1.46 3.535a5.008 5.008 0 0 0 7.08 0A5.028 5.028 0 0 0 1537 92c0-1.326-.53-2.598-1.46-3.535a5.008 5.008 0 0 0-7.08 0A5.028 5.028 0 0 0 1527 92ZM1527 152a5.03 5.03 0 0 0 1.46 3.536 5.01 5.01 0 0 0 7.08 0A5.03 5.03 0 0 0 1537 152a5.03 5.03 0 0 0-1.46-3.536 5.01 5.01 0 0 0-7.08 0A5.03 5.03 0 0 0 1527 152ZM1534 210l-4 4 4-4ZM1538 266l-12 12 12-12ZM1527 332a5.03 5.03 0 0 0 1.46 3.536 5.01 5.01 0 0 0 7.08 0A5.03 5.03 0 0 0 1537 332a5.03 5.03 0 0 0-1.46-3.536 5.01 5.01 0 0 0-7.08 0A5.03 5.03 0 0 0 1527 332ZM1538 386l-12 12 12-12ZM1534 450l-4 4 4-4ZM1527 512a5.03 5.03 0 0 0 1.46 3.536 5.01 5.01 0 0 0 7.08 0A5.03 5.03 0 0 0 1537 512a5.03 5.03 0 0 0-1.46-3.536 5.01 5.01 0 0 0-7.08 0A5.03 5.03 0 0 0 1527 512Z"/><path stroke="#407BFF" stroke-width="3" d="m1562 542-60 60 60-60Z"/><path stroke="#407BFF" d="M1527 632a5.03 5.03 0 0 0 1.46 3.536 5.01 5.01 0 0 0 7.08 0A5.03 5.03 0 0 0 1537 632a5.03 5.03 0 0 0-1.46-3.536 5.01 5.01 0 0 0-7.08 0A5.03 5.03 0 0 0 1527 632ZM1529 692c0 .796.32 1.559.88 2.121.56.563 1.32.879 2.12.879s1.56-.316 2.12-.879A3.01 3.01 0 0 0 1535 692a3.01 3.01 0 0 0-.88-2.121A2.984 2.984 0 0 0 1532 689c-.8 0-1.56.316-2.12.879A3.01 3.01 0 0 0 1529 692ZM1598 26l-12 12 12-12ZM1594 90l-4 4 4-4Z"/><path stroke="#407BFF" stroke-width="3" d="m1622 122-60 60 60-60ZM1622 182l-60 60 60-60Z"/><path stroke="#407BFF" d="m1594 270-4 4 4-4ZM1591 332c0 .265.11.52.29.707a1 1 0 0 0 .71.293 1 1 0 0 0 .71-.293c.18-.187.29-.442.29-.707 0-.265-.11-.52-.29-.707a1 1 0 0 0-.71-.293 1 1 0 0 0-.71.293 1.03 1.03 0 0 0-.29.707Z"/><path stroke="#407BFF" stroke-width="3" d="m1622 362-60 60 60-60Z"/><path stroke="#407BFF" d="m1598 446-12 12 12-12ZM1594 510l-4 4 4-4ZM1589 572c0 .796.32 1.559.88 2.121.56.563 1.32.879 2.12.879s1.56-.316 2.12-.879A3.01 3.01 0 0 0 1595 572a3.01 3.01 0 0 0-.88-2.121A2.984 2.984 0 0 0 1592 569c-.8 0-1.56.316-2.12.879A3.01 3.01 0 0 0 1589 572ZM1598 626l-12 12 12-12ZM1598 686l-12 12 12-12ZM1647 32c0 1.326.53 2.598 1.46 3.535a5.008 5.008 0 0 0 7.08 0A5.028 5.028 0 0 0 1657 32c0-1.326-.53-2.598-1.46-3.535a5.008 5.008 0 0 0-7.08 0A5.028 5.028 0 0 0 1647 32ZM1654 90l-4 4 4-4ZM1647 152a5.03 5.03 0 0 0 1.46 3.536 5.01 5.01 0 0 0 7.08 0A5.03 5.03 0 0 0 1657 152a5.03 5.03 0 0 0-1.46-3.536 5.01 5.01 0 0 0-7.08 0A5.03 5.03 0 0 0 1647 152ZM1658 206l-12 12 12-12ZM1658 266l-12 12 12-12ZM1647 332a5.03 5.03 0 0 0 1.46 3.536 5.01 5.01 0 0 0 7.08 0A5.03 5.03 0 0 0 1657 332a5.03 5.03 0 0 0-1.46-3.536 5.01 5.01 0 0 0-7.08 0A5.03 5.03 0 0 0 1647 332ZM1658 386l-12 12 12-12ZM1654 450l-4 4 4-4ZM1658 506l-12 12 12-12ZM1658 566l-12 12 12-12ZM1647 632a5.03 5.03 0 0 0 1.46 3.536 5.01 5.01 0 0 0 7.08 0A5.03 5.03 0 0 0 1657 632a5.03 5.03 0 0 0-1.46-3.536 5.01 5.01 0 0 0-7.08 0A5.03 5.03 0 0 0 1647 632ZM1651 692c0 .265.11.52.29.707a1 1 0 0 0 .71.293 1 1 0 0 0 .71-.293c.18-.187.29-.442.29-.707 0-.265-.11-.52-.29-.707a1 1 0 0 0-.71-.293 1 1 0 0 0-.71.293 1.03 1.03 0 0 0-.29.707ZM1707 32c0 1.326.53 2.598 1.46 3.535a5.008 5.008 0 0 0 7.08 0A5.028 5.028 0 0 0 1717 32c0-1.326-.53-2.598-1.46-3.535a5.008 5.008 0 0 0-7.08 0A5.028 5.028 0 0 0 1707 32ZM1718 86l-12 12 12-12Z"/><path stroke="#407BFF" stroke-width="3" d="m1742 122-60 60 60-60Z"/><path stroke="#407BFF" d="M1707 212a5.03 5.03 0 0 0 1.46 3.536 5.01 5.01 0 0 0 7.08 0A5.03 5.03 0 0 0 1717 212a5.03 5.03 0 0 0-1.46-3.536 5.01 5.01 0 0 0-7.08 0A5.03 5.03 0 0 0 1707 212Z"/><path stroke="#407BFF" stroke-width="3" d="m1742 242-60 60 60-60Z"/><path stroke="#407BFF" d="M1707 332a5.03 5.03 0 0 0 1.46 3.536 5.01 5.01 0 0 0 7.08 0A5.03 5.03 0 0 0 1717 332a5.03 5.03 0 0 0-1.46-3.536 5.01 5.01 0 0 0-7.08 0A5.03 5.03 0 0 0 1707 332ZM1707 392a5.03 5.03 0 0 0 1.46 3.536 5.01 5.01 0 0 0 7.08 0A5.03 5.03 0 0 0 1717 392a5.03 5.03 0 0 0-1.46-3.536 5.01 5.01 0 0 0-7.08 0A5.03 5.03 0 0 0 1707 392ZM1714 450l-4 4 4-4ZM1714 510l-4 4 4-4ZM1707 572a5.03 5.03 0 0 0 1.46 3.536 5.01 5.01 0 0 0 7.08 0A5.03 5.03 0 0 0 1717 572a5.03 5.03 0 0 0-1.46-3.536 5.01 5.01 0 0 0-7.08 0A5.03 5.03 0 0 0 1707 572ZM1711 632c0 .265.11.52.29.707a1 1 0 0 0 .71.293 1 1 0 0 0 .71-.293c.18-.187.29-.442.29-.707 0-.265-.11-.52-.29-.707a1 1 0 0 0-.71-.293 1 1 0 0 0-.71.293 1.03 1.03 0 0 0-.29.707ZM1718 686l-12 12 12-12Z"/><path stroke="#407BFF" stroke-width="3" d="m1802 2-60 60 60-60Z"/><path stroke="#407BFF" d="m1778 86-12 12 12-12ZM1778 146l-12 12 12-12ZM1767 212a5.03 5.03 0 0 0 1.46 3.536 5.01 5.01 0 0 0 7.08 0A5.03 5.03 0 0 0 1777 212a5.03 5.03 0 0 0-1.46-3.536 5.01 5.01 0 0 0-7.08 0A5.03 5.03 0 0 0 1767 212ZM1767 272a5.03 5.03 0 0 0 1.46 3.536 5.01 5.01 0 0 0 7.08 0A5.03 5.03 0 0 0 1777 272a5.03 5.03 0 0 0-1.46-3.536 5.01 5.01 0 0 0-7.08 0A5.03 5.03 0 0 0 1767 272ZM1767 332a5.03 5.03 0 0 0 1.46 3.536 5.01 5.01 0 0 0 7.08 0A5.03 5.03 0 0 0 1777 332a5.03 5.03 0 0 0-1.46-3.536 5.01 5.01 0 0 0-7.08 0A5.03 5.03 0 0 0 1767 332ZM1778 386l-12 12 12-12ZM1774 450l-4 4 4-4ZM1778 506l-12 12 12-12ZM1769 572c0 .796.32 1.559.88 2.121.56.563 1.32.879 2.12.879s1.56-.316 2.12-.879A3.01 3.01 0 0 0 1775 572a3.01 3.01 0 0 0-.88-2.121A2.984 2.984 0 0 0 1772 569c-.8 0-1.56.316-2.12.879A3.01 3.01 0 0 0 1769 572ZM1769 632c0 .796.32 1.559.88 2.121.56.563 1.32.879 2.12.879s1.56-.316 2.12-.879A3.01 3.01 0 0 0 1775 632a3.01 3.01 0 0 0-.88-2.121A2.984 2.984 0 0 0 1772 629c-.8 0-1.56.316-2.12.879A3.01 3.01 0 0 0 1769 632ZM1767 692a5.03 5.03 0 0 0 1.46 3.536 5.01 5.01 0 0 0 7.08 0A5.03 5.03 0 0 0 1777 692a5.03 5.03 0 0 0-1.46-3.536 5.01 5.01 0 0 0-7.08 0A5.03 5.03 0 0 0 1767 692ZM1827 32c0 1.326.53 2.598 1.46 3.535a5.008 5.008 0 0 0 7.08 0A5.028 5.028 0 0 0 1837 32c0-1.326-.53-2.598-1.46-3.535a5.008 5.008 0 0 0-7.08 0A5.028 5.028 0 0 0 1827 32ZM1829 92c0 .796.32 1.559.88 2.121.56.563 1.32.879 2.12.879s1.56-.316 2.12-.879c.56-.562.88-1.325.88-2.121s-.32-1.559-.88-2.121A2.985 2.985 0 0 0 1832 89c-.8 0-1.56.316-2.12.879A3.012 3.012 0 0 0 1829 92ZM1838 146l-12 12 12-12ZM1834 210l-4 4 4-4ZM1827 272a5.03 5.03 0 0 0 1.46 3.536 5.01 5.01 0 0 0 7.08 0A5.03 5.03 0 0 0 1837 272a5.03 5.03 0 0 0-1.46-3.536 5.01 5.01 0 0 0-7.08 0A5.03 5.03 0 0 0 1827 272ZM1834 330l-4 4 4-4ZM1831 392c0 .265.11.52.29.707a1 1 0 0 0 .71.293 1 1 0 0 0 .71-.293c.18-.187.29-.442.29-.707 0-.265-.11-.52-.29-.707a1 1 0 0 0-.71-.293 1 1 0 0 0-.71.293 1.03 1.03 0 0 0-.29.707ZM1827 452a5.03 5.03 0 0 0 1.46 3.536 5.01 5.01 0 0 0 7.08 0A5.03 5.03 0 0 0 1837 452a5.03 5.03 0 0 0-1.46-3.536 5.01 5.01 0 0 0-7.08 0A5.03 5.03 0 0 0 1827 452ZM1831 512c0 .265.11.52.29.707a1 1 0 0 0 .71.293 1 1 0 0 0 .71-.293c.18-.187.29-.442.29-.707 0-.265-.11-.52-.29-.707a1 1 0 0 0-.71-.293 1 1 0 0 0-.71.293 1.03 1.03 0 0 0-.29.707ZM1829 572c0 .796.32 1.559.88 2.121.56.563 1.32.879 2.12.879s1.56-.316 2.12-.879A3.01 3.01 0 0 0 1835 572a3.01 3.01 0 0 0-.88-2.121A2.984 2.984 0 0 0 1832 569c-.8 0-1.56.316-2.12.879A3.01 3.01 0 0 0 1829 572ZM1829 632c0 .796.32 1.559.88 2.121.56.563 1.32.879 2.12.879s1.56-.316 2.12-.879A3.01 3.01 0 0 0 1835 632a3.01 3.01 0 0 0-.88-2.121A2.984 2.984 0 0 0 1832 629c-.8 0-1.56.316-2.12.879A3.01 3.01 0 0 0 1829 632ZM1829 692c0 .796.32 1.559.88 2.121.56.563 1.32.879 2.12.879s1.56-.316 2.12-.879A3.01 3.01 0 0 0 1835 692a3.01 3.01 0 0 0-.88-2.121A2.984 2.984 0 0 0 1832 689c-.8 0-1.56.316-2.12.879A3.01 3.01 0 0 0 1829 692ZM1891 32c0 .265.11.52.29.707A1.003 1.003 0 0 0 1893 32c0-.265-.11-.52-.29-.707A1.003 1.003 0 0 0 1891 32ZM1887 92c0 1.326.53 2.598 1.46 3.535a5.008 5.008 0 0 0 7.08 0A5.028 5.028 0 0 0 1897 92c0-1.326-.53-2.598-1.46-3.535a5.008 5.008 0 0 0-7.08 0A5.028 5.028 0 0 0 1887 92ZM1887 152a5.03 5.03 0 0 0 1.46 3.536 5.01 5.01 0 0 0 7.08 0A5.03 5.03 0 0 0 1897 152a5.03 5.03 0 0 0-1.46-3.536 5.01 5.01 0 0 0-7.08 0A5.03 5.03 0 0 0 1887 152ZM1887 212a5.03 5.03 0 0 0 1.46 3.536 5.01 5.01 0 0 0 7.08 0A5.03 5.03 0 0 0 1897 212a5.03 5.03 0 0 0-1.46-3.536 5.01 5.01 0 0 0-7.08 0A5.03 5.03 0 0 0 1887 212Z"/><path stroke="#407BFF" stroke-width="3" d="m1922 242-60 60 60-60Z"/><path stroke="#407BFF" d="M1887 332a5.03 5.03 0 0 0 1.46 3.536 5.01 5.01 0 0 0 7.08 0A5.03 5.03 0 0 0 1897 332a5.03 5.03 0 0 0-1.46-3.536 5.01 5.01 0 0 0-7.08 0A5.03 5.03 0 0 0 1887 332ZM1898 386l-12 12 12-12ZM1887 452a5.03 5.03 0 0 0 1.46 3.536 5.01 5.01 0 0 0 7.08 0A5.03 5.03 0 0 0 1897 452a5.03 5.03 0 0 0-1.46-3.536 5.01 5.01 0 0 0-7.08 0A5.03 5.03 0 0 0 1887 452ZM1898 506l-12 12 12-12ZM1898 566l-12 12 12-12ZM1887 632a5.03 5.03 0 0 0 1.46 3.536 5.01 5.01 0 0 0 7.08 0A5.03 5.03 0 0 0 1897 632a5.03 5.03 0 0 0-1.46-3.536 5.01 5.01 0 0 0-7.08 0A5.03 5.03 0 0 0 1887 632ZM1898 686l-12 12 12-12ZM1947 32c0 1.326.53 2.598 1.46 3.535a5.008 5.008 0 0 0 7.08 0A5.028 5.028 0 0 0 1957 32c0-1.326-.53-2.598-1.46-3.535a5.008 5.008 0 0 0-7.08 0A5.028 5.028 0 0 0 1947 32ZM1947 92c0 1.326.53 2.598 1.46 3.535a5.008 5.008 0 0 0 7.08 0A5.028 5.028 0 0 0 1957 92c0-1.326-.53-2.598-1.46-3.535a5.008 5.008 0 0 0-7.08 0A5.028 5.028 0 0 0 1947 92ZM1947 152a5.03 5.03 0 0 0 1.46 3.536 5.01 5.01 0 0 0 7.08 0A5.03 5.03 0 0 0 1957 152a5.03 5.03 0 0 0-1.46-3.536 5.01 5.01 0 0 0-7.08 0A5.03 5.03 0 0 0 1947 152ZM1947 212a5.03 5.03 0 0 0 1.46 3.536 5.01 5.01 0 0 0 7.08 0A5.03 5.03 0 0 0 1957 212a5.03 5.03 0 0 0-1.46-3.536 5.01 5.01 0 0 0-7.08 0A5.03 5.03 0 0 0 1947 212ZM1949 272c0 .796.32 1.559.88 2.121.56.563 1.32.879 2.12.879s1.56-.316 2.12-.879A3.01 3.01 0 0 0 1955 272a3.01 3.01 0 0 0-.88-2.121A2.984 2.984 0 0 0 1952 269c-.8 0-1.56.316-2.12.879A3.01 3.01 0 0 0 1949 272ZM1951 332c0 .265.11.52.29.707a1 1 0 0 0 .71.293 1 1 0 0 0 .71-.293c.18-.187.29-.442.29-.707 0-.265-.11-.52-.29-.707a1 1 0 0 0-.71-.293 1 1 0 0 0-.71.293 1.03 1.03 0 0 0-.29.707Z"/><path stroke="#407BFF" stroke-width="3" d="m1982 362-60 60 60-60Z"/><path stroke="#407BFF" d="m1954 450-4 4 4-4ZM1951 512c0 .265.11.52.29.707a1 1 0 0 0 .71.293 1 1 0 0 0 .71-.293c.18-.187.29-.442.29-.707 0-.265-.11-.52-.29-.707a1 1 0 0 0-.71-.293 1 1 0 0 0-.71.293 1.03 1.03 0 0 0-.29.707ZM1951 572c0 .265.11.52.29.707a1 1 0 0 0 .71.293 1 1 0 0 0 .71-.293c.18-.187.29-.442.29-.707 0-.265-.11-.52-.29-.707a1 1 0 0 0-.71-.293 1 1 0 0 0-.71.293 1.03 1.03 0 0 0-.29.707ZM1958 626l-12 12 12-12ZM1958 686l-12 12 12-12ZM2018 26l-12 12 12-12ZM2009 92c0 .796.32 1.559.88 2.121.56.563 1.32.879 2.12.879s1.56-.316 2.12-.879c.56-.562.88-1.325.88-2.121s-.32-1.559-.88-2.121A2.985 2.985 0 0 0 2012 89c-.8 0-1.56.316-2.12.879A3.012 3.012 0 0 0 2009 92ZM2007 152a5.03 5.03 0 0 0 1.46 3.536 5.01 5.01 0 0 0 7.08 0A5.03 5.03 0 0 0 2017 152a5.03 5.03 0 0 0-1.46-3.536 5.01 5.01 0 0 0-7.08 0A5.03 5.03 0 0 0 2007 152ZM2007 212a5.03 5.03 0 0 0 1.46 3.536 5.01 5.01 0 0 0 7.08 0A5.03 5.03 0 0 0 2017 212a5.03 5.03 0 0 0-1.46-3.536 5.01 5.01 0 0 0-7.08 0A5.03 5.03 0 0 0 2007 212ZM2009 272c0 .796.32 1.559.88 2.121.56.563 1.32.879 2.12.879s1.56-.316 2.12-.879A3.01 3.01 0 0 0 2015 272a3.01 3.01 0 0 0-.88-2.121A2.984 2.984 0 0 0 2012 269c-.8 0-1.56.316-2.12.879A3.01 3.01 0 0 0 2009 272ZM2018 326l-12 12 12-12ZM2018 386l-12 12 12-12ZM2014 450l-4 4 4-4ZM2014 510l-4 4 4-4ZM2018 566l-12 12 12-12ZM2018 626l-12 12 12-12ZM2009 692c0 .796.32 1.559.88 2.121.56.563 1.32.879 2.12.879s1.56-.316 2.12-.879A3.01 3.01 0 0 0 2015 692a3.01 3.01 0 0 0-.88-2.121A2.984 2.984 0 0 0 2012 689c-.8 0-1.56.316-2.12.879A3.01 3.01 0 0 0 2009 692ZM2071 32c0 .265.11.52.29.707A1.003 1.003 0 0 0 2073 32c0-.265-.11-.52-.29-.707A1.003 1.003 0 0 0 2071 32ZM2071 92c0 .265.11.52.29.707A1.003 1.003 0 0 0 2073 92c0-.265-.11-.52-.29-.707A1.003 1.003 0 0 0 2071 92Z"/><path stroke="#407BFF" stroke-width="3" d="m2102 122-60 60 60-60Z"/><path stroke="#407BFF" d="m2078 206-12 12 12-12ZM2078 266l-12 12 12-12ZM2078 326l-12 12 12-12ZM2078 386l-12 12 12-12Z"/><path stroke="#407BFF" stroke-width="3" d="m2102 422-60 60 60-60Z"/><path stroke="#407BFF" d="m2074 510-4 4 4-4ZM2067 572a5.03 5.03 0 0 0 1.46 3.536 5.01 5.01 0 0 0 7.08 0A5.03 5.03 0 0 0 2077 572a5.03 5.03 0 0 0-1.46-3.536 5.01 5.01 0 0 0-7.08 0A5.03 5.03 0 0 0 2067 572ZM2078 626l-12 12 12-12ZM2067 692a5.03 5.03 0 0 0 1.46 3.536 5.01 5.01 0 0 0 7.08 0A5.03 5.03 0 0 0 2077 692a5.03 5.03 0 0 0-1.46-3.536 5.01 5.01 0 0 0-7.08 0A5.03 5.03 0 0 0 2067 692ZM2127 32c0 1.326.53 2.598 1.46 3.535a5.008 5.008 0 0 0 7.08 0A5.028 5.028 0 0 0 2137 32c0-1.326-.53-2.598-1.46-3.535a5.008 5.008 0 0 0-7.08 0A5.028 5.028 0 0 0 2127 32ZM2138 86l-12 12 12-12ZM2129 152c0 .796.32 1.559.88 2.121.56.563 1.32.879 2.12.879s1.56-.316 2.12-.879A3.01 3.01 0 0 0 2135 152a3.01 3.01 0 0 0-.88-2.121A2.984 2.984 0 0 0 2132 149c-.8 0-1.56.316-2.12.879A3.01 3.01 0 0 0 2129 152ZM2134 210l-4 4 4-4ZM2138 266l-12 12 12-12ZM2127 332a5.03 5.03 0 0 0 1.46 3.536 5.01 5.01 0 0 0 7.08 0A5.03 5.03 0 0 0 2137 332a5.03 5.03 0 0 0-1.46-3.536 5.01 5.01 0 0 0-7.08 0A5.03 5.03 0 0 0 2127 332ZM2127 392a5.03 5.03 0 0 0 1.46 3.536 5.01 5.01 0 0 0 7.08 0A5.03 5.03 0 0 0 2137 392a5.03 5.03 0 0 0-1.46-3.536 5.01 5.01 0 0 0-7.08 0A5.03 5.03 0 0 0 2127 392ZM2127 452a5.03 5.03 0 0 0 1.46 3.536 5.01 5.01 0 0 0 7.08 0A5.03 5.03 0 0 0 2137 452a5.03 5.03 0 0 0-1.46-3.536 5.01 5.01 0 0 0-7.08 0A5.03 5.03 0 0 0 2127 452Z"/><path stroke="#407BFF" stroke-width="3" d="m2162 482-60 60 60-60Z"/><path stroke="#407BFF" d="M2127 572a5.03 5.03 0 0 0 1.46 3.536 5.01 5.01 0 0 0 7.08 0A5.03 5.03 0 0 0 2137 572a5.03 5.03 0 0 0-1.46-3.536 5.01 5.01 0 0 0-7.08 0A5.03 5.03 0 0 0 2127 572ZM2131 632c0 .265.11.52.29.707a1 1 0 0 0 .71.293 1 1 0 0 0 .71-.293c.18-.187.29-.442.29-.707 0-.265-.11-.52-.29-.707a1 1 0 0 0-.71-.293 1 1 0 0 0-.71.293 1.03 1.03 0 0 0-.29.707ZM2134 690l-4 4 4-4ZM1467 752a5.03 5.03 0 0 0 1.46 3.536 5.01 5.01 0 0 0 7.08 0A5.03 5.03 0 0 0 1477 752a5.03 5.03 0 0 0-1.46-3.536 5.01 5.01 0 0 0-7.08 0A5.03 5.03 0 0 0 1467 752ZM1471 812c0 .265.11.52.29.707a1 1 0 0 0 .71.293 1 1 0 0 0 .71-.293c.18-.187.29-.442.29-.707 0-.265-.11-.52-.29-.707a1 1 0 0 0-.71-.293 1 1 0 0 0-.71.293 1.03 1.03 0 0 0-.29.707ZM1478 866l-12 12 12-12ZM1478 926l-12 12 12-12ZM1478 986l-12 12 12-12ZM1474 1050l-4 4 4-4ZM1478 1106l-12 12 12-12Z"/><path stroke="#407BFF" stroke-width="3" d="m1502 1142-60 60 60-60Z"/><path stroke="#407BFF" d="m1478 1226-12 12 12-12ZM1474 1290l-4 4 4-4ZM1474 1350l-4 4 4-4ZM1478 1406l-12 12 12-12ZM1531 752c0 .265.11.52.29.707a1 1 0 0 0 .71.293 1 1 0 0 0 .71-.293c.18-.187.29-.442.29-.707 0-.265-.11-.52-.29-.707a1 1 0 0 0-.71-.293 1 1 0 0 0-.71.293 1.03 1.03 0 0 0-.29.707ZM1527 812a5.03 5.03 0 0 0 1.46 3.536 5.01 5.01 0 0 0 7.08 0A5.03 5.03 0 0 0 1537 812a5.03 5.03 0 0 0-1.46-3.536 5.01 5.01 0 0 0-7.08 0A5.03 5.03 0 0 0 1527 812ZM1527 872a5.03 5.03 0 0 0 1.46 3.536 5.01 5.01 0 0 0 7.08 0A5.03 5.03 0 0 0 1537 872a5.03 5.03 0 0 0-1.46-3.536 5.01 5.01 0 0 0-7.08 0A5.03 5.03 0 0 0 1527 872ZM1534 930l-4 4 4-4ZM1538 986l-12 12 12-12ZM1527 1052c0 1.33.53 2.6 1.46 3.54.94.93 2.21 1.46 3.54 1.46s2.6-.53 3.54-1.46c.93-.94 1.46-2.21 1.46-3.54s-.53-2.6-1.46-3.54a5.036 5.036 0 0 0-3.54-1.46c-1.33 0-2.6.53-3.54 1.46-.93.94-1.46 2.21-1.46 3.54ZM1538 1106l-12 12 12-12ZM1534 1170l-4 4 4-4ZM1527 1232c0 1.33.53 2.6 1.46 3.54.94.93 2.21 1.46 3.54 1.46s2.6-.53 3.54-1.46c.93-.94 1.46-2.21 1.46-3.54s-.53-2.6-1.46-3.54a5.036 5.036 0 0 0-3.54-1.46c-1.33 0-2.6.53-3.54 1.46-.93.94-1.46 2.21-1.46 3.54Z"/><path stroke="#407BFF" stroke-width="3" d="m1562 1262-60 60 60-60Z"/><path stroke="#407BFF" d="M1527 1352c0 1.33.53 2.6 1.46 3.54.94.93 2.21 1.46 3.54 1.46s2.6-.53 3.54-1.46c.93-.94 1.46-2.21 1.46-3.54s-.53-2.6-1.46-3.54a5.036 5.036 0 0 0-3.54-1.46c-1.33 0-2.6.53-3.54 1.46-.93.94-1.46 2.21-1.46 3.54ZM1529 1412c0 .8.32 1.56.88 2.12a2.997 2.997 0 1 0 4.24-4.24 2.997 2.997 0 0 0-5.12 2.12ZM1598 746l-12 12 12-12ZM1594 810l-4 4 4-4Z"/><path stroke="#407BFF" stroke-width="3" d="m1622 842-60 60 60-60ZM1622 902l-60 60 60-60Z"/><path stroke="#407BFF" d="m1594 990-4 4 4-4ZM1591 1052c0 .27.11.52.29.71.19.18.44.29.71.29.27 0 .52-.11.71-.29.18-.19.29-.44.29-.71 0-.27-.11-.52-.29-.71-.19-.18-.44-.29-.71-.29-.27 0-.52.11-.71.29-.18.19-.29.44-.29.71Z"/><path stroke="#407BFF" stroke-width="3" d="m1622 1082-60 60 60-60Z"/><path stroke="#407BFF" d="m1598 1166-12 12 12-12ZM1594 1230l-4 4 4-4ZM1589 1292c0 .8.32 1.56.88 2.12a2.997 2.997 0 1 0 4.24-4.24 2.997 2.997 0 0 0-5.12 2.12ZM1598 1346l-12 12 12-12ZM1598 1406l-12 12 12-12ZM1647 752a5.03 5.03 0 0 0 1.46 3.536 5.01 5.01 0 0 0 7.08 0A5.03 5.03 0 0 0 1657 752a5.03 5.03 0 0 0-1.46-3.536 5.01 5.01 0 0 0-7.08 0A5.03 5.03 0 0 0 1647 752ZM1654 810l-4 4 4-4ZM1647 872a5.03 5.03 0 0 0 1.46 3.536 5.01 5.01 0 0 0 7.08 0A5.03 5.03 0 0 0 1657 872a5.03 5.03 0 0 0-1.46-3.536 5.01 5.01 0 0 0-7.08 0A5.03 5.03 0 0 0 1647 872ZM1658 926l-12 12 12-12ZM1658 986l-12 12 12-12ZM1647 1052c0 1.33.53 2.6 1.46 3.54.94.93 2.21 1.46 3.54 1.46s2.6-.53 3.54-1.46c.93-.94 1.46-2.21 1.46-3.54s-.53-2.6-1.46-3.54a5.036 5.036 0 0 0-3.54-1.46c-1.33 0-2.6.53-3.54 1.46-.93.94-1.46 2.21-1.46 3.54ZM1658 1106l-12 12 12-12ZM1654 1170l-4 4 4-4ZM1658 1226l-12 12 12-12ZM1658 1286l-12 12 12-12ZM1647 1352c0 1.33.53 2.6 1.46 3.54.94.93 2.21 1.46 3.54 1.46s2.6-.53 3.54-1.46c.93-.94 1.46-2.21 1.46-3.54s-.53-2.6-1.46-3.54a5.036 5.036 0 0 0-3.54-1.46c-1.33 0-2.6.53-3.54 1.46-.93.94-1.46 2.21-1.46 3.54ZM1651 1412c0 .27.11.52.29.71.19.18.44.29.71.29.27 0 .52-.11.71-.29.18-.19.29-.44.29-.71 0-.27-.11-.52-.29-.71-.19-.18-.44-.29-.71-.29-.27 0-.52.11-.71.29-.18.19-.29.44-.29.71ZM1707 752a5.03 5.03 0 0 0 1.46 3.536 5.01 5.01 0 0 0 7.08 0A5.03 5.03 0 0 0 1717 752a5.03 5.03 0 0 0-1.46-3.536 5.01 5.01 0 0 0-7.08 0A5.03 5.03 0 0 0 1707 752ZM1718 806l-12 12 12-12Z"/><path stroke="#407BFF" stroke-width="3" d="m1742 842-60 60 60-60Z"/><path stroke="#407BFF" d="M1707 932a5.03 5.03 0 0 0 1.46 3.536 5.01 5.01 0 0 0 7.08 0A5.03 5.03 0 0 0 1717 932a5.03 5.03 0 0 0-1.46-3.536 5.01 5.01 0 0 0-7.08 0A5.03 5.03 0 0 0 1707 932Z"/><path stroke="#407BFF" stroke-width="3" d="m1742 962-60 60 60-60Z"/><path stroke="#407BFF" d="M1707 1052c0 1.33.53 2.6 1.46 3.54.94.93 2.21 1.46 3.54 1.46s2.6-.53 3.54-1.46c.93-.94 1.46-2.21 1.46-3.54s-.53-2.6-1.46-3.54a5.036 5.036 0 0 0-3.54-1.46c-1.33 0-2.6.53-3.54 1.46-.93.94-1.46 2.21-1.46 3.54ZM1707 1112c0 1.33.53 2.6 1.46 3.54.94.93 2.21 1.46 3.54 1.46s2.6-.53 3.54-1.46c.93-.94 1.46-2.21 1.46-3.54s-.53-2.6-1.46-3.54a5.036 5.036 0 0 0-3.54-1.46c-1.33 0-2.6.53-3.54 1.46-.93.94-1.46 2.21-1.46 3.54ZM1714 1170l-4 4 4-4ZM1714 1230l-4 4 4-4ZM1707 1292c0 1.33.53 2.6 1.46 3.54.94.93 2.21 1.46 3.54 1.46s2.6-.53 3.54-1.46c.93-.94 1.46-2.21 1.46-3.54s-.53-2.6-1.46-3.54a5.036 5.036 0 0 0-3.54-1.46c-1.33 0-2.6.53-3.54 1.46-.93.94-1.46 2.21-1.46 3.54ZM1711 1352c0 .27.11.52.29.71.19.18.44.29.71.29.27 0 .52-.11.71-.29.18-.19.29-.44.29-.71 0-.27-.11-.52-.29-.71-.19-.18-.44-.29-.71-.29-.27 0-.52.11-.71.29-.18.19-.29.44-.29.71ZM1718 1406l-12 12 12-12Z"/><path stroke="#407BFF" stroke-width="3" d="m1802 722-60 60 60-60Z"/><path stroke="#407BFF" d="m1778 806-12 12 12-12ZM1778 866l-12 12 12-12ZM1767 932a5.03 5.03 0 0 0 1.46 3.536 5.01 5.01 0 0 0 7.08 0A5.03 5.03 0 0 0 1777 932a5.03 5.03 0 0 0-1.46-3.536 5.01 5.01 0 0 0-7.08 0A5.03 5.03 0 0 0 1767 932ZM1767 992a5.03 5.03 0 0 0 1.46 3.536 5.01 5.01 0 0 0 7.08 0A5.03 5.03 0 0 0 1777 992a5.03 5.03 0 0 0-1.46-3.536 5.01 5.01 0 0 0-7.08 0A5.03 5.03 0 0 0 1767 992ZM1767 1052c0 1.33.53 2.6 1.46 3.54.94.93 2.21 1.46 3.54 1.46s2.6-.53 3.54-1.46c.93-.94 1.46-2.21 1.46-3.54s-.53-2.6-1.46-3.54a5.036 5.036 0 0 0-3.54-1.46c-1.33 0-2.6.53-3.54 1.46-.93.94-1.46 2.21-1.46 3.54ZM1778 1106l-12 12 12-12ZM1774 1170l-4 4 4-4ZM1778 1226l-12 12 12-12ZM1769 1292c0 .8.32 1.56.88 2.12a2.997 2.997 0 1 0 4.24-4.24 2.997 2.997 0 0 0-5.12 2.12ZM1769 1352c0 .8.32 1.56.88 2.12a2.997 2.997 0 1 0 4.24-4.24 2.997 2.997 0 0 0-5.12 2.12ZM1767 1412c0 1.33.53 2.6 1.46 3.54.94.93 2.21 1.46 3.54 1.46s2.6-.53 3.54-1.46c.93-.94 1.46-2.21 1.46-3.54s-.53-2.6-1.46-3.54a5.036 5.036 0 0 0-3.54-1.46c-1.33 0-2.6.53-3.54 1.46-.93.94-1.46 2.21-1.46 3.54ZM1827 752a5.03 5.03 0 0 0 1.46 3.536 5.01 5.01 0 0 0 7.08 0A5.03 5.03 0 0 0 1837 752a5.03 5.03 0 0 0-1.46-3.536 5.01 5.01 0 0 0-7.08 0A5.03 5.03 0 0 0 1827 752ZM1829 812c0 .796.32 1.559.88 2.121.56.563 1.32.879 2.12.879s1.56-.316 2.12-.879A3.01 3.01 0 0 0 1835 812a3.01 3.01 0 0 0-.88-2.121A2.984 2.984 0 0 0 1832 809c-.8 0-1.56.316-2.12.879A3.01 3.01 0 0 0 1829 812ZM1838 866l-12 12 12-12ZM1834 930l-4 4 4-4ZM1827 992a5.03 5.03 0 0 0 1.46 3.536 5.01 5.01 0 0 0 7.08 0A5.03 5.03 0 0 0 1837 992a5.03 5.03 0 0 0-1.46-3.536 5.01 5.01 0 0 0-7.08 0A5.03 5.03 0 0 0 1827 992ZM1834 1050l-4 4 4-4ZM1831 1112c0 .27.11.52.29.71.19.18.44.29.71.29.27 0 .52-.11.71-.29.18-.19.29-.44.29-.71 0-.27-.11-.52-.29-.71-.19-.18-.44-.29-.71-.29-.27 0-.52.11-.71.29-.18.19-.29.44-.29.71ZM1827 1172c0 1.33.53 2.6 1.46 3.54.94.93 2.21 1.46 3.54 1.46s2.6-.53 3.54-1.46c.93-.94 1.46-2.21 1.46-3.54s-.53-2.6-1.46-3.54a5.036 5.036 0 0 0-3.54-1.46c-1.33 0-2.6.53-3.54 1.46-.93.94-1.46 2.21-1.46 3.54ZM1831 1232c0 .27.11.52.29.71.19.18.44.29.71.29.27 0 .52-.11.71-.29.18-.19.29-.44.29-.71 0-.27-.11-.52-.29-.71-.19-.18-.44-.29-.71-.29-.27 0-.52.11-.71.29-.18.19-.29.44-.29.71ZM1829 1292c0 .8.32 1.56.88 2.12a2.997 2.997 0 1 0 4.24-4.24 2.997 2.997 0 0 0-5.12 2.12ZM1829 1352c0 .8.32 1.56.88 2.12a2.997 2.997 0 1 0 4.24-4.24 2.997 2.997 0 0 0-5.12 2.12ZM1829 1412c0 .8.32 1.56.88 2.12a2.997 2.997 0 1 0 4.24-4.24 2.997 2.997 0 0 0-5.12 2.12ZM1891 752c0 .265.11.52.29.707a1 1 0 0 0 .71.293 1 1 0 0 0 .71-.293c.18-.187.29-.442.29-.707 0-.265-.11-.52-.29-.707a1 1 0 0 0-.71-.293 1 1 0 0 0-.71.293 1.03 1.03 0 0 0-.29.707ZM1887 812a5.03 5.03 0 0 0 1.46 3.536 5.01 5.01 0 0 0 7.08 0A5.03 5.03 0 0 0 1897 812a5.03 5.03 0 0 0-1.46-3.536 5.01 5.01 0 0 0-7.08 0A5.03 5.03 0 0 0 1887 812ZM1887 872a5.03 5.03 0 0 0 1.46 3.536 5.01 5.01 0 0 0 7.08 0A5.03 5.03 0 0 0 1897 872a5.03 5.03 0 0 0-1.46-3.536 5.01 5.01 0 0 0-7.08 0A5.03 5.03 0 0 0 1887 872ZM1887 932a5.03 5.03 0 0 0 1.46 3.536 5.01 5.01 0 0 0 7.08 0A5.03 5.03 0 0 0 1897 932a5.03 5.03 0 0 0-1.46-3.536 5.01 5.01 0 0 0-7.08 0A5.03 5.03 0 0 0 1887 932Z"/><path stroke="#407BFF" stroke-width="3" d="m1922 962-60 60 60-60Z"/><path stroke="#407BFF" d="M1887 1052c0 1.33.53 2.6 1.46 3.54.94.93 2.21 1.46 3.54 1.46s2.6-.53 3.54-1.46c.93-.94 1.46-2.21 1.46-3.54s-.53-2.6-1.46-3.54a5.036 5.036 0 0 0-3.54-1.46c-1.33 0-2.6.53-3.54 1.46-.93.94-1.46 2.21-1.46 3.54ZM1898 1106l-12 12 12-12ZM1887 1172c0 1.33.53 2.6 1.46 3.54.94.93 2.21 1.46 3.54 1.46s2.6-.53 3.54-1.46c.93-.94 1.46-2.21 1.46-3.54s-.53-2.6-1.46-3.54a5.036 5.036 0 0 0-3.54-1.46c-1.33 0-2.6.53-3.54 1.46-.93.94-1.46 2.21-1.46 3.54ZM1898 1226l-12 12 12-12ZM1898 1286l-12 12 12-12ZM1887 1352c0 1.33.53 2.6 1.46 3.54.94.93 2.21 1.46 3.54 1.46s2.6-.53 3.54-1.46c.93-.94 1.46-2.21 1.46-3.54s-.53-2.6-1.46-3.54a5.036 5.036 0 0 0-3.54-1.46c-1.33 0-2.6.53-3.54 1.46-.93.94-1.46 2.21-1.46 3.54ZM1898 1406l-12 12 12-12ZM1947 752a5.03 5.03 0 0 0 1.46 3.536 5.01 5.01 0 0 0 7.08 0A5.03 5.03 0 0 0 1957 752a5.03 5.03 0 0 0-1.46-3.536 5.01 5.01 0 0 0-7.08 0A5.03 5.03 0 0 0 1947 752ZM1947 812a5.03 5.03 0 0 0 1.46 3.536 5.01 5.01 0 0 0 7.08 0A5.03 5.03 0 0 0 1957 812a5.03 5.03 0 0 0-1.46-3.536 5.01 5.01 0 0 0-7.08 0A5.03 5.03 0 0 0 1947 812ZM1947 872a5.03 5.03 0 0 0 1.46 3.536 5.01 5.01 0 0 0 7.08 0A5.03 5.03 0 0 0 1957 872a5.03 5.03 0 0 0-1.46-3.536 5.01 5.01 0 0 0-7.08 0A5.03 5.03 0 0 0 1947 872ZM1947 932a5.03 5.03 0 0 0 1.46 3.536 5.01 5.01 0 0 0 7.08 0A5.03 5.03 0 0 0 1957 932a5.03 5.03 0 0 0-1.46-3.536 5.01 5.01 0 0 0-7.08 0A5.03 5.03 0 0 0 1947 932ZM1949 992c0 .796.32 1.559.88 2.121.56.563 1.32.879 2.12.879s1.56-.316 2.12-.879A3.01 3.01 0 0 0 1955 992a3.01 3.01 0 0 0-.88-2.121A2.984 2.984 0 0 0 1952 989c-.8 0-1.56.316-2.12.879A3.01 3.01 0 0 0 1949 992ZM1951 1052c0 .27.11.52.29.71.19.18.44.29.71.29.27 0 .52-.11.71-.29.18-.19.29-.44.29-.71 0-.27-.11-.52-.29-.71-.19-.18-.44-.29-.71-.29-.27 0-.52.11-.71.29-.18.19-.29.44-.29.71Z"/><path stroke="#407BFF" stroke-width="3" d="m1982 1082-60 60 60-60Z"/><path stroke="#407BFF" d="m1954 1170-4 4 4-4ZM1951 1232c0 .27.11.52.29.71.19.18.44.29.71.29.27 0 .52-.11.71-.29.18-.19.29-.44.29-.71 0-.27-.11-.52-.29-.71-.19-.18-.44-.29-.71-.29-.27 0-.52.11-.71.29-.18.19-.29.44-.29.71ZM1951 1292c0 .27.11.52.29.71.19.18.44.29.71.29.27 0 .52-.11.71-.29.18-.19.29-.44.29-.71 0-.27-.11-.52-.29-.71-.19-.18-.44-.29-.71-.29-.27 0-.52.11-.71.29-.18.19-.29.44-.29.71ZM1958 1346l-12 12 12-12ZM1958 1406l-12 12 12-12ZM2018 746l-12 12 12-12ZM2009 812c0 .796.32 1.559.88 2.121.56.563 1.32.879 2.12.879s1.56-.316 2.12-.879A3.01 3.01 0 0 0 2015 812a3.01 3.01 0 0 0-.88-2.121A2.984 2.984 0 0 0 2012 809c-.8 0-1.56.316-2.12.879A3.01 3.01 0 0 0 2009 812ZM2007 872a5.03 5.03 0 0 0 1.46 3.536 5.01 5.01 0 0 0 7.08 0A5.03 5.03 0 0 0 2017 872a5.03 5.03 0 0 0-1.46-3.536 5.01 5.01 0 0 0-7.08 0A5.03 5.03 0 0 0 2007 872ZM2007 932a5.03 5.03 0 0 0 1.46 3.536 5.01 5.01 0 0 0 7.08 0A5.03 5.03 0 0 0 2017 932a5.03 5.03 0 0 0-1.46-3.536 5.01 5.01 0 0 0-7.08 0A5.03 5.03 0 0 0 2007 932ZM2009 992c0 .796.32 1.559.88 2.121.56.563 1.32.879 2.12.879s1.56-.316 2.12-.879A3.01 3.01 0 0 0 2015 992a3.01 3.01 0 0 0-.88-2.121A2.984 2.984 0 0 0 2012 989c-.8 0-1.56.316-2.12.879A3.01 3.01 0 0 0 2009 992ZM2018 1046l-12 12 12-12ZM2018 1106l-12 12 12-12ZM2014 1170l-4 4 4-4ZM2014 1230l-4 4 4-4ZM2018 1286l-12 12 12-12ZM2018 1346l-12 12 12-12ZM2009 1412c0 .8.32 1.56.88 2.12a2.997 2.997 0 1 0 4.24-4.24 2.997 2.997 0 0 0-5.12 2.12ZM2071 752c0 .265.11.52.29.707a1 1 0 0 0 .71.293 1 1 0 0 0 .71-.293c.18-.187.29-.442.29-.707 0-.265-.11-.52-.29-.707a1 1 0 0 0-.71-.293 1 1 0 0 0-.71.293 1.03 1.03 0 0 0-.29.707ZM2071 812c0 .265.11.52.29.707a1 1 0 0 0 .71.293 1 1 0 0 0 .71-.293c.18-.187.29-.442.29-.707 0-.265-.11-.52-.29-.707a1 1 0 0 0-.71-.293 1 1 0 0 0-.71.293 1.03 1.03 0 0 0-.29.707Z"/><path stroke="#407BFF" stroke-width="3" d="m2102 842-60 60 60-60Z"/><path stroke="#407BFF" d="m2078 926-12 12 12-12ZM2078 986l-12 12 12-12ZM2078 1046l-12 12 12-12ZM2078 1106l-12 12 12-12Z"/><path stroke="#407BFF" stroke-width="3" d="m2102 1142-60 60 60-60Z"/><path stroke="#407BFF" d="m2074 1230-4 4 4-4ZM2067 1292c0 1.33.53 2.6 1.46 3.54.94.93 2.21 1.46 3.54 1.46s2.6-.53 3.54-1.46c.93-.94 1.46-2.21 1.46-3.54s-.53-2.6-1.46-3.54a5.036 5.036 0 0 0-3.54-1.46c-1.33 0-2.6.53-3.54 1.46-.93.94-1.46 2.21-1.46 3.54ZM2078 1346l-12 12 12-12ZM2067 1412c0 1.33.53 2.6 1.46 3.54.94.93 2.21 1.46 3.54 1.46s2.6-.53 3.54-1.46c.93-.94 1.46-2.21 1.46-3.54s-.53-2.6-1.46-3.54a5.036 5.036 0 0 0-3.54-1.46c-1.33 0-2.6.53-3.54 1.46-.93.94-1.46 2.21-1.46 3.54ZM2127 752a5.03 5.03 0 0 0 1.46 3.536 5.01 5.01 0 0 0 7.08 0A5.03 5.03 0 0 0 2137 752a5.03 5.03 0 0 0-1.46-3.536 5.01 5.01 0 0 0-7.08 0A5.03 5.03 0 0 0 2127 752ZM2138 806l-12 12 12-12ZM2129 872c0 .796.32 1.559.88 2.121.56.563 1.32.879 2.12.879s1.56-.316 2.12-.879A3.01 3.01 0 0 0 2135 872a3.01 3.01 0 0 0-.88-2.121A2.984 2.984 0 0 0 2132 869c-.8 0-1.56.316-2.12.879A3.01 3.01 0 0 0 2129 872ZM2134 930l-4 4 4-4ZM2138 986l-12 12 12-12ZM2127 1052c0 1.33.53 2.6 1.46 3.54.94.93 2.21 1.46 3.54 1.46s2.6-.53 3.54-1.46c.93-.94 1.46-2.21 1.46-3.54s-.53-2.6-1.46-3.54a5.036 5.036 0 0 0-3.54-1.46c-1.33 0-2.6.53-3.54 1.46-.93.94-1.46 2.21-1.46 3.54ZM2127 1112c0 1.33.53 2.6 1.46 3.54.94.93 2.21 1.46 3.54 1.46s2.6-.53 3.54-1.46c.93-.94 1.46-2.21 1.46-3.54s-.53-2.6-1.46-3.54a5.036 5.036 0 0 0-3.54-1.46c-1.33 0-2.6.53-3.54 1.46-.93.94-1.46 2.21-1.46 3.54ZM2127 1172c0 1.33.53 2.6 1.46 3.54.94.93 2.21 1.46 3.54 1.46s2.6-.53 3.54-1.46c.93-.94 1.46-2.21 1.46-3.54s-.53-2.6-1.46-3.54a5.036 5.036 0 0 0-3.54-1.46c-1.33 0-2.6.53-3.54 1.46-.93.94-1.46 2.21-1.46 3.54Z"/><path stroke="#407BFF" stroke-width="3" d="m2162 1202-60 60 60-60Z"/><path stroke="#407BFF" d="M2127 1292c0 1.33.53 2.6 1.46 3.54.94.93 2.21 1.46 3.54 1.46s2.6-.53 3.54-1.46c.93-.94 1.46-2.21 1.46-3.54s-.53-2.6-1.46-3.54a5.036 5.036 0 0 0-3.54-1.46c-1.33 0-2.6.53-3.54 1.46-.93.94-1.46 2.21-1.46 3.54ZM2131 1352c0 .27.11.52.29.71.19.18.44.29.71.29.27 0 .52-.11.71-.29.18-.19.29-.44.29-.71 0-.27-.11-.52-.29-.71-.19-.18-.44-.29-.71-.29-.27 0-.52.11-.71.29-.18.19-.29.44-.29.71ZM2134 1410l-4 4 4-4Z"/></svg>